<?xml version="1.0" standalone="no"?>
<!DOCTYPE svg PUBLIC "-//W3C//DTD SVG 1.1//EN" "http://www.w3.org/Graphics/SVG/1.1/DTD/svg11.dtd" >
<svg xmlns="http://www.w3.org/2000/svg" xmlns:xlink="http://www.w3.org/1999/xlink" version="1.1" viewBox="-10 0 268 256">
   <path fill="currentColor"
d="M115.5 119q-14.5 3 -36 7t-24 4t-10.5 -3.5t-8 -5.5t13.5 -3t29 -4t28.5 -5.5t39 -8.5t35.5 -6.5t14.5 3.5t5 6.5t-8.5 4.5t-20 3t-27.5 3t-30.5 5zM88 195.5q-15 16.5 -37 27.5t-23 8.5t11 -10t29.5 -23.5t25.5 -35.5t10.5 -46t1 -51.5t-6 -30t-3 -7.5t8.5 -1.5t12.5 4
t6.5 6t-0.5 9t-2 25t-2.5 45.5t-9 45t-22 35zM248 228q0 3 -17.5 4.5t-33.5 1.5t-21 -3.5t-16 -18.5t-51 -74l5 -8q22 27 31 38t23.5 24t32 20t32.5 10t15 6z" />
</svg>
