<?xml version="1.0" standalone="no"?>
<!DOCTYPE svg PUBLIC "-//W3C//DTD SVG 1.1//EN" "http://www.w3.org/Graphics/SVG/1.1/DTD/svg11.dtd" >
<svg xmlns="http://www.w3.org/2000/svg" xmlns:xlink="http://www.w3.org/1999/xlink" version="1.1" viewBox="-10 0 267 256">
   <path fill="currentColor"
d="M131.5 84q-8.5 6 -9.5 4.5t10 -16t15.5 -27t2.5 -16t0.5 -5.5t11 1.5t9 7.5t-15 24.5t-24 26.5zM162 103h-10q13 -17 20.5 -29t6 -13.5t-5.5 -0.5t-24 1v-6q11 0 19.5 -2t12 -4t6 -2t10.5 4t8 6.5t-5 4.5t-9.5 8t-28.5 33zM77 241.5q-11 9.5 -13.5 8t9.5 -15t24.5 -37.5
t17 -42.5t5 -30t-1 -15.5t-1.5 -6t6 -2t8 2t2 14t-3 27t-9.5 33t-19.5 36.5t-24 28zM172 106q-36 5 -47 5v-8q16 0 42.5 -6.5t36 -6.5t13.5 1.5t4 3.5t-6.5 4t-42.5 7zM142 198v-31.5t-2.5 -24t-1.5 -6t3 -2t12 0.5q0 5 -1 33t2.5 38.5t16.5 13.5t26.5 1.5t22 -4.5
t11.5 -21.5t5 -18.5t4 17t5.5 23.5t-6.5 11.5t-21.5 6.5t-26.5 1.5t-25 -2.5t-15 -7.5t-7 -11t-2 -18zM194.5 171.5q-3.5 10.5 -8 15.5t-7.5 5t-4.5 -5t-7 -10t-4.5 -6.5t8 1t9.5 -2t4 -16.5t-0.5 -14t-15.5 1t-21.5 3v-7q33 -6 35 -9t5 -3t10.5 4.5t7.5 6.5t-2.5 4t-3.5 12
t-4.5 20.5zM32.5 135.5q7.5 0.5 10 3t6.5 55.5l-10 1q0 -11 -2 -21t-4.5 -19.5t-6.5 -11.5t-2.5 -5t9 -2.5zM101.5 169.5q0.5 2.5 -36.5 22.5t-40.5 20t-8.5 -5t-5 -8.5t6.5 -3t9.5 -0.5t38.5 -14.5t36 -11zM75 141v-6q19 -5 21.5 -5t6.5 1.5t4 4t-4 4t-28 1.5zM90 50
q2 0 6.5 1.5t10 5.5t4.5 6.5t-5.5 5t-9.5 29.5h-11q3 -29 1.5 -30.5t-7 -1.5t-11.5 1.5t-23 3.5v-8q16 -1 26.5 -4.5t13.5 -6t5 -2.5zM51 101l45 -8q3 7 -7.5 9.5t-35.5 4.5zM66.5 122q-1.5 -8 -4 -12.5t-0.5 -5.5t10 3t8.5 8.5t-1.5 20t-2 44.5l-10 3q1 -53 -0.5 -61z
M35.5 61.5q3.5 -1.5 15.5 1.5q8 37 7 43t-3.5 7t-6.5 -12t-5.5 -20t-6 -12.5t-1 -7z" />
</svg>
