<?xml version="1.0" standalone="no"?>
<!DOCTYPE svg PUBLIC "-//W3C//DTD SVG 1.1//EN" "http://www.w3.org/Graphics/SVG/1.1/DTD/svg11.dtd" >
<svg xmlns="http://www.w3.org/2000/svg" xmlns:xlink="http://www.w3.org/1999/xlink" version="1.1" viewBox="-10 0 266 256">
   <path fill="currentColor"
d="M118.5 47.5q4.5 -8.5 2 -11t2 -3.5t11.5 4.5t7.5 8.5t-22 25t-42 33t-20.5 9t12.5 -12.5t29 -27.5t20 -25.5zM19.5 215.5q-14.5 5.5 -15 3t24 -15.5t44.5 -27.5t38 -32t33.5 -43.5t14 -27.5t-13.5 0t-31 1.5v-8q16 0 31.5 -3t17.5 -5.5t6 -2.5t14.5 6.5t10 9.5t-7.5 4.5
t-27 32.5t-40 47.5t-36 27.5t-32.5 19t-31 13.5zM96.5 202.5q-2.5 -23.5 -8.5 -35.5h19q0 3 1 26.5t1.5 26.5t-0.5 9.5t-4.5 6.5t-4.5 -5t-3.5 -28.5zM189 210q5 13 2 12.5t-44 1.5t-46 2v-9q40 -3 88 -7zM196.5 163q11.5 7 11.5 10t-5 4.5t-18 40.5h-13q2 -10 5 -26
t0.5 -18.5t-11.5 -2.5t-27.5 3t-37.5 3v-9q21 0 46 -4t28.5 -6t6.5 -2t14.5 7zM114 118q0 7 -2.5 10t-4 3t-7.5 -8.5t-15 -27.5q15 4 22 10t7 13z" />
</svg>
