<?xml version="1.0" standalone="no"?>
<!DOCTYPE svg PUBLIC "-//W3C//DTD SVG 1.1//EN" "http://www.w3.org/Graphics/SVG/1.1/DTD/svg11.dtd" >
<svg xmlns="http://www.w3.org/2000/svg" xmlns:xlink="http://www.w3.org/1999/xlink" version="1.1" viewBox="-10 0 266 256">
   <path fill="currentColor"
d="M61 88q4 24 6.5 50.5t-2 28t-8 -18.5t-7.5 -35.5t-8.5 -19.5t-4 -6.5t6.5 -2.5t17 4zM122 21.5q11 3.5 12 7.5t-1 7t-2 95t-2.5 112t-5 20t-4.5 -14t-2.5 -24.5t-1 -103t-4 -96t-2 -5.5t12.5 1.5zM194 141q0 3 -4 4t-20.5 1.5t-54.5 4.5t-54 4v-10q8 0 17.5 -1t53.5 -6
t48.5 -5t9 2.5t4.5 5.5zM162 87q-19 2 -111 12v-11q13 0 60 -5.5t58 -6.5t13.5 -3.5t5.5 -2.5t14 8.5t11 11t-5.5 4.5t-21.5 44l-14 1q8 -23 10 -35t0.5 -15.5t-20.5 -1.5z" />
</svg>
