<?xml version="1.0" standalone="no"?>
<!DOCTYPE svg PUBLIC "-//W3C//DTD SVG 1.1//EN" "http://www.w3.org/Graphics/SVG/1.1/DTD/svg11.dtd" >
<svg xmlns="http://www.w3.org/2000/svg" xmlns:xlink="http://www.w3.org/1999/xlink" version="1.1" viewBox="-10 0 273 256">
   <path fill="currentColor"
d="M94 129q0 3 -16.5 25t-31 34.5t-26.5 19t-12.5 5t20 -22t30.5 -36t13.5 -24t1 -14t2 -5.5t8.5 3t7.5 7.5t3.5 7.5zM253 197q0 3 -19 4t-26.5 1t-16.5 -9t-40.5 -55.5t-40.5 -56.5t-15.5 -12.5t-6.5 -5t9.5 -2.5t14.5 4t7.5 9.5t20 27.5t38 44t48 35t27.5 16z" />
</svg>
