<?xml version="1.0" standalone="no"?>
<!DOCTYPE svg PUBLIC "-//W3C//DTD SVG 1.1//EN" "http://www.w3.org/Graphics/SVG/1.1/DTD/svg11.dtd" >
<svg xmlns="http://www.w3.org/2000/svg" xmlns:xlink="http://www.w3.org/1999/xlink" version="1.1" viewBox="-10 0 266 256">
   <path fill="currentColor"
d="M204 104q6 0 13.5 4t7.5 7t-20 6t-61 15.5t-72.5 25.5t-38 13t-15.5 -2t-9.5 -4t11.5 -4t85.5 -27t83 -29.5t15.5 -4.5zM130 218.5q-11 -4.5 -17.5 -14t-8.5 -23.5t-2 -72.5t-4.5 -62t-3.5 -6.5t11.5 0t12.5 6.5t-0.5 9.5t-2.5 47t0.5 53t3 24t8 16.5t16.5 7.5t24.5 2
t23 -4.5t14.5 -21.5t6.5 -18t3.5 17.5t5.5 23t-2.5 9t-20.5 8t-35.5 4t-32 -5z" />
</svg>
