<?xml version="1.0" standalone="no"?>
<!DOCTYPE svg PUBLIC "-//W3C//DTD SVG 1.1//EN" "http://www.w3.org/Graphics/SVG/1.1/DTD/svg11.dtd" >
<svg xmlns="http://www.w3.org/2000/svg" xmlns:xlink="http://www.w3.org/1999/xlink" version="1.1" viewBox="-10 0 266 256">
   <path fill="currentColor"
d="M134 47c-1.33301 2.66699 -2 15.333 -2 38s-0.166992 49.333 -0.5 80s-1.16699 53.167 -2.5 67.5s-3 21.5 -5 21.5s-4.16699 -6.66699 -6.5 -20s-3.16699 -48.667 -2.5 -106s-0.333008 -87.167 -3 -89.5s-3.66699 -4.5 -3 -6.5s4.66699 -2 12 0s11.667 4.33301 13 7
s1.33301 5.33301 0 8zM35 135c-2.66699 0 -6.33301 -1.16699 -11 -3.5s-7.83301 -4.5 -9.5 -6.5s0.166992 -3 5.5 -3s11.167 -0.5 17.5 -1.5s18.833 -2.83301 37.5 -5.5s43.5 -6.66699 74.5 -12s49.167 -7.5 54.5 -6.5s10.333 3 15 6s7.66699 5.83301 9 8.5
s1.16699 4.16699 -0.5 4.5s-10.5 0.166992 -26.5 -0.5s-27.667 -0.833008 -35 -0.5s-19.167 1.5 -35.5 3.5s-35.667 5.33301 -58 10s-34.833 7 -37.5 7zM241.525 184.85c0.5 1.10059 0.399414 1.7002 -0.300781 1.80078c-0.699219 0.0996094 -2.89941 0 -6.59961 -0.300781
c-3.7002 -0.299805 -6.75 -0.449219 -9.15039 -0.449219c-2.39941 0 -7.19922 0.299805 -14.3994 0.899414c-7.2002 0.600586 -12.7002 1.15039 -16.5 1.65039s-7.10059 0.899414 -9.90039 1.2002c-2.7998 0.299805 -4.59961 0.449219 -5.39941 0.449219
c-0.800781 0 -2.05078 -0.549805 -3.75 -1.64941c-1.7002 -1.10059 -2.55078 -1.7998 -2.55078 -2.10059c0 -0.299805 3.60059 -0.699219 10.8008 -1.19922c7.19922 -0.5 13.5996 -1.05078 19.1992 -1.65039c5.60059 -0.599609 11.4502 -1.34961 17.5508 -2.25
c6.09961 -0.900391 9.94922 -1.34961 11.5498 -1.34961c1.59961 0 3.4502 0.549805 5.5498 1.64941c2.09961 1.10059 3.40039 2.2002 3.90039 3.2998z" />
</svg>
