<?xml version="1.0" standalone="no"?>
<!DOCTYPE svg PUBLIC "-//W3C//DTD SVG 1.1//EN" "http://www.w3.org/Graphics/SVG/1.1/DTD/svg11.dtd" >
<svg xmlns="http://www.w3.org/2000/svg" xmlns:xlink="http://www.w3.org/1999/xlink" version="1.1" viewBox="-10 0 266 256">
   <path fill="currentColor"
d="M140 86q-4 1 -22.5 -15t-18.5 -21q12 0 23.5 2.5t17 8.5t5 15t-4.5 10zM191 186.5q9 13.5 9 22.5t-2.5 12t-13 -9t-27.5 -34t-17.5 -25.5t6.5 -1.5t21.5 12t23.5 23.5zM33.5 221.5q-1.5 -1.5 19 -17.5t29.5 -29t6 -17.5t0.5 -5.5t11.5 5.5t8.5 11t-12 15.5t-37 25
t-26 12.5zM27 136q-8 -4 -8 -6.5t5.5 -2.5t44 -5.5t63 -8.5t41.5 -6t33 -3.5t24 6t6.5 9.5t-5.5 4t-17.5 0t-34.5 -1t-37 1t-41.5 5t-41.5 8t-20 4t-12 -4z" />
</svg>
