<?xml version="1.0" standalone="no"?>
<!DOCTYPE svg PUBLIC "-//W3C//DTD SVG 1.1//EN" "http://www.w3.org/Graphics/SVG/1.1/DTD/svg11.dtd" >
<svg xmlns="http://www.w3.org/2000/svg" xmlns:xlink="http://www.w3.org/1999/xlink" version="1.1" viewBox="-10 0 266 256">
   <path fill="currentColor"
d="M167 47q7 0 15 4t8 6.5t-16 5.5t-49.5 7t-36 4t-10.5 -3t-9.5 -5.5t9 -2.5t17.5 -1.5t36 -8t36 -6.5zM88 210h-12q3 -8 13.5 -43t15 -55t4.5 -49q15 11 17 14t-1.5 17t-36.5 116zM152 208h-13q15 -72 14 -73.5t-4 -1.5t-17.5 2.5t-34 7.5t-26.5 5t-12.5 -3.5t-5.5 -5
t13.5 -2.5t29.5 -4t35 -7t21 -6.5t5 -2.5t13.5 5.5t10.5 7.5t-5 7t-11.5 28t-12.5 43zM233.5 209.5q3.5 5.5 2 5.5t-22.5 -1t-53 -1t-56.5 2.5t-52 8t-33 4t-9.5 -5.5t-4 -7q27 -2 80 -7.5t84.5 -9t37.5 -3.5t14.5 4.5t12 10z" />
</svg>
