<?xml version="1.0" standalone="no"?>
<!DOCTYPE svg PUBLIC "-//W3C//DTD SVG 1.1//EN" "http://www.w3.org/Graphics/SVG/1.1/DTD/svg11.dtd" >
<svg xmlns="http://www.w3.org/2000/svg" xmlns:xlink="http://www.w3.org/1999/xlink" version="1.1" viewBox="-10 0 266 256">
   <path fill="currentColor"
d="M167.5 131.5q8.5 3.5 8.5 6t-4 4t-10.5 1.5t-16 1t-29.5 4t-23.5 3t-11.5 -2.5t-8.5 -4t38 -9t43.5 -7.5t13.5 3.5zM134 69.5q24 -6.5 30.5 -6.5t13 1.5t8 4t-1 5t-10.5 4t-43 7.5t-44 6t-14.5 -4.5t-2.5 -5t21.5 -3t42.5 -9zM149.5 210q-26.5 1 -48 4t-42.5 6.5t-24 3.5
t-13.5 -5.5t-10.5 -7t9.5 -1.5t50.5 -5t84.5 -10t47.5 -5t19.5 6t15.5 11.5t-18 3.5t-31 -2t-39.5 1z" />
</svg>
