<?xml version="1.0" standalone="no"?>
<!DOCTYPE svg PUBLIC "-//W3C//DTD SVG 1.1//EN" "http://www.w3.org/Graphics/SVG/1.1/DTD/svg11.dtd" >
<svg xmlns="http://www.w3.org/2000/svg" xmlns:xlink="http://www.w3.org/1999/xlink" version="1.1" viewBox="-10 0 266 256">
   <path fill="currentColor"
d="M134 47c-1.33301 2.66699 -2 15.333 -2 38s-0.166992 49.333 -0.5 80s-1.16699 53.167 -2.5 67.5s-3 21.5 -5 21.5s-4.16699 -6.66699 -6.5 -20s-3.16699 -48.667 -2.5 -106s-0.333008 -87.167 -3 -89.5s-3.66699 -4.5 -3 -6.5s4.66699 -2 12 0s11.667 4.33301 13 7
s1.33301 5.33301 0 8zM35 135c-2.66699 0 -6.33301 -1.16699 -11 -3.5s-7.83301 -4.5 -9.5 -6.5s0.166992 -3 5.5 -3s11.167 -0.5 17.5 -1.5s18.833 -2.83301 37.5 -5.5s43.5 -6.66699 74.5 -12s49.167 -7.5 54.5 -6.5s10.333 3 15 6s7.66699 5.83301 9 8.5
s1.16699 4.16699 -0.5 4.5s-10.5 0.166992 -26.5 -0.5s-27.667 -0.833008 -35 -0.5s-19.167 1.5 -35.5 3.5s-35.667 5.33301 -58 10s-34.833 7 -37.5 7zM211 165.35c1.59961 0 3.2002 0.400391 4.7998 1.2002c1.60059 0.799805 2.40039 1.60059 2.40039 2.40039
s-0.700195 1.34961 -2.10059 1.64941c-1.39941 0.300781 -6.39941 1.05078 -15 2.25c-8.59961 1.2002 -13.5996 1.80078 -15 1.80078c-1.39941 0 -2.94922 -0.450195 -4.64941 -1.35059c-1.7002 -0.899414 -2.4502 -1.5 -2.25 -1.7998s3.5 -0.950195 9.89941 -1.9502
c6.40039 -1 11.25 -1.9502 14.5508 -2.84961c3.2998 -0.900391 5.75 -1.35059 7.34961 -1.35059zM182.05 205.85c-3.09961 0.400391 -6.39941 0.800781 -9.89941 1.2002c-3.5 0.400391 -5.5 0.600586 -6 0.600586s-1.55078 -0.5 -3.15039 -1.5
s-2.40039 -1.80078 -2.40039 -2.40039s2 -0.900391 6 -0.900391s13.1504 -0.75 27.4502 -2.25s22.7002 -2.5 25.2002 -3s4.34961 -0.649414 5.5498 -0.449219c1.2002 0.199219 2.5498 0.799805 4.0498 1.7998s2.35059 1.7998 2.55078 2.39941
c0.199219 0.600586 0.199219 1.15039 0 1.65039c-0.200195 0.5 -3.25 0.599609 -9.15039 0.299805s-11 -0.299805 -15.2998 0s-8.75 0.700195 -13.3506 1.2002c-4.59961 0.5 -8.44922 0.950195 -11.5498 1.34961z" />
</svg>
