<?xml version="1.0" standalone="no"?>
<!DOCTYPE svg PUBLIC "-//W3C//DTD SVG 1.1//EN" "http://www.w3.org/Graphics/SVG/1.1/DTD/svg11.dtd" >
<svg xmlns="http://www.w3.org/2000/svg" xmlns:xlink="http://www.w3.org/1999/xlink" version="1.1" viewBox="-10 0 270 256">
   <path fill="currentColor"
d="M165.5 233q-13.5 -4 -20.5 -13.5t-8 -23t0.5 -24t7 -38.5t4 -29t-25.5 7t-50.5 17t-29.5 9t-9.5 -5t-6.5 -8q13 0 50.5 -10t53.5 -15.5t19.5 -9.5t7 -4t11 6t7.5 8.5t-4.5 5t-9 14.5t-8.5 29.5t-5 31t1 21t9 12t19 6t26 -1t19.5 -8.5t8.5 -24.5t6 -18t4 18.5t6 27
t-14.5 16t-37 7.5t-31 -3.5zM67 198q-18 20 -36 29t-19 8t15 -12.5t32.5 -33t27.5 -51t14 -48.5t3.5 -32t-3 -15.5t-1 -4.5t9 0t11 4.5t5 4.5t-1.5 12l-7 35t-18.5 54.5t-31.5 49.5z" />
</svg>
