<?xml version="1.0" standalone="no"?>
<!DOCTYPE svg PUBLIC "-//W3C//DTD SVG 1.1//EN" "http://www.w3.org/Graphics/SVG/1.1/DTD/svg11.dtd" >
<svg xmlns="http://www.w3.org/2000/svg" xmlns:xlink="http://www.w3.org/1999/xlink" version="1.1" viewBox="-10 0 266 256">
   <path fill="currentColor"
d="M134 47c-1.33301 2.66699 -2 15.333 -2 38s-0.166992 49.333 -0.5 80s-1.16699 53.167 -2.5 67.5s-3 21.5 -5 21.5s-4.16699 -6.66699 -6.5 -20s-3.16699 -48.667 -2.5 -106s-0.333008 -87.167 -3 -89.5s-3.66699 -4.5 -3 -6.5s4.66699 -2 12 0s11.667 4.33301 13 7
s1.33301 5.33301 0 8zM35 135c-2.66699 0 -6.33301 -1.16699 -11 -3.5s-7.83301 -4.5 -9.5 -6.5s0.166992 -3 5.5 -3s11.167 -0.5 17.5 -1.5s18.833 -2.83301 37.5 -5.5s43.5 -6.66699 74.5 -12s49.167 -7.5 54.5 -6.5s10.333 3 15 6s7.66699 5.83301 9 8.5
s1.16699 4.16699 -0.5 4.5s-10.5 0.166992 -26.5 -0.5s-27.667 -0.833008 -35 -0.5s-19.167 1.5 -35.5 3.5s-35.667 5.33301 -58 10s-34.833 7 -37.5 7zM207.4 179.9c1.69922 0.699219 2.5498 1.2998 2.5498 1.7998s-0.400391 0.899414 -1.2002 1.2002
c-0.799805 0.299805 -1.84961 0.449219 -3.15039 0.449219c-1.2998 0 -2.89941 0.100586 -4.7998 0.300781c-1.89941 0.199219 -4.84961 0.599609 -8.84961 1.19922c-4 0.600586 -6.35059 0.900391 -7.0498 0.900391c-0.700195 0 -1.85059 -0.25 -3.4502 -0.75
c-1.60059 -0.5 -2.4502 -0.900391 -2.5498 -1.2002c-0.100586 -0.299805 3.69922 -1.2002 11.3994 -2.7002s12.0498 -2.25 13.0498 -2.25s2.35059 0.350586 4.05078 1.05078zM197.35 161.3c4.80078 -1.2998 7.85059 -1.9502 9.15039 -1.9502
s2.59961 0.150391 3.90039 0.450195c1.2998 0.299805 2.09961 0.700195 2.39941 1.2002s0.200195 1 -0.299805 1.5s-1.5498 0.900391 -3.15039 1.2002c-1.59961 0.299805 -5.89941 1.0498 -12.8994 2.25s-11.4004 1.7998 -13.2002 1.7998s-3.25 -0.450195 -4.34961 -1.34961
c-1.10059 -0.900391 -1.35059 -1.40039 -0.75 -1.5c0.599609 -0.100586 2.75 -0.400391 6.44922 -0.900391c3.7002 -0.5 7.9502 -1.40039 12.75 -2.7002zM202 203.45c-5.2998 0.200195 -10.0996 0.599609 -14.4004 1.2002c-4.2998 0.599609 -8.5498 1.25 -12.75 1.94922
c-4.19922 0.700195 -6.59961 1.05078 -7.19922 1.05078c-0.600586 0 -1.9502 -0.550781 -4.05078 -1.65039c-2.09961 -1.09961 -3.14941 -1.7998 -3.14941 -2.09961c0 -0.300781 0.950195 -0.450195 2.84961 -0.450195c1.90039 0 6.9502 -0.5 15.1504 -1.5
s16.6494 -2 25.3496 -3s13.4502 -1.5 14.25 -1.5s2.75 0.599609 5.85059 1.7998c3.09961 1.2002 4.64941 2.34961 4.64941 3.4502c0 1.09961 -1.7998 1.4502 -5.39941 1.0498c-3.60059 -0.400391 -6.7002 -0.599609 -9.30078 -0.599609
c-2.59961 0 -6.5498 0.0996094 -11.8496 0.299805z" />
</svg>
