<?xml version="1.0" standalone="no"?>
<!DOCTYPE svg PUBLIC "-//W3C//DTD SVG 1.1//EN" "http://www.w3.org/Graphics/SVG/1.1/DTD/svg11.dtd" >
<svg xmlns="http://www.w3.org/2000/svg" xmlns:xlink="http://www.w3.org/1999/xlink" version="1.1" viewBox="-10 0 266 256">
   <path fill="currentColor"
d="M134 47q-2 4 -2 38t-0.5 80t-2.5 67.5t-5 21.5t-6.5 -20t-2.5 -106t-3 -89.5t-3 -6.5t12 0t13 7t0 8zM35 135q-4 0 -11 -3.5t-9.5 -6.5t5.5 -3t17.5 -1.5t37.5 -5.5t74.5 -12t54.5 -6.5t15 6t9 8.5t-0.5 4.5t-26.5 -0.5t-35 -0.5t-35.5 3.5t-58 10t-37.5 7z" />
</svg>
