<?xml version="1.0" standalone="no"?>
<!DOCTYPE svg PUBLIC "-//W3C//DTD SVG 1.1//EN" "http://www.w3.org/Graphics/SVG/1.1/DTD/svg11.dtd" >
<svg xmlns="http://www.w3.org/2000/svg" xmlns:xlink="http://www.w3.org/1999/xlink" version="1.1" viewBox="-10 0 266 256">
   <path fill="currentColor"
d="M25 81q4 -1 19 4q4 18 8.5 66.5t2.5 51t-4.5 2t-6 -17.5t-5.5 -32.5t-5 -35t-8 -28.5t-1 -10zM75 159.5q-12 10.5 -13.5 8.5t8.5 -14.5t15 -29.5t3 -39q16 9 17 12.5t-1.5 12.5t-9.5 24t-19 25.5zM147 105q-1 7 -0.5 16t4.5 11.5t12 1t12 -1.5t9.5 3t5.5 5.5t-9 5.5
t-21.5 2.5t-18 -5.5t-6.5 -19t-3 -45q16 11 16 15t-1 11zM156.5 175q14.5 0 25.5 11q-32 0 -75 4t-56 4v-9q13 0 52 -5t53.5 -5zM228 90q-4 3 -7 19t-10 53t-15 47.5t-13 10.5t-3.5 -8.5t-11.5 -31.5q16 8 19 1.5t9 -42.5t6.5 -45t-3.5 -11.5t-10.5 -3t-153.5 14.5v-10
q16 0 66.5 -5t69 -8.5t21.5 -5.5t7 -0.5t18 8.5t14.5 10.5t-3.5 6.5z" />
</svg>
