<?xml version="1.0" standalone="no"?>
<!DOCTYPE svg PUBLIC "-//W3C//DTD SVG 1.1//EN" "http://www.w3.org/Graphics/SVG/1.1/DTD/svg11.dtd" >
<svg xmlns="http://www.w3.org/2000/svg" xmlns:xlink="http://www.w3.org/1999/xlink" version="1.1" viewBox="-10 0 266 256">
   <path fill="currentColor"
d="M65.5 92q-22.5 4 -26.5 3.5t-12 -5.5t-8 -6.5t9.5 -1.5t36 -3t48 -6t39 -6t28 -6t17 -3t18.5 5.5t14 10.5t-2.5 4.5t-37 0t-51 2.5t-34.5 4.5t-38.5 6.5zM122.5 104.5q-1.5 -11.5 -5 -16.5t-0.5 -10q19 4 20.5 7t1.5 6.5t-1.5 13t0.5 53t1 58t-7 23.5t-9 9t-6 -8
t-15.5 -15.5t-13 -10t13 0t17.5 1.5t5.5 -10t0.5 -49.5t-2.5 -52z" />
</svg>
