<?xml version="1.0" standalone="no"?>
<!DOCTYPE svg PUBLIC "-//W3C//DTD SVG 1.1//EN" "http://www.w3.org/Graphics/SVG/1.1/DTD/svg11.dtd" >
<svg xmlns="http://www.w3.org/2000/svg" xmlns:xlink="http://www.w3.org/1999/xlink" version="1.1" viewBox="-10 0 266 256">
   <path fill="currentColor"
d="M70.5 53.5q8.5 -15.5 12 -25t0.5 -13t1 -4.5t12 4.5t8.5 9t-9.5 19.5t-24.5 33t-24.5 24t-11.5 5.5t13 -19.5t23 -33.5zM193.5 185.5q-3.5 21.5 -10 34.5t-13 18t-10.5 5t-3.5 -7.5t-13.5 -17t-14.5 -12t16 1.5t19.5 3.5t7.5 -12t8 -49t3 -52t-2.5 -18.5t-15 -4t-46.5 5
t-38.5 4t-13 -13q24 0 44 -2.5t39.5 -4.5t22.5 -4t7 -1.5t15 8.5t11 11t-3 5t-4.5 41t-5 60.5z" />
</svg>
