<?xml version="1.0" standalone="no"?>
<!DOCTYPE svg PUBLIC "-//W3C//DTD SVG 1.1//EN" "http://www.w3.org/Graphics/SVG/1.1/DTD/svg11.dtd" >
<svg xmlns="http://www.w3.org/2000/svg" xmlns:xlink="http://www.w3.org/1999/xlink" version="1.1" viewBox="-10 0 270 256">
   <path fill="currentColor"
d="M116.5 97q-0.5 17 0.5 66.5t0.5 70.5t-3.5 21t-6.5 -8.5t-4.5 -12.5t1.5 -18.5t1.5 -78t-3 -82.5t-6 -21t-2.5 -5t7.5 -2t12.5 4t7 6t-1.5 6.5t-2.5 20t-1 33.5zM161.5 98q-25.5 4 -61.5 10.5t-41.5 6.5t-12 -3t-6.5 -4.5t6.5 -1.5t25.5 -4t51 -12t44 -8t16 3t4 6
t-25.5 7zM104 101l8 11q-16 38 -33 58t-33 32t-28.5 18t-13 4t20.5 -19.5t39 -39t40 -64.5zM194.5 207.5q-5.5 -1.5 -12 -8.5t-24 -27.5t-46.5 -55.5l3 -7q41 41 59.5 55.5t47.5 25t27.5 13t-14.5 5t-24 2t-16.5 -2z" />
</svg>
