<?xml version="1.0" standalone="no"?>
<!DOCTYPE svg PUBLIC "-//W3C//DTD SVG 1.1//EN" "http://www.w3.org/Graphics/SVG/1.1/DTD/svg11.dtd" >
<svg xmlns="http://www.w3.org/2000/svg" xmlns:xlink="http://www.w3.org/1999/xlink" version="1.1" viewBox="-10 0 266 256">
   <path fill="currentColor"
d="M127 56q12 -9 9.5 -12.5t0 -5t8.5 0.5t11.5 6.5t5.5 7.5t-25.5 15t-50.5 18.5t-25 3.5t27 -14t39 -20zM117.5 181q3.5 16 19 20t32.5 4t27 -2t16 -6t9 -26t5.5 -22t5.5 23t7 29t-11.5 13.5t-37.5 9t-39.5 -0.5t-28 -9t-16 -18t-4 -48t-1.5 -74q20 11 20.5 15.5t-2 9
t-4 35.5t2 47zM80.5 152q-37.5 12 -42.5 12t-16 -5.5t-5.5 -6t36 -7.5t80 -21.5t56 -14.5t12 4t5.5 6.5t-9.5 4.5t-17 3t-34.5 7t-64.5 18z" />
</svg>
