<?xml version="1.0" standalone="no"?>
<!DOCTYPE svg PUBLIC "-//W3C//DTD SVG 1.1//EN" "http://www.w3.org/Graphics/SVG/1.1/DTD/svg11.dtd" >
<svg xmlns="http://www.w3.org/2000/svg" xmlns:xlink="http://www.w3.org/1999/xlink" version="1.1" viewBox="-10 0 266 256">
   <path fill="currentColor"
d="M87 22.5q2 -1.5 17 3.5q0 80 -2.5 80.5t-6 -3.5t-3.5 -24.5t-1 -32.5t-3.5 -17t-0.5 -6.5zM145 110.5q1 -5.5 -6 -18.5q9 1 11.5 -6.5t4.5 -29.5t-1 -25t-25 0t-33 3v-8q13 0 32.5 -3t22 -5.5t7 -1.5t13 6.5t8.5 8t-3 5.5t-6 28.5t-9 38.5t-11.5 13t-4.5 -5.5zM138 62.5
q-4 1.5 -12 2.5t-27 1v-7q8 0 20 -3t17.5 -1t5.5 4t-4 3.5zM139 88.5q3 1.5 5.5 4t2.5 5.5l-48 2v-8q10 0 23.5 -2.5t16.5 -1zM88 136q-16 12 -33 20t-18 6t16.5 -14.5t26.5 -22t7 -13t1 -4.5t9.5 3.5t6.5 8.5t-16 16zM102 138q14 11 12.5 15t-15 15.5t-34.5 21.5t-22 7
t13 -11t29 -22.5t17 -25.5zM125.5 171q19.5 -23 20.5 -37q16 12 15 16t-19.5 25t-40 35t-38.5 20.5t-18.5 4.5t30 -21.5t51 -42.5zM151 258.5q-5 -0.5 -3 -8.5t-8 -20t-9 -13.5t12.5 5t15 7t7.5 -2.5t12.5 -20t13 -37.5t4 -25.5t-6 -6.5t-51 2.5t-61.5 2v-8q19 2 65.5 -2.5
t49 -7t5.5 -2t8 3t10.5 8t5.5 8t-3 5.5t-5 11t-8.5 30t-17.5 41t-21 25t-15 5.5z" />
</svg>
