<?xml version="1.0" standalone="no"?>
<!DOCTYPE svg PUBLIC "-//W3C//DTD SVG 1.1//EN" "http://www.w3.org/Graphics/SVG/1.1/DTD/svg11.dtd" >
<svg xmlns="http://www.w3.org/2000/svg" xmlns:xlink="http://www.w3.org/1999/xlink" version="1.1" viewBox="-10 0 266 256">
   <path fill="currentColor"
d="M207 155q3 0 4.5 21t5 28.5t-8.5 14t-29 9t-40 2.5t-34.5 -3t-21 -11t-14.5 -21.5t-5 -64.5t-1 -63t-4 -14.5t-1.5 -5t7 -1.5t12 5t7 6.5t-1.5 6t-2.5 12t-1 25t-1 32t0.5 32t5.5 26.5t16.5 14.5t36 4.5t35.5 -2t18.5 -6.5t10.5 -25.5t6.5 -21zM169 71q-2 -3 0.5 -4.5
t8 2.5t9 10t2 9t-25.5 18.5t-94 44.5l-2 -6q60 -31 73.5 -42t22 -20t6.5 -12z" />
</svg>
