<?xml version="1.0" standalone="no"?>
<!DOCTYPE svg PUBLIC "-//W3C//DTD SVG 1.1//EN" "http://www.w3.org/Graphics/SVG/1.1/DTD/svg11.dtd" >
<svg xmlns="http://www.w3.org/2000/svg" xmlns:xlink="http://www.w3.org/1999/xlink" version="1.1" viewBox="-10 0 266 256">
   <path fill="currentColor"
d="M106 91q0 5 -1 6.5t-4 1.5t-8 -5.5t-7 -10.5t-1.5 -6.5t6 -1t10.5 5.5t5 10zM83.5 149.5q8.5 -8.5 12 -14.5t2 -9t0.5 -3.5t7.5 1.5t6 6.5t-6 10.5t-17.5 13.5t-12 5.5t7.5 -10.5zM156 149q-4 0 -16.5 -13t-12 -14.5t6.5 -1.5t16 7t10 14.5t-4 7.5zM109 16q8 0 16 4
t9.5 6.5t1.5 8t-3 8t-8 0t-15 -12.5t-9.5 -12t8.5 -2zM40 77q-3 0 -12 -6t-5.5 -6t24 -3t40.5 -5.5t69.5 -10.5t62.5 -2.5t13 9.5t-4 5t-14.5 0t-30.5 -1t-34.5 1t-42.5 5.5t-45.5 9t-20.5 4.5zM154.5 78.5q-4.5 3.5 -26.5 28.5h-8q8 -12 15.5 -26.5t5 -17t0.5 -4.5t11 3
t7.5 9t-5 7.5zM57.5 158.5q0.5 -27.5 -3 -36.5t-2.5 -11t17 2q0 32 -0.5 59.5t-3 46.5t-5 19t-5.5 -7.5t-3 -10.5t2.5 -18.5t3 -43zM100 211q-1 0 -2.5 -4t-9.5 -44q5 0 14 3q0 13 1.5 27.5t-0.5 16t-3 1.5zM141 157.5q3 0.5 9.5 6t6.5 8t-4 4t-11 20.5l-9 -1q3 -10 3 -17
t-1.5 -8t-5.5 -1t-33 2v-5q37 -5 39.5 -7t5.5 -1.5zM146 199.5q-4 1.5 -7 1.5t-40 2v-8q8 0 24 -2.5t18.5 -2t5.5 2t3 3.5t-4 3.5zM190.5 254q-4.5 5 -9 5t-4 -8.5t-11.5 -18.5t-10.5 -11t12 2.5t13.5 1t4 -9t1 -13.5t-2.5 -44.5t-5 -42.5t-12 -5.5t-105.5 12.5v-9
q34 -4 71.5 -8.5t40 -7.5t5 -3t13.5 6.5t11 8.5t-3.5 4.5t-2.5 23.5t3.5 46.5t2 36.5t-3.5 20t-7.5 14z" />
</svg>
