<?xml version="1.0" standalone="no"?>
<!DOCTYPE svg PUBLIC "-//W3C//DTD SVG 1.1//EN" "http://www.w3.org/Graphics/SVG/1.1/DTD/svg11.dtd" >
<svg xmlns="http://www.w3.org/2000/svg" xmlns:xlink="http://www.w3.org/1999/xlink" version="1.1" viewBox="-10 0 1009 1000">
   <path fill="currentColor"
d="M541.598 180.615c2.5293 0.631836 4.74316 0.949219 6.64062 0.949219h4.11133c0.632812 0 1.31738 -0.0527344 2.05566 -0.158203l30.9902 -2.84668c1.37109 -9.27539 2.21387 -19.2373 2.53027 -29.8838v-0.949219c0 -2.4248 -0.369141 -4.7959 -1.10645 -7.11523
c-0.738281 -2.31836 -1.10645 -3.63672 -1.10645 -3.95312c0 -0.948242 0.631836 -1.42285 1.89648 -1.42285c1.26562 0 3.05664 0.421875 5.37695 1.26465c2.31836 0.84375 4.05762 1.74023 5.21777 2.68848c1.15918 0.842773 1.73828 1.9502 1.73828 3.32031v0.316406
c-0.420898 11.5957 -1.47559 23.1377 -3.16211 34.6279l30.043 -2.8457l2.37109 -0.15918c1.89746 0 3.58496 0.632812 5.06055 1.89746c1.58105 1.16016 2.37207 2.31934 2.37207 3.47949c0 1.15918 -0.15918 2.16016 -0.474609 3.00293
c-0.211914 0.84375 -0.369141 1.63477 -0.474609 2.37305l-6.4834 61.5068c-0.209961 1.89844 -0.31543 3.58496 -0.31543 5.06055s0.31543 2.79297 0.948242 3.95215c1.26465 2.31934 5.1123 3.47852 11.543 3.47852c6.42969 0 10.8564 -0.31543 13.2812 -0.948242
c2.42578 -0.632812 4.11133 -1.63379 5.06055 -3.00391c1.05273 -1.47559 2.31836 -4.21582 3.79395 -8.22168c1.47656 -4.11133 2.63574 -8.95996 3.47949 -14.5469c0.842773 -5.69238 1.9502 -8.53906 3.31934 -8.53906c1.47656 0 2.26758 2.68848 2.37207 8.06445
v3.16211c0 8.32715 -0.420898 14.8623 -1.26465 19.6064c-0.84375 4.63867 -2.37207 8.01172 -4.58594 10.1191c-2.21289 2.1084 -5.27051 3.42578 -9.16992 3.9541c-3.90039 0.526367 -9.75098 0.790039 -17.5518 0.790039c-7.69434 0 -13.2812 -1.26465 -16.7598 -3.7959
c-3.37305 -2.5293 -5.06055 -6.69336 -5.06055 -12.4902v-1.89746c0 -0.738281 0.0537109 -1.47656 0.15918 -2.21387l6.48242 -64.9863l-29.7266 2.68848c-2.4248 12.4385 -5.32324 22.7686 -8.69629 30.9912c-3.37305 8.11621 -7.37891 15.2314 -12.0176 21.3457
c-4.6377 6.00781 -9.43359 11.1729 -14.3877 15.4951c-4.95508 4.21582 -9.64551 7.64258 -14.0723 10.2773c-4.42773 2.63574 -8.16992 4.58594 -11.2266 5.85059c-2.95215 1.26465 -4.90137 1.89746 -5.85059 1.89746s-1.42285 -0.369141 -1.42285 -1.10645
c0 -0.949219 1.15918 -2.21387 3.47852 -3.79492c11.7002 -7.90625 21.0303 -16.0752 27.9873 -24.5078c6.95605 -8.53906 12.332 -17.3936 16.1279 -26.5645c3.79395 -9.27637 6.64062 -18.8691 8.53809 -28.7773l-28.6201 2.5293
c-1.05371 0.105469 -2.00293 0.211914 -2.8457 0.316406c-0.842773 0.105469 -2.00293 0.158203 -3.47852 0.158203c-1.37012 0 -2.74023 -0.68457 -4.11133 -2.05566c-1.26465 -1.37012 -2.21289 -2.74023 -2.8457 -4.11133
c-0.527344 -1.47559 -0.84375 -2.26562 -0.948242 -2.37109c-0.105469 -0.209961 -0.158203 -0.579102 -0.158203 -1.10645s0.31543 -0.791016 0.948242 -0.791016v0v0z" />
</svg>
