<?xml version="1.0" standalone="no"?>
<!DOCTYPE svg PUBLIC "-//W3C//DTD SVG 1.1//EN" "http://www.w3.org/Graphics/SVG/1.1/DTD/svg11.dtd" >
<svg xmlns="http://www.w3.org/2000/svg" xmlns:xlink="http://www.w3.org/1999/xlink" version="1.1" viewBox="-10 0 1009 1000">
   <path fill="currentColor"
d="M558.873 160.989l-5.07227 0.163086c-2.50977 0 -4.36426 -0.490234 -5.56348 -1.47266c-1.09082 -1.09082 -2.01855 -2.72656 -2.78125 -4.9082c-0.763672 -2.29004 -1.14551 -3.49023 -1.14551 -3.59961c0 -0.763672 0.381836 -1.14551 1.14551 -1.14551
c0.327148 0 0.981445 0.163086 1.96289 0.491211c1.09082 0.327148 3.16406 0.491211 6.21777 0.491211h2.12695l78.7002 -4.58105c2.29004 -0.21875 4.14551 -0.545898 5.5625 -0.982422c1.41797 -0.544922 2.50879 -0.818359 3.27246 -0.818359
c0.873047 0 2.01855 0.599609 3.43555 1.80078c1.52734 1.08984 2.83691 2.34375 3.92773 3.76172c1.08984 1.30957 1.63574 2.3457 1.63574 3.10938c0 1.63672 -1.47266 2.56348 -4.41699 2.78125zM570.162 204.838l-4.74512 0.164062
c-2.39941 0 -4.09082 -0.381836 -5.07227 -1.14551c-0.763672 -0.763672 -1.74512 -2.07227 -2.94531 -3.92676c-1.2002 -1.96289 -1.79883 -3.54492 -1.79883 -4.74414c0 -1.20117 0.380859 -1.7998 1.14453 -1.7998c0.327148 0 1.14551 0.217773 2.45508 0.65332
c1.30859 0.328125 3.38086 0.491211 6.2168 0.491211h1.63574l59.8848 -2.94434c2.29102 -0.21875 4.14453 -0.545898 5.5625 -0.982422c1.41797 -0.544922 2.4541 -0.818359 3.1084 -0.818359c0.763672 0 1.90918 0.545898 3.43652 1.63672
c1.52637 1.09082 2.83594 2.34473 3.92676 3.76367c1.2002 1.41797 1.79883 2.61719 1.79883 3.59863c0 1.63672 -1.47168 2.56348 -4.41699 2.78223zM536.293 245.088l116.658 -3.92578c1.74512 -0.109375 3.70898 -0.382812 5.89062 -0.818359
c2.18262 -0.545898 3.59961 -0.818359 4.25391 -0.818359c0.763672 0 1.96387 0.490234 3.59961 1.47266c1.63672 0.981445 3.1084 2.18164 4.41797 3.59961c1.30859 1.41797 1.96289 2.67188 1.96289 3.7627c0 1.96387 -1.41797 3.05469 -4.25391 3.27246l-125.493 4.25391
l-4.41797 0.164062c-3.05469 0 -5.29004 -0.544922 -6.70801 -1.63672c-1.41895 -1.19922 -2.61816 -2.78125 -3.59961 -4.74414c-0.982422 -1.96387 -1.47266 -3.38184 -1.47266 -4.25391c0 -0.873047 0.272461 -1.30957 0.818359 -1.30957
c0.654297 0 1.58105 0.163086 2.78125 0.491211c1.19922 0.327148 3.05469 0.490234 5.5625 0.490234v0v0z" />
</svg>
