<?xml version="1.0" standalone="no"?>
<!DOCTYPE svg PUBLIC "-//W3C//DTD SVG 1.1//EN" "http://www.w3.org/Graphics/SVG/1.1/DTD/svg11.dtd" >
<svg xmlns="http://www.w3.org/2000/svg" xmlns:xlink="http://www.w3.org/1999/xlink" version="1.1" viewBox="-10 0 1009 1000">
   <path fill="currentColor"
d="M584.762 215.524l-0.324219 30.0068v1.94727c0 5.62305 0.648438 9.84082 1.94629 12.6523c1.29785 2.70312 3.89258 4.54102 7.78613 5.51465c4.00098 0.865234 10.1104 1.29785 18.3291 1.29785c8.32617 0 15.8418 -0.541016 22.5469 -1.62207
c6.8125 -1.08203 11.1377 -2.05469 12.9766 -2.91992s3.08105 -1.29785 3.73047 -1.29785c0.648438 0 1.83887 0.487305 3.56836 1.45996c1.83887 0.973633 3.51465 2.16309 5.02832 3.56934c1.51465 1.29688 2.27051 2.43262 2.27051 3.40625
c0 1.73047 -1.67676 2.86523 -5.02734 3.40625c-16.6533 2.81152 -32.8203 4.2168 -48.5 4.2168c-7.56934 0 -13.7334 -0.431641 -18.4912 -1.29688c-4.65039 -0.756836 -8.27344 -2.2168 -10.8691 -4.37988c-2.48633 -2.05469 -4.2168 -4.9209 -5.19043 -8.59668
c-0.864258 -3.78516 -1.29688 -8.59766 -1.29688 -14.4365v-1.13574l0.324219 -30.0078l-37.3076 6.16309c-4.32617 0.756836 -7.2998 1.13574 -8.92188 1.13574c-1.51367 0 -3.40625 -1.18945 -5.67676 -3.56836c-2.16309 -2.48828 -3.24512 -4.16406 -3.24512 -5.0293
c0 -0.972656 0.595703 -1.45898 1.78516 -1.45898h0.324219c0.541016 0.107422 1.13574 0.162109 1.78418 0.162109h1.45996c2.27148 0 5.02832 -0.271484 8.27246 -0.811523l41.6875 -6.65039l0.486328 -49.96c0 -3.13477 -0.756836 -5.94727 -2.27051 -8.43457
c-0.324219 -0.541016 -0.486328 -0.918945 -0.486328 -1.13574c0 -0.864258 0.702148 -1.29688 2.1084 -1.29688c1.40527 0 3.18945 0.378906 5.35254 1.13477c4.32617 1.29785 6.48828 2.91992 6.48828 4.86719l-0.486328 53.041l55.7988 -8.92188
c3.67676 -0.540039 6.65137 -1.40527 8.9209 -2.59473c2.37891 -1.18945 4.00098 -1.78418 4.86719 -1.78418c0.865234 0 2.1084 0.432617 3.73047 1.29785c1.72949 0.756836 3.24414 1.78418 4.54199 3.08105c1.4043 1.18945 2.10938 2.37891 2.10938 3.56934
c0 1.51367 -1.35352 2.4873 -4.05664 2.91992z" />
</svg>
