<?xml version="1.0" standalone="no"?>
<!DOCTYPE svg PUBLIC "-//W3C//DTD SVG 1.1//EN" "http://www.w3.org/Graphics/SVG/1.1/DTD/svg11.dtd" >
<svg xmlns="http://www.w3.org/2000/svg" xmlns:xlink="http://www.w3.org/1999/xlink" version="1.1" viewBox="-10 0 1009 1000">
   <path fill="currentColor"
d="M537.065 189.334l119.993 -6.10645c2.64062 -0.220703 4.5127 -0.550781 5.6123 -0.991211c1.10059 -0.439453 1.98047 -0.660156 2.64062 -0.660156c0.661133 0 1.76074 0.495117 3.30176 1.48535c1.54102 0.880859 2.91504 2.03613 4.12598 3.4668
c1.32031 1.32031 1.98047 2.53027 1.98047 3.63086c0 1.76074 -1.26465 2.75 -3.7959 2.97168l-127.586 6.60156c-0.879883 0.109375 -1.70605 0.165039 -2.47559 0.165039h-1.98145c-2.2002 0 -3.85059 -0.385742 -4.95117 -1.15527
c-1.87109 -1.54102 -3.24512 -3.41113 -4.12598 -5.61133c-0.770508 -2.20117 -1.15527 -3.57715 -1.15527 -4.12695c0 -0.550781 0.165039 -0.825195 0.495117 -0.825195c0.44043 0 1.32031 0.219727 2.64062 0.660156c1.32031 0.330078 3.08105 0.495117 5.28223 0.495117
h-0.000976562v0z" />
</svg>
