<?xml version="1.0" standalone="no"?>
<!DOCTYPE svg PUBLIC "-//W3C//DTD SVG 1.1//EN" "http://www.w3.org/Graphics/SVG/1.1/DTD/svg11.dtd" >
<svg xmlns="http://www.w3.org/2000/svg" xmlns:xlink="http://www.w3.org/1999/xlink" version="1.1" viewBox="-10 0 1009 1000">
   <path fill="currentColor"
d="M656.36 234.399c3.89746 4.38379 5.8457 7.30664 5.8457 8.76855s-0.608398 2.31445 -1.82617 2.55762c-1.21777 0.121094 -2.67969 0.244141 -4.38477 0.365234l-117.828 3.28809l0.547852 11.3271v0.546875c0 2.80176 -1.15723 4.20215 -3.4707 4.20215
c-1.70508 0 -3.77539 -0.669922 -6.21094 -2.00977c-2.31445 -1.21777 -3.4707 -2.9834 -3.4707 -5.29785c0 -0.852539 0.181641 -2.13086 0.547852 -3.83594c0.365234 -1.70508 0.547852 -4.14062 0.547852 -7.30762l-5.48047 -93.8965
c-0.243164 -3.89746 -0.913086 -7.00293 -2.00977 -9.31641c-0.973633 -2.31543 -1.46094 -3.6543 -1.46094 -4.01953c0 -0.852539 0.852539 -1.27832 2.55762 -1.27832c1.7041 0 6.02832 1.2168 12.9697 3.65234l118.742 -6.94141h2.00977
c2.67871 0 4.87109 0.791016 6.57617 2.375c1.82715 1.46094 2.74023 2.80078 2.74023 4.01953c0 1.2168 -0.183594 2.06934 -0.547852 2.55664c-0.244141 0.487305 -0.426758 1.03516 -0.548828 1.64453zM649.967 146.165l-41.1025 2.19238l-0.366211 37.2666
c0 3.53223 0.609375 5.66309 1.82812 6.39355c1.2168 0.730469 4.26172 1.09668 9.13281 1.09668c4.99414 0 9.98633 -0.914062 14.9805 -2.74121c0.730469 -0.243164 1.33887 -0.364258 1.82617 -0.364258c0.609375 0 1.64453 0.486328 3.10547 1.46094
c4.14062 2.43555 6.21191 4.62793 6.21191 6.57617c0 1.82715 -1.58301 3.04492 -4.75 3.6543c-7.42871 1.46094 -14.249 2.19238 -20.46 2.19238c-6.08984 0 -10.7168 -0.244141 -13.8838 -0.731445c-3.16602 -0.487305 -5.66309 -1.94824 -7.49023 -4.38477
c-1.70508 -2.55664 -2.55762 -6.69727 -2.55762 -12.4219v-0.730469l0.548828 -36.7188l-18.2686 1.0957c-0.365234 11.4482 -1.52246 21.374 -3.4707 29.7764c-1.94824 8.28223 -5.17578 15.6494 -9.68262 22.1055c-4.50488 6.33203 -10.8389 12.3613 -18.998 18.085
c-2.43555 1.70508 -4.2627 2.55762 -5.48047 2.55762s-1.82617 -0.609375 -1.82617 -1.82715c0 -1.33984 1.03516 -2.92188 3.10449 -4.75c9.0127 -8.64648 15.2236 -18.085 18.6338 -28.3145c3.53223 -10.3516 5.29785 -22.2871 5.29785 -35.8057v-1.2793l-33.2471 1.82812
l4.56641 86.4062l106.685 -3.65332z" />
</svg>
