<?xml version="1.0" standalone="no"?>
<!DOCTYPE svg PUBLIC "-//W3C//DTD SVG 1.1//EN" "http://www.w3.org/Graphics/SVG/1.1/DTD/svg11.dtd" >
<svg xmlns="http://www.w3.org/2000/svg" xmlns:xlink="http://www.w3.org/1999/xlink" version="1.1" viewBox="-10 0 1009 1000">
   <path fill="currentColor"
d="M604.144 207.88l0.165039 73.4482c0 2.9707 -0.990234 4.45703 -2.97168 4.45703c-1.31934 0 -2.85938 -0.550781 -4.62109 -1.65039c-3.63086 -2.09082 -5.44629 -3.96191 -5.44629 -5.6123v-1.65039c0 -0.330078 0.219727 -1.54102 0.660156 -3.63086
c0.44043 -2.09082 0.660156 -4.51172 0.660156 -7.2627v-57.4385l-50.1758 2.80566c-0.770508 0.110352 -1.54102 0.165039 -2.31055 0.165039h-1.98047c-2.42188 0 -4.18164 -0.384766 -5.28223 -1.15527c-1.87012 -1.65039 -3.19141 -3.57617 -3.96094 -5.77637
c-0.770508 -2.31152 -1.15625 -3.68652 -1.15625 -4.12695s0.330078 -0.65918 0.991211 -0.65918c0.219727 0 0.879883 0.21875 1.97949 0.65918c1.21094 0.330078 3.24707 0.496094 6.10742 0.496094h1.98145l53.8066 -2.9707v-48.3613
c0 -3.08105 -0.495117 -5.22656 -1.48535 -6.43652c-0.879883 -1.21094 -1.32031 -2.09082 -1.32031 -2.64062c0 -0.660156 0.71582 -0.991211 2.14551 -0.991211c1.54102 0 3.63086 0.331055 6.27246 0.991211c2.64062 0.65918 4.29102 1.37402 4.95117 2.14551
c0.660156 0.660156 0.990234 1.65039 0.990234 2.9707v51.6611l48.6904 -2.80566c2.53125 -0.110352 4.34668 -0.384766 5.44629 -0.825195c1.10059 -0.44043 2.09082 -0.660156 2.97168 -0.660156c0.879883 0 2.08984 0.549805 3.63086 1.65039
c1.54102 0.990234 2.86133 2.14551 3.96191 3.46582c1.20996 1.32129 1.81543 2.4209 1.81543 3.30176c0 1.75977 -1.43066 2.75 -4.29199 2.9707z" />
</svg>
