<?xml version="1.0" standalone="no"?>
<!DOCTYPE svg PUBLIC "-//W3C//DTD SVG 1.1//EN" "http://www.w3.org/Graphics/SVG/1.1/DTD/svg11.dtd" >
<svg xmlns="http://www.w3.org/2000/svg" xmlns:xlink="http://www.w3.org/1999/xlink" version="1.1" viewBox="-10 0 1009 1000">
   <path fill="currentColor"
d="M348.394 187.765c2.08984 0.522461 4.65137 0.78418 7.68262 0.78418h2.03809l40.4551 -2.35254c1.77734 -10.4531 2.66602 -22.2656 2.66602 -35.4365c0 -2.71777 -0.78418 -5.33105 -2.35254 -7.84082c-0.417969 -0.731445 -0.626953 -1.41016 -0.626953 -2.03711
c0 -0.62793 0.626953 -0.941406 1.88086 -0.941406c1.35938 0 3.18848 0.417969 5.48828 1.25391c2.30078 0.732422 4.07715 1.62012 5.33105 2.66602c1.25488 1.0459 1.88184 2.4043 1.88184 4.07617v0.47168c-0.417969 14.0068 -1.41113 26.3936 -2.97852 37.1611
l45.6279 -2.66602c2.19531 -0.208984 3.86719 -0.522461 5.01758 -0.94043c1.15039 -0.522461 2.03906 -0.78418 2.66602 -0.78418c0.731445 0 1.77734 0.470703 3.13574 1.41113c3.86719 2.50977 5.80176 4.75586 5.80176 6.74316
c0 1.77734 -1.41113 2.76953 -4.2334 2.97852l-53.626 2.97949c10.3486 20.6973 23.416 37.8926 39.2002 51.5869c8.1543 7.00391 16.9346 12.8057 26.3418 17.4043c1.88281 0.941406 2.82324 1.72461 2.82324 2.35254s-0.62793 1.56836 -1.88184 2.82227
c-3.24023 3.24023 -5.74902 4.86035 -7.52637 4.86035c-0.417969 0 -2.14258 -0.887695 -5.1748 -2.66504c-8.78027 -4.91406 -17.9268 -12.2305 -27.4395 -21.9521c-13.1709 -13.2754 -24.4082 -29.4775 -33.7119 -48.6074
c-4.18164 17.2471 -11.9688 32.0908 -23.3633 44.5303c-8.88477 9.5127 -18.7637 17.1436 -29.6348 22.8936c-4.39062 2.4043 -7.99707 4.12891 -10.8203 5.17383c-2.82129 1.0459 -4.44141 1.56836 -4.86035 1.56836c-1.25391 0 -1.88184 -0.416992 -1.88184 -1.25391
c0 -1.15039 1.15039 -2.40527 3.4502 -3.76367c18.9209 -11.2891 33.1377 -24.5127 42.6494 -39.6699c6.58594 -10.4541 11.3428 -21.8994 14.2686 -34.3398l-35.123 1.88184l-4.86133 0.15625c-3.97168 0 -6.79395 -2.19434 -8.4668 -6.58496
c-0.626953 -1.56738 -0.94043 -2.61328 -0.94043 -3.13574c0 -0.523438 0.366211 -0.78418 1.09766 -0.78418v0v0z" />
</svg>
