<?xml version="1.0" standalone="no"?>
<!DOCTYPE svg PUBLIC "-//W3C//DTD SVG 1.1//EN" "http://www.w3.org/Graphics/SVG/1.1/DTD/svg11.dtd" >
<svg xmlns="http://www.w3.org/2000/svg" xmlns:xlink="http://www.w3.org/1999/xlink" version="1.1" viewBox="-10 0 1009 1000">
   <path fill="currentColor"
d="M396.079 219.132c-13.1816 6.27246 -33.9717 16.0234 -41.2988 18.1787c-7.22852 2.12598 -11.4814 3.18848 -12.7568 3.18848c-1.27637 0 -1.91406 -0.37207 -1.91406 -1.11621c0 -1.27539 1.59473 -2.55078 4.78418 -3.82617
c22.0059 -9.14258 41.8848 -20.0391 59.6377 -32.6895c-7.12305 -6.69727 -12.8633 -11.6396 -17.2217 -14.8301c-1.59473 -1.27539 -2.39258 -2.44434 -2.39258 -3.50684c0 -1.16992 0.637695 -2.39258 1.91406 -3.66895
c1.27539 -1.27539 2.3916 -1.91309 3.34863 -1.91309c1.0625 0 3.56152 1.43555 7.49512 4.30566c4.03906 2.87012 9.24805 7.22852 15.626 13.0752c13.501 -10.5234 24.1318 -21.3662 31.8916 -32.5283l-45.4453 2.86914
c-11.7998 10.5254 -24.875 19.8789 -39.2266 28.0654c-2.12598 1.27539 -3.77344 1.91309 -4.94336 1.91309s-1.75391 -0.318359 -1.75391 -0.957031c0 -1.16895 1.3291 -2.76367 3.98633 -4.7832c21.5801 -15.627 38.0576 -32.3164 49.4316 -50.0703
c1.27637 -1.80664 2.07324 -4.19824 2.3916 -7.1748c0.213867 -1.16992 0.637695 -1.75391 1.27637 -1.75391c0.637695 0 1.70117 0.424805 3.18945 1.27539c4.46387 2.65723 6.69727 5.15527 6.69727 7.49414s-3.93359 7.76074 -11.8008 16.2646l41.9385 -2.87012
c2.12598 0 4.25195 0.850586 6.37793 2.55176s3.18945 3.24219 3.18945 4.62402s-0.425781 2.44531 -1.27637 3.18848c-0.744141 0.638672 -1.27539 1.22363 -1.59473 1.75391c-15.627 20.7305 -36.1436 38.377 -61.5508 52.9404l0.478516 0.15918z" />
</svg>
