<?xml version="1.0" standalone="no"?>
<!DOCTYPE svg PUBLIC "-//W3C//DTD SVG 1.1//EN" "http://www.w3.org/Graphics/SVG/1.1/DTD/svg11.dtd" >
<svg xmlns="http://www.w3.org/2000/svg" xmlns:xlink="http://www.w3.org/1999/xlink" version="1.1" viewBox="-10 0 1009 1000">
   <path fill="currentColor"
d="M638.79 373.48l-1.26074 7.87695c-0.838867 41.3799 -3.67676 171.923 -8.50684 207.633c-4.62109 35.498 -8.29688 58.1836 -11.0283 68.0566c-2.72949 9.87305 -5.6709 17.1201 -8.82129 21.7393c-3.15137 4.83203 -6.93262 7.24707 -11.3438 7.24707
c-7.35156 0 -23.21 -8.40039 -47.5752 -25.2051c-14.4941 -9.45215 -21.7412 -16.0693 -21.7412 -19.8516c0 -1.67969 1.15527 -2.51953 3.46484 -2.51953c2.52148 0 8.08789 2.10059 16.7002 6.30176c8.6123 4.20215 17.8535 7.98242 27.7266 11.3428
c9.87305 3.15137 15.334 4.72656 16.3838 4.72656s1.68066 -0.629883 1.89062 -1.89062c8.61133 -27.5176 14.8076 -158.586 18.5898 -209.211c1.88965 -22.8955 3.04492 -45.4756 3.46582 -67.7412l-203.638 8.50684c-11.3418 17.4346 -22.1602 31.9287 -32.4521 43.4805
c-10.293 11.3438 -19.0098 19.8506 -26.1514 25.5215c-6.93262 5.46191 -11.3438 8.19336 -13.2334 8.19336c-1.68066 0 -2.52051 -0.630859 -2.52051 -1.8916c0 -2.10059 2.83594 -6.40723 8.50684 -12.918c5.67188 -6.51172 14.2832 -17.96 25.8369 -34.3438
c11.7617 -16.3848 22.8945 -35.3936 33.3984 -57.0303c11.1328 -21.6338 16.6982 -35.918 16.6982 -42.8496l-0.629883 -5.67188c0 -2.31055 1.1543 -3.46484 3.46582 -3.46484c2.52051 0 6.72168 1.5752 12.6025 4.72559c5.88281 2.94043 8.82227 5.77637 8.82227 8.50684
c0 0.210938 -1.5752 4.30566 -4.72559 12.2881c-2.94141 7.98145 -9.03223 20.165 -18.2754 36.5488l197.649 -8.82129h3.46582c3.15137 0 6.09082 1.0498 8.82129 3.15137c2.94238 2.10059 4.41113 4.62012 4.41113 7.56055z" />
</svg>
