<?xml version="1.0" standalone="no"?>
<!DOCTYPE svg PUBLIC "-//W3C//DTD SVG 1.1//EN" "http://www.w3.org/Graphics/SVG/1.1/DTD/svg11.dtd" >
<svg xmlns="http://www.w3.org/2000/svg" xmlns:xlink="http://www.w3.org/1999/xlink" version="1.1" viewBox="-10 0 1009 1000">
   <path fill="currentColor"
d="M275.635 534.141l5.64062 0.332031c2.65234 0 7.29785 -0.552734 13.9316 -1.6582l31.8896 -10.6162l1.32715 -71.9873c-11.0586 4.20215 -8.54297 7.51953 -18.0527 9.95215c-9.28906 2.43262 -15.4814 3.64941 -18.5771 3.64941
c-2.875 0 -4.3125 -0.884766 -4.3125 -2.6543c0 -2.87598 3.98145 -5.9707 11.9424 -9.28906c38.9238 -15.9238 42.6279 -25.4473 62.3115 -41.3711c2.875 -1.99023 5.30762 -4.75488 7.29785 -8.29297c2.21191 -3.75977 4.20312 -5.63867 5.97266 -5.63867
c1.76855 0 4.75391 2.98438 8.95703 8.95605c4.2002 5.75 6.30273 9.84082 6.30273 12.2744s-1.21582 4.3125 -3.65039 5.63965c-20.5664 11.2793 -24.5752 13.1729 -37.625 18.4805l-1.32715 75.9697l16.5732 -6.20703c3.98047 -0.884766 7.74219 -2.32227 11.2793 -4.3125
c3.53711 -2.21094 5.9707 -3.31641 7.29785 -3.31641s3.53809 0.773438 6.63574 2.32129c8.84473 4.20215 13.2695 8.07227 13.2695 11.6113c0 2.65332 -2.43457 4.42285 -7.29883 5.30762l-48.0879 13.5039l-1.32617 53.6865v1.99121
c0 7.96094 0.994141 13.9326 2.98438 17.9141c1.99121 3.98047 5.41895 6.63379 10.2852 7.96094c5.08594 1.32812 12.8271 1.99023 23.2217 1.99023s211.957 -0.662109 217.484 -1.99023c5.75098 -1.54688 9.84082 -3.86914 12.2744 -6.96582
c2.43359 -3.31836 4.97656 -10.7266 7.62988 -22.2275c2.6543 -11.5 4.4248 -21.8945 5.30762 -31.1826c0.884766 -9.29004 2.54297 -13.9336 4.97656 -13.9336c4.86426 0 7.29883 12.8271 7.29883 38.4814c0 6.19336 -0.332031 13.7119 -0.996094 22.5586
c-0.663086 8.625 -3.09668 15.7031 -7.29785 21.2314s-10.9463 9.28906 -20.2363 11.2793c-9.28809 2.21094 -213.061 3.31738 -224.12 3.31738c-11.0576 0 -19.793 -0.332031 -26.207 -0.995117c-6.19238 -0.442383 -11.7217 -1.87988 -16.5869 -4.3125
c-11.0586 -5.75098 -16.5879 -18.4658 -16.5879 -38.1504v-2.32227l1.32715 -53.6855l-22.5986 8.95703c-6.63574 1.54688 -11.1689 2.32129 -13.6016 2.32129c-2.21191 0 -4.97559 -1.10547 -8.29395 -3.31738c-3.31738 -2.43262 -6.52441 -6.19238 -9.62012 -11.2793
c-0.443359 -0.442383 -0.664062 -1.21582 -0.664062 -2.32129c0 -1.10645 0.995117 -1.66016 2.98535 -1.66016h0.664062v0z" />
</svg>
