<?xml version="1.0" standalone="no"?>
<!DOCTYPE svg PUBLIC "-//W3C//DTD SVG 1.1//EN" "http://www.w3.org/Graphics/SVG/1.1/DTD/svg11.dtd" >
<svg xmlns="http://www.w3.org/2000/svg" xmlns:xlink="http://www.w3.org/1999/xlink" version="1.1" viewBox="-10 0 1009 1000">
   <path fill="currentColor"
d="M560.72 366.312l0.697266 -28.8047l-152.907 3.11035l-0.542969 28.3564l-11.8984 0.301758v-0.887695c0.592773 -4.14648 0.888672 -7.33105 0.888672 -9.55273v-4.44336c0 -0.740234 -0.104492 -1.4082 -0.222656 -1.99902l-1.87402 -9.42871
c-0.90918 -3.94238 -2.0791 -9.83594 -3.23535 -12.8711c-1.18555 -3.11035 -1.77734 -4.96094 -1.77734 -5.55371c0 -1.18457 0.888672 -1.77734 2.66602 -1.77734c1.92578 0 6.88672 1.33301 14.8848 3.99902l159.351 -3.99902l2.8877 -0.22168
c2.51855 0 4.51758 0.888672 5.99805 2.66602c1.62988 1.77637 2.44531 3.33203 2.44531 4.66406c0 1.33301 -0.148438 2.44531 -0.445312 3.33301c-0.148438 0.741211 -0.445312 2.22168 -0.445312 2.22168l-2.95312 30.8867s-12.9023 -0.410156 -13.5166 0v0z
M561.417 337.508l-0.697266 28.8047s0.819336 -28.877 0.697266 -28.8047zM456.156 394.966l-16.3838 1.11035c-10.1816 8.88574 -22.7705 17.125 -37.7666 24.7148c-5.36914 2.5918 -8.79297 3.8877 -10.2754 3.8877c-1.48047 0 -2.2207 -0.740234 -2.2207 -2.22168
c0 -1.48047 1.2959 -3.23926 3.8877 -5.27637c31.2871 -23.5107 51.625 -44.7432 55.2607 -57.7598v0l19.917 -0.807617c-0.24707 1.27344 -2.16895 9.61328 -2.69824 10.249c-3.70312 4.44238 -7.40625 8.70117 -11.1094 12.7744l164.672 -4.72168l2.22168 -0.277344
c2.59082 0 5.55371 0.833008 8.88574 2.49902c3.33301 1.48145 4.99902 3.8877 4.99902 7.2207c0 1.29492 -0.27832 2.49805 -0.833008 3.61035c-0.555664 1.11035 -0.925781 2.2207 -1.11133 3.33105c-2.77734 55.9092 -19.4043 234.888 -29.4004 248.771
c-3.70312 5.18359 -7.49805 7.77539 -11.3867 7.77539c-3.70215 0 -7.95996 -1.57227 -12.7734 -4.7207c-4.62793 -2.96094 -9.34863 -6.57129 -14.1631 -10.8301c-4.62695 -4.07227 -8.60742 -7.95898 -11.9395 -11.6631
c-3.14746 -3.70312 -4.72168 -6.1084 -4.72168 -7.2207c0 -1.29492 0.833008 -1.94336 2.5 -1.94336c1.85156 0 4.53516 0.925781 8.05273 2.77734c11.4785 6.48047 20.9199 10.6455 28.3252 12.4961c1.48145 0 3.33301 -2.77637 5.55371 -8.33105
c5.55371 -14.0703 19.8662 -186.475 22.459 -229.055z" />
</svg>
