<?xml version="1.0" standalone="no"?>
<!DOCTYPE svg PUBLIC "-//W3C//DTD SVG 1.1//EN" "http://www.w3.org/Graphics/SVG/1.1/DTD/svg11.dtd" >
<svg xmlns="http://www.w3.org/2000/svg" xmlns:xlink="http://www.w3.org/1999/xlink" version="1.1" viewBox="-10 0 1009 1000">
   <path fill="currentColor"
d="M581.145 552.048c4.77344 5.36914 7.1582 8.94824 7.1582 10.7373c0 1.79004 -0.746094 2.83301 -2.23633 3.13184c-1.49121 0.149414 -3.28125 0.297852 -5.36914 0.447266l-144.279 4.02637l0.670898 13.8691v0.670898c0 3.42969 -1.41699 5.14453 -4.25 5.14453
c-2.08789 0 -4.62305 -0.820312 -7.60547 -2.45996c-2.83301 -1.49121 -4.25 -3.6543 -4.25 -6.4873c0 -1.04395 0.223633 -2.60938 0.670898 -4.69727s0.670898 -5.07031 0.670898 -8.94824l-6.70996 -114.977c-0.298828 -4.77148 -1.11914 -8.57422 -2.46094 -11.4072
c-1.19336 -2.83398 -1.79004 -4.47461 -1.79004 -4.92188c0 -1.04395 1.04395 -1.56543 3.13184 -1.56543s7.38184 1.49121 15.8818 4.47363l145.398 -8.5h2.46094c3.28027 0 5.96484 0.96875 8.05273 2.9082c2.23633 1.78906 3.35547 3.42969 3.35547 4.9209
s-0.224609 2.53516 -0.671875 3.13184c-0.298828 0.595703 -0.522461 1.26758 -0.670898 2.0127zM573.315 444.006l-50.3301 2.68457l-0.447266 45.6328c0 4.32422 0.746094 6.93457 2.2373 7.8291s5.21973 1.3418 11.1846 1.3418
c6.11426 0 12.2285 -1.11816 18.3418 -3.35547c0.895508 -0.297852 1.64062 -0.447266 2.2373 -0.447266c0.746094 0 2.01367 0.59668 3.80273 1.79004c5.07031 2.98242 7.60547 5.66699 7.60547 8.05273c0 2.23633 -1.93848 3.72754 -5.81641 4.47363
c-9.09668 1.78906 -17.4473 2.68457 -25.0527 2.68457c-7.45605 0 -13.123 -0.298828 -17 -0.895508c-3.87793 -0.595703 -6.93457 -2.38574 -9.17188 -5.36816c-2.08789 -3.13184 -3.13184 -8.20215 -3.13184 -15.2109v-0.894531l0.670898 -44.9619l-22.3682 1.34277
c-0.447266 14.0176 -1.86426 26.1709 -4.25 36.4609c-2.38672 10.1406 -6.33789 19.1631 -11.8555 27.0664c-5.51758 7.75488 -13.2725 15.1357 -23.2637 22.1455c-2.9834 2.08789 -5.21973 3.13184 -6.71094 3.13184s-2.2373 -0.746094 -2.2373 -2.2373
c0 -1.64062 1.26758 -3.5791 3.80273 -5.81543c11.0361 -10.5889 18.6406 -22.1455 22.8164 -34.6729c4.3252 -12.6748 6.4873 -27.29 6.4873 -43.8428v-1.56543l-40.7119 2.23633l5.59277 105.806l130.635 -4.47363z" />
</svg>
