<?xml version="1.0" standalone="no"?>
<!DOCTYPE svg PUBLIC "-//W3C//DTD SVG 1.1//EN" "http://www.w3.org/Graphics/SVG/1.1/DTD/svg11.dtd" >
<svg xmlns="http://www.w3.org/2000/svg" xmlns:xlink="http://www.w3.org/1999/xlink" version="1.1" viewBox="-10 0 1009 1000">
   <path fill="currentColor"
d="M493.214 510.361l-0.397461 36.7451v2.38281c0 6.88574 0.794922 12.0498 2.38379 15.4932c1.58887 3.30957 4.7666 5.56055 9.53418 6.75293c4.89844 1.05957 12.3799 1.58887 22.4434 1.58887c10.1963 0 19.3984 -0.662109 27.6084 -1.98633
c8.34277 -1.32422 13.6387 -2.51562 15.8896 -3.5752c2.25195 -1.05957 3.77441 -1.58887 4.56836 -1.58887c0.794922 0 2.25195 0.595703 4.37012 1.78711c2.25098 1.19238 4.30273 2.64844 6.15723 4.37012c1.85352 1.58887 2.78027 2.97949 2.78027 4.1709
c0 2.11816 -2.05273 3.50879 -6.15723 4.1709c-20.3916 3.44336 -40.1875 5.16406 -59.3877 5.16406c-9.26855 0 -16.8164 -0.529297 -22.6426 -1.58887c-5.69336 -0.925781 -10.1299 -2.71387 -13.3076 -5.3623c-3.0459 -2.51562 -5.16406 -6.02539 -6.35547 -10.5273
c-1.05957 -4.63477 -1.58887 -10.5264 -1.58887 -17.6768v-1.39062l0.396484 -36.7451l-45.6826 7.54785c-5.29688 0.926758 -8.9375 1.39062 -10.9238 1.39062c-1.85449 0 -4.1709 -1.45703 -6.95215 -4.37012c-2.64844 -3.0459 -3.97266 -5.09766 -3.97266 -6.15723
c0 -1.19141 0.728516 -1.78711 2.18555 -1.78711h0.397461c0.662109 0.131836 1.38965 0.198242 2.18457 0.198242h1.78711c2.78125 0 6.15723 -0.331055 10.1299 -0.993164l51.0459 -8.14355l0.595703 -61.1748c0 -3.83984 -0.926758 -7.2832 -2.78125 -10.3281
c-0.396484 -0.662109 -0.595703 -1.12598 -0.595703 -1.39062c0 -1.05957 0.861328 -1.58887 2.58203 -1.58887c1.72168 0 3.90625 0.462891 6.55469 1.38965c5.29688 1.58984 7.94531 3.5752 7.94531 5.95898l-0.59668 64.9492l68.3262 -10.9238
c4.50195 -0.662109 8.14355 -1.72168 10.9238 -3.17871c2.91309 -1.45605 4.89844 -2.18457 5.95898 -2.18457c1.05957 0 2.58203 0.529297 4.56836 1.58887c2.11719 0.926758 3.97168 2.18457 5.56055 3.77441c1.72168 1.45605 2.58301 2.91309 2.58301 4.36914
c0 1.85352 -1.65625 3.0459 -4.96582 3.5752z" />
</svg>
