<?xml version="1.0" standalone="no"?>
<!DOCTYPE svg PUBLIC "-//W3C//DTD SVG 1.1//EN" "http://www.w3.org/Graphics/SVG/1.1/DTD/svg11.dtd" >
<svg xmlns="http://www.w3.org/2000/svg" xmlns:xlink="http://www.w3.org/1999/xlink" version="1.1" viewBox="-10 0 1010 1000">
   <path fill="currentColor"
d="M897.305 234.793c0 -3.90625 -7.4873 -9.44043 -22.4609 -16.6016s-27.6689 -11.0674 -38.0859 -11.7188s-209.805 15.9297 -278.164 23.7422c-11.3916 1.30176 -21.9961 2.51367 -31.8154 3.63477c0.450195 -15.5098 0.963867 -25.627 1.54199 -27.0723
c2.60449 -6.51074 2.92969 -11.7188 0.976562 -15.625c-1.51562 -3.03125 -10.2861 -8.02344 -26.3115 -14.9766c-4.86035 0.486328 -9.74707 0.993164 -14.6602 1.51953c1.20801 12.4453 2.25488 34.0459 3.14062 60.1826
c-28.1836 3.21289 -45.8467 5.21582 -52.9893 6.00879c-11.7188 1.30176 -160.901 19.9062 -189.547 23.8125s-51.7578 6.18457 -69.3359 6.83594s-26.3672 2.27832 -26.3672 4.88281s5.85938 6.83594 17.5781 12.6953s20.5078 9.11426 26.3672 9.76562
s17.9033 -0.976562 36.1328 -4.88281s174.247 -24.4639 210.055 -29.6719c15.6494 -2.27637 31.9219 -4.42773 48.8145 -6.45605c1.96191 69.873 2.94336 159.467 2.94336 199.425c0 65.1045 0.976562 368.398 2.92969 389.883s4.88281 32.5518 8.78906 33.2031
s7.16113 -5.20801 9.76562 -17.5781s4.55762 -26.042 5.85938 -41.0156s1.95312 -311.758 1.95312 -370.352c0 -39.8965 0.603516 -137.263 1.81055 -197.396c11.1924 -1.17773 22.6328 -2.30664 34.3223 -3.38574c42.3174 -3.90625 234.544 -17.8828 256.68 -15.9297
s37.7607 3.58105 46.875 4.88281s16.9268 1.30176 23.4375 0s9.76562 -3.90625 9.76562 -7.8125zM594.727 166.738c2.60449 -8.46387 7.4873 -27.6689 14.6484 -57.6172s13.6719 -46.875 19.5312 -50.7812s8.78906 -7.4873 8.78906 -10.7422
s-7.16113 -9.76562 -21.4844 -19.5312s-23.1123 -14.6484 -26.3672 -14.6484s-6.83594 1.62793 -10.7422 4.88281s-14.6484 5.53418 -32.2266 6.83594s-36.1328 3.25488 -55.6641 5.85938c-17.0205 2.26953 -39.9736 4.53809 -68.8594 6.80762
c-14.2666 -5.73633 -23.8662 -7.67969 -28.7969 -5.83105c-5.20801 1.95312 -4.55762 8.1377 1.95312 18.5547s12.0439 27.9951 16.6016 52.7344s9.44043 46.2236 14.6484 64.4531s9.76562 27.3438 13.6719 27.3438c3.87012 0 5.82324 -4.1543 5.8584 -12.4629
c-1.94824 0.245117 -3.90137 0.493164 -5.8584 0.744141l-3.90625 -17.5781c2.76367 -0.394531 5.58691 -0.790039 8.4707 -1.18457c-1.13281 -11.0342 -3.00879 -26.3418 -5.62793 -45.9219c-2.83887 0.0800781 -5.73926 0.157227 -8.70215 0.231445v-15.625
c2.22168 -0.123047 4.40234 -0.255859 6.54199 -0.396484c-2.99902 -21.2275 -5.77246 -37.6172 -8.32129 -49.1709c14.6025 -0.895508 34.0752 -2.60156 58.4199 -5.12012c37.7607 -3.90625 62.8252 -6.18457 75.1953 -6.83594s20.1826 0.976562 23.4375 4.88281
s1.62793 27.0186 -4.88281 69.3359c-2.39551 15.5684 -3.90918 28.2725 -4.54199 38.1133c2.7793 -0.0185547 5.59473 -0.0273438 8.44824 -0.0273438v15.625c-2.8291 0.162109 -5.66797 0.331055 -8.5166 0.507812c0.586914 6.17188 2.12402 9.25781 4.61035 9.25781
c6.51074 0 11.0674 -4.23145 13.6719 -12.6953zM488.325 177.695c-13.8057 1.47949 -27.8184 3.1123 -42.0371 4.90039c0 -0.0771484 0.000976562 -0.154297 0.000976562 -0.232422c0 -3.44629 -0.431641 -9.375 -1.29492 -17.7861
c16.1348 -2.20898 34.1445 -4.41797 54.0293 -6.62793c21.4619 -2.38477 47.292 -3.67773 77.4893 -3.87891c-0.430664 6.69336 -0.453125 12.0615 -0.0683594 16.1055c-23.7871 1.47559 -48.2734 3.47461 -73.459 6c-4.62305 -2.00684 -9.84961 -4.17578 -15.6807 -6.50781
c0.352539 1.9375 0.692383 4.64453 1.02051 8.02734zM437.206 102.865c20.4336 -1.3457 37.1328 -3.49316 50.0986 -6.43945c14.3232 -3.25488 28.3203 -4.88281 41.9922 -4.88281s20.5078 2.60449 20.5078 7.8125s-6.83594 9.44043 -20.5078 12.6953
c-12.8945 3.06934 -42.8711 5.27148 -89.9307 6.60449c-0.288086 -2.15039 -0.583984 -4.35156 -0.889648 -6.60449c-0.427734 -3.15625 -0.851562 -6.21777 -1.27051 -9.18555z" />
</svg>
