<?xml version="1.0" standalone="no"?>
<!DOCTYPE svg PUBLIC "-//W3C//DTD SVG 1.1//EN" "http://www.w3.org/Graphics/SVG/1.1/DTD/svg11.dtd" >
<svg xmlns="http://www.w3.org/2000/svg" xmlns:xlink="http://www.w3.org/1999/xlink" version="1.1" viewBox="-10 0 1009 1000">
   <path fill="currentColor"
d="M540.309 183.216l-2.54297 -0.168945c-2.14648 -0.678711 -4.01172 -2.43066 -5.59375 -5.25586c-1.46875 -2.82422 -2.20312 -4.68945 -2.20312 -5.59375c0 -0.90332 0.451172 -1.35547 1.35547 -1.35547c0.56543 0 1.41211 0.168945 2.54297 0.508789
c1.12988 0.338867 3.16406 0.507812 6.10254 0.507812h2.03418l53.7354 -2.71191l-0.338867 -33.2246c0 -2.48633 -1.01758 -5.25488 -3.05176 -8.30664c-0.337891 -0.564453 -0.507812 -1.0166 -0.507812 -1.35645c0 -0.90332 0.62207 -1.35547 1.86426 -1.35547
c1.24316 0 2.93848 0.168945 5.08594 0.507812c6.10254 1.13086 9.15332 3.1084 9.15332 5.93359l-0.168945 37.124l48.8193 -2.71289c3.61621 -0.338867 5.93359 -0.677734 6.9502 -1.01758c1.0166 -0.451172 1.80762 -0.677734 2.37305 -0.677734
c0.566406 0 1.63867 0.452148 3.2207 1.35645c1.58301 0.904297 3.05078 2.09082 4.40723 3.55957c1.35645 1.35645 2.03418 2.65625 2.03418 3.89844c0 2.14746 -1.41211 3.33398 -4.2373 3.56055l-125.271 6.44141c-2.25977 0.225586 -4.18164 0.338867 -5.76367 0.338867
v0v0zM554.209 248.14c-5.19824 4.85938 -9.66211 8.64453 -13.3926 11.3574c-3.61523 2.71191 -5.93164 4.06836 -6.94922 4.06836c-1.0166 0 -1.52539 -0.56543 -1.52539 -1.69531s1.35645 -3.2207 4.06836 -6.27148c13.6738 -15.0303 25.3701 -31.0771 35.0889 -48.1426
c1.24316 -2.03418 1.86523 -4.2373 1.86523 -6.61035c0 -2.48633 0.507812 -3.72949 1.52539 -3.72949c1.0166 0 2.48535 0.677734 4.40723 2.03418c4.85938 3.61621 7.28906 6.89355 7.28906 9.83203c0 0.677734 -0.113281 1.12988 -0.338867 1.35645
c-9.49316 14.125 -20.1719 26.7256 -32.0381 37.8008v0v0zM669.647 248.648c1.0166 1.35645 1.52539 2.54199 1.52539 3.55957c0 0.904297 -0.451172 1.97754 -1.35547 3.2207c-2.14746 3.16406 -4.18066 4.74609 -6.10254 4.74609s-3.56055 -0.847656 -4.91602 -2.54297
c-14.6914 -19.6631 -28.252 -36.1055 -40.6836 -49.3281c-0.904297 -0.90332 -1.35547 -2.08984 -1.35547 -3.55957c0 -1.46875 0.847656 -2.76855 2.54297 -3.89844c1.80762 -1.12988 3.16406 -1.69531 4.06738 -1.69531c1.01758 0 2.93848 1.41309 5.76367 4.23828
c2.8252 2.71191 8.08008 8.19238 15.7646 16.4424c7.68555 8.13672 15.9346 17.7422 24.749 28.8174v0v0z" />
</svg>
