<?xml version="1.0" standalone="no"?>
<!DOCTYPE svg PUBLIC "-//W3C//DTD SVG 1.1//EN" "http://www.w3.org/Graphics/SVG/1.1/DTD/svg11.dtd" >
<svg xmlns="http://www.w3.org/2000/svg" xmlns:xlink="http://www.w3.org/1999/xlink" version="1.1" viewBox="-10 0 1010 1000">
   <path fill="currentColor"
d="M626.929 247.368c0 1.75781 -4.83398 9.08203 -14.502 21.9727s-18.75 22.998 -27.2461 30.3223s-16.2598 12.8906 -23.291 16.6992s-10.6934 5.27344 -10.9863 4.39453s5.56641 -7.32422 17.5781 -19.3359s20.9473 -22.5586 26.8066 -31.6406
s9.81445 -16.1133 11.8652 -21.0938s2.34375 -9.08203 0.878906 -12.3047s-0.878906 -4.83398 1.75781 -4.83398s5.12695 0.878906 7.4707 2.63672s4.54102 3.95508 6.5918 6.5918s3.07617 4.83398 3.07617 6.5918v0zM766.675 307.134
c0 1.75781 -5.56641 2.92969 -16.6992 3.51562s-18.8965 0.878906 -23.291 0.878906s-9.22852 -2.63672 -14.502 -7.91016s-17.1387 -21.5332 -35.5957 -48.7793s-30.3223 -43.7988 -35.5957 -49.6582s-9.81445 -9.52148 -13.623 -10.9863
s-5.71289 -2.92969 -5.71289 -4.39453s2.7832 -2.19727 8.34961 -2.19727s9.81445 1.17188 12.7441 3.51562s5.12695 5.12695 6.5918 8.34961s7.32422 11.2793 17.5781 24.1699s21.3867 25.7812 33.3984 38.6719s26.0742 23.1445 42.1875 30.7617
s24.1699 12.3047 24.1699 14.0625v0z" />
</svg>
