<?xml version="1.0" standalone="no"?>
<!DOCTYPE svg PUBLIC "-//W3C//DTD SVG 1.1//EN" "http://www.w3.org/Graphics/SVG/1.1/DTD/svg11.dtd" >
<svg xmlns="http://www.w3.org/2000/svg" xmlns:xlink="http://www.w3.org/1999/xlink" version="1.1" viewBox="-10 0 1010 1000">
   <path fill="currentColor"
d="M684.121 240c4.98047 2.05078 7.4707 3.80859 7.4707 5.27344s-1.17188 2.63672 -3.51562 3.51562s-5.41992 1.31836 -9.22852 1.31836s-8.49609 0.292969 -14.0625 0.878906s-14.209 1.75781 -25.9277 3.51562s-18.6035 2.63672 -20.6543 2.63672
s-5.41992 -0.732422 -10.1074 -2.19727s-7.17773 -2.63672 -7.4707 -3.51562s10.8398 -3.51562 33.3984 -7.91016s35.3027 -6.5918 38.2324 -6.5918s6.88477 1.02539 11.8652 3.07617v0zM654.678 185.508c14.0625 -3.80859 22.998 -5.71289 26.8066 -5.71289
s7.61719 0.439453 11.4258 1.31836s6.15234 2.05078 7.03125 3.51562s0.585938 2.92969 -0.878906 4.39453s-4.54102 2.63672 -9.22852 3.51562s-17.2852 3.07617 -37.793 6.5918s-33.3984 5.27344 -38.6719 5.27344s-9.52148 -1.31836 -12.7441 -3.95508
s-3.95508 -4.10156 -2.19727 -4.39453s8.05664 -1.17188 18.8965 -2.63672s23.291 -4.10156 37.3535 -7.91016v0zM668.301 308.994c-15.5273 0.585938 -29.5898 1.75781 -42.1875 3.51562s-25.0488 3.66211 -37.3535 5.71289s-19.3359 3.07617 -21.0938 3.07617
s-5.71289 -1.61133 -11.8652 -4.83398s-9.22852 -5.27344 -9.22852 -6.15234s2.7832 -1.31836 8.34961 -1.31836s20.3613 -1.46484 44.3848 -4.39453s48.7793 -5.85938 74.2676 -8.78906s39.4043 -4.39453 41.748 -4.39453s8.05664 1.75781 17.1387 5.27344
s13.623 6.88477 13.623 10.1074s-5.27344 4.24805 -15.8203 3.07617s-19.6289 -1.75781 -27.2461 -1.75781s-19.1895 0.292969 -34.7168 0.878906v0z" />
</svg>
