<?xml version="1.0" standalone="no"?>
<!DOCTYPE svg PUBLIC "-//W3C//DTD SVG 1.1//EN" "http://www.w3.org/Graphics/SVG/1.1/DTD/svg11.dtd" >
<svg xmlns="http://www.w3.org/2000/svg" xmlns:xlink="http://www.w3.org/1999/xlink" version="1.1" viewBox="-10 0 1010 1000">
   <path fill="currentColor"
d="M570.229 201.831c2.34375 -0.585938 7.91016 0.585938 16.6992 3.51562c2.34375 10.5469 4.83398 30.0293 7.4707 58.4473s3.36914 43.3594 2.19727 44.8242s-2.49023 2.05078 -3.95508 1.75781s-3.22266 -5.41992 -5.27344 -15.3809
s-3.66211 -19.4824 -4.83398 -28.5645s-2.63672 -19.3359 -4.39453 -30.7617s-4.10156 -19.7754 -7.03125 -25.0488s-3.22266 -8.20312 -0.878906 -8.78906v0zM614.175 270.825c-7.03125 6.15234 -10.9863 8.64258 -11.8652 7.4707s1.61133 -5.41992 7.4707 -12.7441
s10.2539 -15.9668 13.1836 -25.9277s3.80859 -21.3867 2.63672 -34.2773c9.375 5.27344 14.3555 8.93555 14.9414 10.9863s0.146484 5.71289 -1.31836 10.9863s-4.24805 12.3047 -8.34961 21.0938s-9.66797 16.2598 -16.6992 22.4121v0zM677.456 222.925
c-0.585938 4.10156 -0.732422 8.78906 -0.439453 14.0625s1.61133 8.64258 3.95508 10.1074s5.85938 1.75781 10.5469 0.878906s8.20312 -1.31836 10.5469 -1.31836s5.12695 0.878906 8.34961 2.63672s4.83398 3.36914 4.83398 4.83398s-2.63672 3.07617 -7.91016 4.83398
s-11.5723 2.49023 -18.8965 2.19727s-12.5977 -1.9043 -15.8203 -4.83398s-5.12695 -8.49609 -5.71289 -16.6992s-1.46484 -21.3867 -2.63672 -39.5508c9.375 6.44531 14.0625 10.8398 14.0625 13.1836s-0.292969 5.56641 -0.878906 9.66797v0zM685.806 284.448
c-8.49609 0 -24.1699 1.46484 -47.0215 4.39453s-38.0859 4.39453 -45.7031 4.39453v7.91016c7.61719 0 24.0234 -1.17188 49.2188 -3.51562s47.168 -3.51562 65.918 -3.51562c-6.44531 -6.44531 -13.916 -9.66797 -22.4121 -9.66797v0zM748.647 209.741
c-2.34375 1.75781 -4.39453 7.32422 -6.15234 16.6992s-4.6875 24.9023 -8.78906 46.582s-8.49609 35.5957 -13.1836 41.748s-8.49609 9.22852 -11.4258 9.22852c-2.93066 0 -3.95508 -2.49023 -3.07617 -7.4707s-2.49023 -14.209 -10.1074 -27.6855
c9.375 4.6875 14.9414 5.12695 16.6992 1.31836s4.39453 -16.2598 7.91016 -37.3535s5.41992 -34.2773 5.71289 -39.5508s-0.732422 -8.64258 -3.07617 -10.1074s-5.41992 -2.34375 -9.22852 -2.63672s-48.7793 3.95508 -134.912 12.7441v-8.78906
c9.375 0 28.8574 -1.46484 58.4473 -4.39453s49.8047 -5.41992 60.6445 -7.4707s17.1387 -3.66211 18.8965 -4.83398s3.80859 -1.31836 6.15234 -0.439453s7.61719 3.36914 15.8203 7.4707s12.4512 7.17773 12.7441 9.22852s-0.732422 3.95508 -3.07617 5.71289v0z" />
</svg>
