<?xml version="1.0" standalone="no"?>
<!DOCTYPE svg PUBLIC "-//W3C//DTD SVG 1.1//EN" "http://www.w3.org/Graphics/SVG/1.1/DTD/svg11.dtd" >
<svg xmlns="http://www.w3.org/2000/svg" xmlns:xlink="http://www.w3.org/1999/xlink" version="1.1" viewBox="-10 0 1010 1000">
   <path fill="currentColor"
d="M654.839 22.2188c-1.17188 2.34375 -1.75781 13.4766 -1.75781 33.3984s-0.146484 43.3594 -0.439453 70.3125s-1.02539 46.7285 -2.19727 59.3262s-2.63672 18.8965 -4.39453 18.8965s-3.66211 -5.85938 -5.71289 -17.5781s-2.7832 -42.7734 -2.19727 -93.1641
s-0.292969 -76.6113 -2.63672 -78.6621s-3.22266 -3.95508 -2.63672 -5.71289s4.10156 -1.75781 10.5469 0s10.2539 3.80859 11.4258 6.15234s1.17188 4.6875 0 7.03125v0v0v0zM567.827 99.5615c-2.34375 0 -5.56641 -1.02539 -9.66797 -3.07617
s-6.88477 -3.95508 -8.34961 -5.71289s0.146484 -2.63672 4.83398 -2.63672s9.81445 -0.439453 15.3809 -1.31836s16.5527 -2.49023 32.959 -4.83398s38.2324 -5.85938 65.4785 -10.5469s43.2129 -6.5918 47.9004 -5.71289s9.08203 2.63672 13.1836 5.27344
s6.73828 5.12695 7.91016 7.4707s1.02539 3.66211 -0.439453 3.95508s-9.22852 0.146484 -23.291 -0.439453s-24.3164 -0.732422 -30.7617 -0.439453s-16.8457 1.31836 -31.2012 3.07617s-31.3477 4.6875 -50.9766 8.78906s-30.6152 6.15234 -32.959 6.15234v0v0v0z" />
</svg>
