<?xml version="1.0" standalone="no"?>
<!DOCTYPE svg PUBLIC "-//W3C//DTD SVG 1.1//EN" "http://www.w3.org/Graphics/SVG/1.1/DTD/svg11.dtd" >
<svg xmlns="http://www.w3.org/2000/svg" xmlns:xlink="http://www.w3.org/1999/xlink" version="1.1" viewBox="-10 0 1009 1000">
   <path fill="currentColor"
d="M668.947 261.138c1.2334 0.719727 1.85059 1.33691 1.85059 1.85059c0 0.514648 -0.56543 1.3877 -1.69629 2.62207c-3.1875 3.49512 -5.55273 5.24316 -7.09473 5.24316c-0.514648 0 -2.26074 -1.13086 -5.24316 -3.39258
c-2.98242 -2.2627 -6.73438 -5.75781 -11.2588 -10.4873c-4.4209 -4.83301 -9.20312 -11.0527 -14.3438 -18.6621c-12.3379 -17.8906 -22.0029 -39.1738 -28.9951 -63.8516c-2.36523 -8.63574 -4.1123 -13.5713 -5.24414 -14.8057
c-1.02734 -1.33594 -2.3125 -2.51855 -3.85547 -3.54688c-1.54199 -1.02832 -2.3125 -1.9541 -2.3125 -2.77637c0 -0.823242 1.59277 -1.2334 4.78027 -1.2334c3.29004 0 5.75781 0.256836 7.40332 0.770508c1.74805 0.514648 2.92969 1.23438 3.54688 2.15918
c0.719727 0.925781 1.28613 2.15918 1.69629 3.70117c0.412109 1.43945 0.925781 3.34277 1.54199 5.70703c0.720703 2.36523 1.7998 6.01465 3.23926 10.9502c1.43945 4.83301 3.80469 11.3105 7.09473 19.4326c3.29102 8.12305 7.30078 16.2461 12.0293 24.3691
c10.3857 18.0957 22.6719 32.0791 36.8613 41.9502v0v0zM564.534 200.371c1.74805 -6.06641 2.93066 -11.002 3.54688 -14.8057c0.617188 -3.80469 0.925781 -5.96387 0.925781 -6.47754c0 -0.617188 -0.206055 -2.16016 -0.617188 -4.62793
c0 -1.2334 0.513672 -1.85059 1.54297 -1.85059c1.02734 0 2.36426 0.411133 4.00879 1.23438c1.74902 0.71875 3.29102 1.69629 4.62793 2.92969c1.43945 1.23438 2.1582 2.36523 2.1582 3.39355c0 0.925781 -0.102539 1.79883 -0.307617 2.62207
c-3.90723 18.0967 -9.81934 34.4961 -17.7373 49.1992c-7.81348 14.7031 -18.4551 26.7842 -31.9248 36.2441c-2.05664 1.43848 -3.59961 2.1582 -4.62695 2.1582c-0.924805 0 -1.3877 -0.307617 -1.3877 -0.924805c0 -1.2334 1.02832 -2.87891 3.08398 -4.93555
c17.2734 -16.7588 29.5098 -38.1455 36.707 -64.1592v0v0z" />
</svg>
