<?xml version="1.0" standalone="no"?>
<!DOCTYPE svg PUBLIC "-//W3C//DTD SVG 1.1//EN" "http://www.w3.org/Graphics/SVG/1.1/DTD/svg11.dtd" >
<svg xmlns="http://www.w3.org/2000/svg" xmlns:xlink="http://www.w3.org/1999/xlink" version="1.1" viewBox="-10 0 1009 1000">
   <path fill="currentColor"
d="M584.744 214.23l0.15625 69.6016c0 2.81543 -0.938477 4.22266 -2.81543 4.22266c-1.25195 0 -2.70996 -0.521484 -4.37988 -1.56348c-3.43945 -1.98047 -5.16113 -3.75391 -5.16113 -5.31836v-1.56348c0 -0.3125 0.208984 -1.46094 0.625977 -3.44141
c0.416992 -1.97949 0.625 -4.27539 0.625 -6.88184v-54.4297l-47.5479 2.6582c-0.729492 0.104492 -1.45996 0.15625 -2.18945 0.15625h-1.87695c-2.29395 0 -3.96191 -0.364258 -5.00488 -1.09375c-1.77246 -1.56543 -3.02344 -3.38965 -3.75391 -5.47559
c-0.729492 -2.18848 -1.09473 -3.49316 -1.09473 -3.91016c0 -0.416016 0.3125 -0.625 0.938477 -0.625c0.208008 0 0.834961 0.208984 1.87598 0.625c1.14746 0.313477 3.07715 0.469727 5.78809 0.469727h1.87695l50.9883 -2.81445v-45.8281
c0 -2.91992 -0.46875 -4.95312 -1.40723 -6.09961c-0.833984 -1.14844 -1.25195 -1.98242 -1.25195 -2.50391c0 -0.625 0.678711 -0.9375 2.03418 -0.9375c1.45996 0 3.44043 0.3125 5.94336 0.9375c2.50293 0.625977 4.06641 1.30371 4.69238 2.03418
c0.625 0.625 0.938477 1.56348 0.938477 2.81445v48.957l46.1406 -2.65918c2.39844 -0.104492 4.11914 -0.365234 5.16113 -0.782227c1.04297 -0.416992 1.98145 -0.625977 2.81641 -0.625977c0.833984 0 1.98047 0.521484 3.44043 1.56543
c1.45996 0.9375 2.71094 2.03223 3.75391 3.2832c1.14648 1.25098 1.7207 2.29395 1.7207 3.12891c0 1.66797 -1.35547 2.60645 -4.06738 2.81445zM615.363 251.274l56.8555 -2.89355c1.25098 -0.104492 2.13672 -0.259766 2.6582 -0.469727
c0.521484 -0.208008 0.938477 -0.3125 1.25195 -0.3125c0.3125 0 0.833984 0.235352 1.56348 0.704102c0.730469 0.416992 1.38184 0.963867 1.95508 1.6416c0.625977 0.625977 0.938477 1.2002 0.938477 1.7207c0 0.834961 -0.599609 1.30371 -1.79883 1.4082
l-60.4521 3.12793c-0.416016 0.0517578 -0.807617 0.0791016 -1.17285 0.0791016h-0.9375c-1.04395 0 -1.8252 -0.183594 -2.34668 -0.548828c-0.886719 -0.729492 -1.53809 -1.61523 -1.95508 -2.6582c-0.365234 -1.04199 -0.547852 -1.69434 -0.547852 -1.95508
s0.078125 -0.390625 0.234375 -0.390625c0.208984 0 0.625977 0.103516 1.25195 0.3125c0.625977 0.155273 1.45996 0.234375 2.50195 0.234375v0v0z" />
</svg>
