<?xml version="1.0" standalone="no"?>
<!DOCTYPE svg PUBLIC "-//W3C//DTD SVG 1.1//EN" "http://www.w3.org/Graphics/SVG/1.1/DTD/svg11.dtd" >
<svg xmlns="http://www.w3.org/2000/svg" xmlns:xlink="http://www.w3.org/1999/xlink" version="1.1" viewBox="-10 0 1010 1000">
   <path fill="currentColor"
d="M690.815 126.812c4.10156 0 8.49609 1.17188 13.1836 3.51562s7.03125 4.24805 7.03125 5.71289s-4.6875 3.07617 -14.0625 4.83398s-23.877 3.80859 -43.5059 6.15234s-30.1758 3.51562 -31.6406 3.51562s-4.54102 -0.878906 -9.22852 -2.63672
s-7.4707 -3.36914 -8.34961 -4.83398s1.75781 -2.19727 7.91016 -2.19727s11.2793 -0.439453 15.3809 -1.31836s14.6484 -3.22266 31.6406 -7.03125s27.5391 -5.71289 31.6406 -5.71289v0v0zM621.382 270.073v0h-10.5469c1.75781 -4.6875 5.71289 -17.2852 11.8652 -37.793
s10.5469 -36.6211 13.1836 -48.3398s3.95508 -26.0742 3.95508 -43.0664c8.78906 6.44531 13.7695 10.5469 14.9414 12.3047s0.732422 6.73828 -1.31836 14.9414s-12.7441 42.1875 -32.0801 101.953v0zM677.632 268.315c3.51562 -11.7188 7.17773 -24.3164 10.9863 -37.793
c3.80859 -13.4775 7.17773 -21.6797 10.1074 -24.6094c2.92969 -2.93066 4.39453 -4.98047 4.39453 -6.15234s-3.07617 -3.36914 -9.22852 -6.5918c-6.15234 -3.22363 -10.1074 -4.83398 -11.8652 -4.83398s-3.22266 0.732422 -4.39453 2.19727
s-7.32422 3.36914 -18.457 5.71289s-21.3867 4.39453 -30.7617 6.15234s-18.0176 2.92969 -25.9277 3.51562c-7.91016 0.584961 -11.8652 1.31836 -11.8652 2.19727s1.61133 2.34375 4.83398 4.39453s6.88477 3.07617 10.9863 3.07617s11.8652 -1.46484 23.291 -4.39453
s21.3867 -5.12695 29.8828 -6.5918c8.49609 -1.46582 13.623 -2.19824 15.3809 -2.19824s2.92969 0.439453 3.51562 1.31836s-3.51562 22.4111 -12.3047 64.5986h11.4258v0.000976562v0.000976562zM749.263 269.634c2.05078 3.22266 2.63672 4.83398 1.75781 4.83398
s-7.4707 -0.292969 -19.7754 -0.878906s-27.832 -0.878906 -46.582 -0.878906s-35.3027 0.732422 -49.6582 2.19727s-29.5898 3.80859 -45.7031 7.03125s-25.7812 4.39453 -29.0039 3.51562s-6.00586 -2.49023 -8.34961 -4.83398s-3.51562 -4.39453 -3.51562 -6.15234
c15.8203 -1.17188 39.2578 -3.36914 70.3125 -6.5918s55.8105 -5.85938 74.2676 -7.91016s29.4434 -3.07617 32.959 -3.07617s7.76367 1.31836 12.7441 3.95508s8.49609 5.56641 10.5469 8.78906v0v0z" />
</svg>
