<?xml version="1.0" standalone="no"?>
<!DOCTYPE svg PUBLIC "-//W3C//DTD SVG 1.1//EN" "http://www.w3.org/Graphics/SVG/1.1/DTD/svg11.dtd" >
<svg xmlns="http://www.w3.org/2000/svg" xmlns:xlink="http://www.w3.org/1999/xlink" version="1.1" viewBox="-10 0 1010 1000">
   <path fill="currentColor"
d="M655.312 124.219c-1.17188 2.34375 -1.75781 13.4766 -1.75781 33.3984s-0.147461 43.3594 -0.439453 70.3125c-0.292969 26.9531 -1.02637 46.7285 -2.19727 59.3262c-1.17188 12.5977 -2.63672 18.8965 -4.39453 18.8965s-3.66309 -5.85938 -5.71289 -17.5781
c-2.05078 -11.7188 -2.78418 -42.7734 -2.19727 -93.1641c0.585938 -50.3906 -0.292969 -76.6113 -2.63672 -78.6621c-2.34473 -2.05078 -3.22363 -3.95508 -2.63672 -5.71289c0.585938 -1.75781 4.10156 -1.75781 10.5488 0
c6.44434 1.75781 10.2539 3.80859 11.4258 6.15234c1.1709 2.34375 1.1709 4.6875 0 7.03125h-0.000976562h-0.000976562zM568.3 201.562c-2.34473 0 -5.56641 -1.02539 -9.66797 -3.07617c-4.10254 -2.05078 -6.88477 -3.95508 -8.34961 -5.71289
c-1.46582 -1.75781 0.146484 -2.63672 4.83398 -2.63672c4.68652 0 9.81445 -0.439453 15.3809 -1.31836c5.56543 -0.878906 16.5518 -2.49023 32.959 -4.83398c16.4062 -2.34375 38.2324 -5.85938 65.4785 -10.5469s43.2129 -6.5918 47.9004 -5.71289
c4.68652 0.878906 9.08105 2.63672 13.1836 5.27344c4.10156 2.63672 6.73828 5.12695 7.91016 7.4707c1.1709 2.34375 1.02539 3.66211 -0.439453 3.95508c-1.46582 0.292969 -9.22852 0.146484 -23.291 -0.439453s-24.3174 -0.732422 -30.7617 -0.439453
c-6.44531 0.292969 -16.8467 1.31836 -31.2012 3.07617c-14.3555 1.75781 -31.3486 4.6875 -50.9766 8.78906c-19.6289 4.10156 -30.6152 6.15234 -32.959 6.15234v0v0zM749.815 245.376c0.439453 0.966797 0.351562 1.49414 -0.263672 1.58301
c-0.615234 0.0869141 -2.54883 0 -5.80078 -0.264648c-3.25195 -0.263672 -5.93262 -0.394531 -8.04199 -0.394531s-6.32812 0.262695 -12.6562 0.790039c-6.32812 0.52832 -11.1621 1.01074 -14.502 1.4502s-6.24023 0.791016 -8.70117 1.05566
c-2.46094 0.262695 -4.04297 0.394531 -4.74609 0.394531s-1.80176 -0.483398 -3.2959 -1.4502s-2.24121 -1.58105 -2.24121 -1.8457c0 -0.263672 3.16406 -0.614258 9.49219 -1.05371s11.9531 -0.923828 16.875 -1.45117
c4.92188 -0.526367 10.0635 -1.18555 15.4248 -1.97754c5.36133 -0.791016 8.74512 -1.18555 10.1514 -1.18555s3.03223 0.482422 4.87793 1.44922c1.8457 0.967773 2.98828 1.93359 3.42773 2.90039v0v0v0z" />
</svg>
