<?xml version="1.0" standalone="no"?>
<!DOCTYPE svg PUBLIC "-//W3C//DTD SVG 1.1//EN" "http://www.w3.org/Graphics/SVG/1.1/DTD/svg11.dtd" >
<svg xmlns="http://www.w3.org/2000/svg" xmlns:xlink="http://www.w3.org/1999/xlink" version="1.1" viewBox="-10 0 1010 1000">
   <path fill="currentColor"
d="M689.014 188.288c-7.91016 -2.34375 -13.916 -6.29883 -18.0176 -11.8652s-6.44531 -12.3047 -7.03125 -20.2148s-0.439453 -14.9414 0.439453 -21.0938s2.92969 -17.4316 6.15234 -33.8379s4.39453 -24.9023 3.51562 -25.4883s-8.34961 1.46484 -22.4121 6.15234
s-28.8574 9.66797 -44.3848 14.9414s-24.1699 7.91016 -25.9277 7.91016s-4.54102 -1.46484 -8.34961 -4.39453s-5.71289 -5.27344 -5.71289 -7.03125c7.61719 0 22.4121 -2.92969 44.3848 -8.78906s37.6465 -10.4004 47.0215 -13.623s15.0879 -6.00586 17.1387 -8.34961
s4.10156 -3.51562 6.15234 -3.51562s5.27344 1.75781 9.66797 5.27344s6.5918 6.00586 6.5918 7.4707s-1.31836 2.92969 -3.95508 4.39453s-5.27344 5.71289 -7.91016 12.7441s-5.12695 15.6738 -7.4707 25.9277s-3.80859 19.3359 -4.39453 27.2461
s-0.292969 14.0625 0.878906 18.457s3.80859 7.91016 7.91016 10.5469s9.66797 4.39453 16.6992 5.27344s14.6484 0.585938 22.8516 -0.878906s13.916 -3.95508 17.1387 -7.4707s5.71289 -10.6934 7.4707 -21.5332s3.51562 -16.1133 5.27344 -15.8203
s2.92969 5.71289 3.51562 16.2598s2.34375 18.457 5.27344 23.7305s-1.31836 9.96094 -12.7441 14.0625c-11.4248 4.10156 -22.2637 6.29883 -32.5186 6.5918c-10.2539 0.292969 -19.3359 -0.732422 -27.2461 -3.07617h-0.000976562v0v0zM602.441 157.526
c-10.5469 11.7188 -21.0938 20.2148 -31.6406 25.4883s-16.1133 7.61719 -16.6992 7.03125s3.80859 -4.24805 13.1836 -10.9863s18.8965 -16.4062 28.5645 -29.0039s17.7246 -27.5391 24.1699 -44.8242s10.5469 -31.4941 12.3047 -42.627s2.7832 -20.5078 3.07617 -28.125
s-0.585938 -12.1582 -2.63672 -13.623s-2.34375 -2.7832 -0.878906 -3.95508s4.10156 -1.17188 7.91016 0s7.03125 2.49023 9.66797 3.95508s4.10156 2.7832 4.39453 3.95508s-0.146484 4.6875 -1.31836 10.5469l-6.15234 30.7617l-16.2598 47.9004z" />
</svg>
