<?xml version="1.0" standalone="no"?>
<!DOCTYPE svg PUBLIC "-//W3C//DTD SVG 1.1//EN" "http://www.w3.org/Graphics/SVG/1.1/DTD/svg11.dtd" >
<svg xmlns="http://www.w3.org/2000/svg" xmlns:xlink="http://www.w3.org/1999/xlink" version="1.1" viewBox="-10 0 1010 1000">
   <path fill="currentColor"
d="M722.739 180.259c3.51562 0 7.4707 1.17188 11.8652 3.51562s6.5918 4.39453 6.5918 6.15234s-5.85938 3.51562 -17.5781 5.27344s-29.5898 6.29883 -53.6133 13.623s-45.2637 14.7949 -63.7207 22.4121s-29.5898 11.4258 -33.3984 11.4258
s-8.34961 -0.585938 -13.623 -1.75781s-8.05664 -2.34375 -8.34961 -3.51562s3.07617 -2.34375 10.1074 -3.51562s32.0801 -9.08203 75.1465 -23.7305s67.3828 -23.291 72.9492 -25.9277s10.1074 -3.95508 13.623 -3.95508v0v0zM657.7 280.894
c-6.44531 -2.63672 -11.5723 -6.73828 -15.3809 -12.3047s-6.29883 -12.4512 -7.4707 -20.6543s-1.75781 -29.4434 -1.75781 -63.7207s-1.31836 -52.4414 -3.95508 -54.4922s-3.66211 -3.95508 -3.07617 -5.71289s3.95508 -1.75781 10.1074 0
s9.81445 3.66211 10.9863 5.71289s1.02539 4.83398 -0.439453 8.34961s-2.19727 17.2852 -2.19727 41.3086s0.146484 39.5508 0.439453 46.582s1.17188 14.0625 2.63672 21.0938c1.46484 7.03223 3.80859 11.8652 7.03125 14.5029
c3.22266 2.63672 8.05664 4.83398 14.502 6.5918s13.623 2.34375 21.5332 1.75781s14.6484 -1.9043 20.2148 -3.95508s9.81445 -8.34961 12.7441 -18.8975c2.92969 -10.5469 4.83398 -15.8193 5.71289 -15.8193s1.9043 5.12598 3.07617 15.3809
c1.17188 10.2539 2.7832 16.9922 4.83398 20.2139c2.05078 3.22363 1.31836 5.86035 -2.19727 7.91113c-3.51562 2.0498 -9.52148 4.39355 -18.0176 7.03125c-8.49609 2.63672 -18.8965 3.80762 -31.2012 3.51465s-21.6797 -1.75781 -28.125 -4.39453v0v0z" />
</svg>
