<?xml version="1.0" standalone="no"?>
<!DOCTYPE svg PUBLIC "-//W3C//DTD SVG 1.1//EN" "http://www.w3.org/Graphics/SVG/1.1/DTD/svg11.dtd" >
<svg xmlns="http://www.w3.org/2000/svg" xmlns:xlink="http://www.w3.org/1999/xlink" version="1.1" viewBox="-10 0 1009 1000">
   <path fill="currentColor"
d="M584.135 214.22l0.157227 69.7764c0 2.82227 -0.94043 4.2334 -2.82227 4.2334c-1.25488 0 -2.71777 -0.523438 -4.39062 -1.56738c-3.44922 -1.98633 -5.17383 -3.76367 -5.17383 -5.33105v-1.56836c0 -0.313477 0.208984 -1.46387 0.626953 -3.44922
c0.417969 -1.98633 0.626953 -4.28711 0.626953 -6.90039v-54.5664l-47.667 2.66602c-0.731445 0.104492 -1.46289 0.15625 -2.19531 0.15625h-1.88184c-2.2998 0 -3.97168 -0.366211 -5.0166 -1.09766c-1.77734 -1.56738 -3.03223 -3.39746 -3.76367 -5.4873
c-0.732422 -2.19629 -1.09766 -3.50293 -1.09766 -3.9209s0.313477 -0.626953 0.94043 -0.626953c0.208984 0 0.836914 0.208984 1.88184 0.626953c1.15039 0.314453 3.08398 0.470703 5.80176 0.470703h1.88086l51.1172 -2.82227v-45.9424
c0 -2.92676 -0.469727 -4.96484 -1.41113 -6.11523c-0.835938 -1.14941 -1.25488 -1.98633 -1.25488 -2.50879c0 -0.626953 0.679688 -0.94043 2.03906 -0.94043c1.46289 0 3.4502 0.313477 5.95898 0.94043s4.07617 1.30762 4.70312 2.03906
c0.626953 0.626953 0.94043 1.56738 0.94043 2.82227v49.0781l46.2568 -2.66602c2.4043 -0.103516 4.12988 -0.365234 5.1748 -0.783203s1.98535 -0.626953 2.82227 -0.626953s1.98633 0.522461 3.44922 1.56738c1.46484 0.941406 2.71777 2.03906 3.76367 3.29297
c1.15039 1.25391 1.72461 2.2998 1.72461 3.13574c0 1.67285 -1.3584 2.61328 -4.07617 2.82324zM633.181 238.843c-0.418945 0.0517578 -0.811523 0.078125 -1.17578 0.078125h-1.25488c-1.14941 0 -2.0127 -0.208984 -2.58691 -0.626953
c-0.522461 -0.470703 -0.993164 -1.17578 -1.41211 -2.11719c-0.417969 -0.94043 -0.626953 -1.59375 -0.626953 -1.95996c0 -0.417969 0.183594 -0.626953 0.548828 -0.626953c0.157227 0 0.49707 0.078125 1.01953 0.235352
c0.575195 0.15625 1.54199 0.235352 2.90039 0.235352h1.02051l33.0059 -1.95996c1.09668 -0.104492 1.98633 -0.261719 2.66504 -0.470703c0.679688 -0.261719 1.17578 -0.392578 1.48926 -0.392578c0.314453 0 0.835938 0.235352 1.56836 0.706055
c1.88184 1.20215 2.82227 2.37891 2.82227 3.52832c0 0.731445 -0.678711 1.14941 -2.03809 1.25391zM620.401 270.202l55.8994 -2.35156c1.41113 -0.105469 2.48242 -0.261719 3.21387 -0.469727c0.78418 -0.261719 1.33301 -0.392578 1.64648 -0.392578
c0.366211 0 0.94043 0.235352 1.72559 0.705078c0.783203 0.470703 1.48926 1.0459 2.11621 1.72461c0.62793 0.679688 0.94043 1.28125 0.94043 1.80371c0 0.836914 -0.65332 1.30664 -1.95996 1.41113l-60.1328 2.50879
c-0.522461 0.0527344 -0.992188 0.078125 -1.41113 0.078125h-1.09766c-1.25391 0 -2.06445 -0.129883 -2.42969 -0.391602c-0.366211 -0.313477 -0.941406 -0.914062 -1.72559 -1.80273c-0.783203 -0.888672 -1.1748 -1.64648 -1.1748 -2.27441
c0 -0.678711 0.129883 -1.01855 0.391602 -1.01855c0.313477 0 0.756836 0.078125 1.33301 0.234375c0.574219 0.157227 1.46289 0.235352 2.66504 0.235352v0v0z" />
</svg>
