<?xml version="1.0" standalone="no"?>
<!DOCTYPE svg PUBLIC "-//W3C//DTD SVG 1.1//EN" "http://www.w3.org/Graphics/SVG/1.1/DTD/svg11.dtd" >
<svg xmlns="http://www.w3.org/2000/svg" xmlns:xlink="http://www.w3.org/1999/xlink" version="1.1" viewBox="-10 0 1010 1000">
   <path fill="currentColor"
d="M757.485 197.842c1.46484 3.22266 1.17188 4.98047 -0.878906 5.27344s-8.49609 0 -19.3359 -0.878906s-19.7754 -1.31836 -26.8066 -1.31836s-21.0938 0.878906 -42.1875 2.63672s-37.207 3.36914 -48.3398 4.83398s-20.8008 2.63672 -29.0039 3.51562
s-13.4766 1.31836 -15.8203 1.31836s-6.00586 -1.61133 -10.9863 -4.83398s-7.4707 -5.27344 -7.4707 -6.15234s10.5469 -2.05078 31.6406 -3.51562s39.8438 -3.07617 56.25 -4.83398s33.5449 -3.95508 51.416 -6.5918s29.1504 -3.95508 33.8379 -3.95508
s10.1074 1.61133 16.2598 4.83398s9.96094 6.44531 11.4258 9.66797v0v0z" />
</svg>
