<?xml version="1.0" standalone="no"?>
<!DOCTYPE svg PUBLIC "-//W3C//DTD SVG 1.1//EN" "http://www.w3.org/Graphics/SVG/1.1/DTD/svg11.dtd" >
<svg xmlns="http://www.w3.org/2000/svg" xmlns:xlink="http://www.w3.org/1999/xlink" version="1.1" viewBox="-10 0 1009 1000">
   <path fill="currentColor"
d="M580.691 213.247l0.157227 69.4863c0 2.81055 -0.9375 4.21582 -2.81152 4.21582c-1.24902 0 -2.70703 -0.520508 -4.37207 -1.56055c-3.43555 -1.97852 -5.15332 -3.74805 -5.15332 -5.30957v-1.56055c0 -0.313477 0.208984 -1.45801 0.625 -3.43652
c0.416992 -1.97754 0.624023 -4.26758 0.624023 -6.87012v-54.3408l-47.4688 2.6543c-0.728516 0.105469 -1.45703 0.15625 -2.18555 0.15625h-1.87402c-2.29004 0 -3.95605 -0.363281 -4.99609 -1.09277c-1.77051 -1.56055 -3.01953 -3.38281 -3.74805 -5.46484
c-0.729492 -2.18652 -1.09375 -3.4873 -1.09375 -3.9043c0 -0.416016 0.3125 -0.625 0.9375 -0.625c0.208008 0 0.833008 0.208984 1.87402 0.625c1.14453 0.3125 3.07031 0.46875 5.77637 0.46875h1.875l50.9043 -2.81055v-45.752
c0 -2.91406 -0.46875 -4.94434 -1.40527 -6.08984c-0.833008 -1.14453 -1.24902 -1.97852 -1.24902 -2.49805c0 -0.624023 0.675781 -0.936523 2.0293 -0.936523c1.45801 0 3.43555 0.3125 5.93359 0.936523c2.49902 0.624023 4.06055 1.30078 4.68457 2.03027
c0.624023 0.624023 0.9375 1.56055 0.9375 2.80957v48.875l46.0635 -2.6543c2.39453 -0.103516 4.11328 -0.364258 5.15332 -0.780273c1.04102 -0.416992 1.97754 -0.625 2.81055 -0.625s1.97754 0.520508 3.43555 1.56152c1.45703 0.936523 2.70703 2.03027 3.74707 3.2793
c1.14648 1.24902 1.71875 2.29004 1.71875 3.12305c0 1.66504 -1.35352 2.60254 -4.06055 2.81055zM623.97 232.988l-2.4209 0.078125c-1.19727 0 -2.08203 -0.233398 -2.6543 -0.702148c-0.520508 -0.520508 -0.962891 -1.30078 -1.32715 -2.34277
c-0.364258 -1.09277 -0.546875 -1.66504 -0.546875 -1.7168c0 -0.365234 0.182617 -0.546875 0.546875 -0.546875c0.15625 0 0.46875 0.078125 0.936523 0.234375c0.520508 0.15625 1.50977 0.234375 2.9668 0.234375h1.01562l37.5537 -2.18652
c1.09277 -0.103516 1.97852 -0.259766 2.65527 -0.467773c0.674805 -0.260742 1.19629 -0.390625 1.56055 -0.390625c0.416992 0 0.962891 0.285156 1.63965 0.858398c0.728516 0.520508 1.35352 1.12012 1.87402 1.7959c0.519531 0.625 0.780273 1.11914 0.780273 1.48438
c0 0.779297 -0.702148 1.22266 -2.1084 1.32617zM629.356 253.913l-2.26465 0.078125c-1.14453 0 -1.95117 -0.182617 -2.41992 -0.546875c-0.363281 -0.364258 -0.832031 -0.989258 -1.40527 -1.87305c-0.573242 -0.9375 -0.858398 -1.69238 -0.858398 -2.26465
s0.182617 -0.859375 0.546875 -0.859375c0.155273 0 0.545898 0.104492 1.1709 0.3125c0.624023 0.15625 1.6123 0.234375 2.96582 0.234375h0.78125l28.5752 -1.40527c1.09277 -0.104492 1.97852 -0.260742 2.6543 -0.467773
c0.676758 -0.260742 1.1709 -0.391602 1.48438 -0.391602c0.363281 0 0.910156 0.260742 1.63867 0.78125c0.729492 0.520508 1.35352 1.11914 1.87402 1.7959c0.573242 0.676758 0.859375 1.24902 0.859375 1.71777c0 0.78125 -0.703125 1.22363 -2.1084 1.32715z
M613.195 273.119l55.667 -1.87305c0.833008 -0.0527344 1.76953 -0.182617 2.81055 -0.390625c1.04102 -0.260742 1.71777 -0.390625 2.03027 -0.390625c0.364258 0 0.936523 0.234375 1.71777 0.703125c0.780273 0.467773 1.4834 1.04102 2.10742 1.7168
c0.625 0.676758 0.9375 1.27539 0.9375 1.79688c0 0.936523 -0.676758 1.45605 -2.03027 1.56055l-59.8828 2.03027l-2.1084 0.078125c-1.45801 0 -2.52441 -0.260742 -3.20117 -0.78125c-0.676758 -0.572266 -1.24902 -1.32715 -1.71777 -2.26367
s-0.702148 -1.61328 -0.702148 -2.03027c0 -0.416016 0.129883 -0.625 0.389648 -0.625c0.3125 0 0.754883 0.078125 1.32812 0.234375c0.572266 0.15625 1.45703 0.234375 2.6543 0.234375v0v0z" />
</svg>
