<?xml version="1.0" standalone="no"?>
<!DOCTYPE svg PUBLIC "-//W3C//DTD SVG 1.1//EN" "http://www.w3.org/Graphics/SVG/1.1/DTD/svg11.dtd" >
<svg xmlns="http://www.w3.org/2000/svg" xmlns:xlink="http://www.w3.org/1999/xlink" version="1.1" viewBox="-10 0 1010 1000">
   <path fill="currentColor"
d="M649.986 124.219c-1.17188 2.34375 -1.75781 13.4766 -1.75781 33.3984s-0.147461 43.3594 -0.439453 70.3125c-0.292969 26.9531 -1.02637 46.7285 -2.19727 59.3262c-1.17188 12.5977 -2.63672 18.8965 -4.39453 18.8965s-3.66309 -5.85938 -5.71289 -17.5781
c-2.05078 -11.7188 -2.78418 -42.7734 -2.19727 -93.1641c0.585938 -50.3906 -0.292969 -76.6113 -2.63672 -78.6621c-2.34473 -2.05078 -3.22363 -3.95508 -2.63672 -5.71289c0.585938 -1.75781 4.10156 -1.75781 10.5469 0
c6.44434 1.75781 10.2539 3.80859 11.4258 6.15234c1.1709 2.34375 1.1709 4.6875 0 7.03125v0v0zM562.975 201.562c-2.34473 0 -5.56641 -1.02539 -9.66797 -3.07617c-4.10254 -2.05078 -6.88477 -3.95508 -8.34961 -5.71289
c-1.46582 -1.75781 0.146484 -2.63672 4.83398 -2.63672c4.68652 0 9.81445 -0.439453 15.3809 -1.31836c5.56543 -0.878906 16.5518 -2.49023 32.959 -4.83398c16.4062 -2.34375 38.2324 -5.85938 65.4785 -10.5469s43.2129 -6.5918 47.9004 -5.71289
c4.68652 0.878906 9.08105 2.63672 13.1836 5.27344c4.10156 2.63672 6.73828 5.12695 7.91016 7.4707c1.1709 2.34375 1.02539 3.66211 -0.439453 3.95508c-1.46582 0.292969 -9.22852 0.146484 -23.291 -0.439453s-24.3174 -0.732422 -30.7617 -0.439453
c-6.44531 0.292969 -16.8467 1.31836 -31.2012 3.07617c-14.3555 1.75781 -31.3486 4.6875 -50.9766 8.78906c-19.6289 4.10156 -30.6152 6.15234 -32.959 6.15234v0v0zM717.662 228.237c1.40527 0 2.8125 0.351562 4.21875 1.05469s2.10938 1.40723 2.10938 2.10938
c0 0.703125 -0.615234 1.18652 -1.84668 1.4502c-1.22949 0.264648 -5.62402 0.923828 -13.1836 1.97754c-7.55762 1.05469 -11.9521 1.58301 -13.1836 1.58301c-1.22949 0 -2.5918 -0.396484 -4.08594 -1.1875c-1.49414 -0.790039 -2.15332 -1.31836 -1.97754 -1.58203
s3.07617 -0.834961 8.7002 -1.71387c5.62598 -0.878906 9.8877 -1.71387 12.7891 -2.50488c2.90039 -0.791016 5.05371 -1.18652 6.45996 -1.18652v0v0v0zM692.218 263.833c-2.72461 0.351562 -5.625 0.704102 -8.70117 1.05469
c-3.07617 0.351562 -4.83398 0.52832 -5.27344 0.52832s-1.3623 -0.439453 -2.76855 -1.31836s-2.10938 -1.58301 -2.10938 -2.11035c0 -0.526367 1.75781 -0.791016 5.27344 -0.791016s11.5576 -0.65918 24.126 -1.97754s19.9512 -2.19727 22.1484 -2.63672
s3.82324 -0.571289 4.87793 -0.394531c1.05469 0.174805 2.24121 0.702148 3.55957 1.58105s2.06543 1.58203 2.24121 2.10938s0.175781 1.01074 0 1.4502s-2.85645 0.527344 -8.04199 0.263672s-9.66797 -0.263672 -13.4473 0s-7.69043 0.615234 -11.7334 1.05469
s-7.42676 0.834961 -10.1514 1.18652v0v0z" />
</svg>
