<?xml version="1.0" standalone="no"?>
<!DOCTYPE svg PUBLIC "-//W3C//DTD SVG 1.1//EN" "http://www.w3.org/Graphics/SVG/1.1/DTD/svg11.dtd" >
<svg xmlns="http://www.w3.org/2000/svg" xmlns:xlink="http://www.w3.org/1999/xlink" version="1.1" viewBox="-10 0 1010 1000">
   <path fill="currentColor"
d="M669.79 156.548c-2.34375 0.585938 -8.93555 -3.80859 -19.7754 -13.1836s-16.2598 -15.5273 -16.2598 -18.457c7.03125 0 13.916 0.732422 20.6543 2.19727s11.7188 3.95508 14.9414 7.4707s4.6875 7.91016 4.39453 13.1836s-1.61133 8.20312 -3.95508 8.78906v0v0z
M714.614 244.878c5.27344 7.91016 7.91016 14.502 7.91016 19.7754s-0.732422 8.78906 -2.19727 10.5469s-5.27344 -0.878906 -11.4258 -7.91016s-14.209 -16.9922 -24.1699 -29.8828s-15.0879 -20.3613 -15.3809 -22.4121s1.61133 -2.49023 5.71289 -1.31836
s10.4004 4.6875 18.8965 10.5469s15.3809 12.7441 20.6543 20.6543v0v0zM576.187 275.64c-0.878906 -0.878906 4.6875 -6.00586 16.6992 -15.3809s20.6543 -17.8711 25.9277 -25.4883s7.03125 -12.7441 5.27344 -15.3809s-1.61133 -4.24805 0.439453 -4.83398
s5.41992 1.02539 10.1074 4.83398s7.17773 7.03125 7.4707 9.66797s-3.22266 7.17773 -10.5469 13.623s-18.1641 13.7695 -32.5195 21.9727s-21.9727 11.8652 -22.8516 10.9863v0v0zM570.474 200.493c-4.6875 -2.34375 -7.03125 -4.24805 -7.03125 -5.71289
s1.61133 -2.19727 4.83398 -2.19727s16.1133 -1.61133 38.6719 -4.83398s41.0156 -5.71289 55.3711 -7.4707s26.5137 -3.51562 36.4746 -5.27344s19.6289 -2.7832 29.0039 -3.07617s16.4062 1.46484 21.0938 5.27344c4.68848 3.80859 6.5918 6.5918 5.71289 8.34961
s-2.49023 2.92969 -4.83398 3.51562s-7.4707 0.585938 -15.3809 0s-18.0176 -0.878906 -30.3223 -0.878906s-23.1445 0.292969 -32.5195 0.878906s-21.5332 2.05078 -36.4746 4.39453s-27.0996 4.6875 -36.4746 7.03125s-15.2344 3.51562 -17.5781 3.51562
s-5.85938 -1.17188 -10.5469 -3.51562v0v0z" />
</svg>
