<?xml version="1.0" standalone="no"?>
<!DOCTYPE svg PUBLIC "-//W3C//DTD SVG 1.1//EN" "http://www.w3.org/Graphics/SVG/1.1/DTD/svg11.dtd" >
<svg xmlns="http://www.w3.org/2000/svg" xmlns:xlink="http://www.w3.org/1999/xlink" version="1.1" viewBox="-10 0 1009 1000">
   <path fill="currentColor"
d="M550.448 188.178l25.4102 -1.12598l6.59375 -36.0244l-32.6465 1.92969c-0.858398 0.107422 -1.66211 0.161133 -2.41309 0.161133h-2.41211c-2.3584 0 -4.12695 -0.428711 -5.30664 -1.28613c-1.07227 -0.964844 -2.09082 -2.19824 -3.05566 -3.69922
c-0.858398 -1.6084 -1.28613 -2.84082 -1.28613 -3.69824c0 -0.96582 0.375 -1.44824 1.125 -1.44824c0.322266 0 1.01953 0.161133 2.09082 0.482422c1.17969 0.322266 3.16309 0.482422 5.95117 0.482422h2.08984l82.1797 -4.98535
c2.25098 -0.214844 4.07324 -0.536133 5.46777 -0.963867c1.39355 -0.537109 2.41211 -0.804688 3.05566 -0.804688c0.642578 0 1.71484 0.482422 3.21582 1.44727s2.8418 2.09082 4.02148 3.37695c1.17969 1.28711 1.76855 2.30566 1.76855 3.05566
c0 1.39453 -1.39355 2.19824 -4.18164 2.41309l-48.2461 2.89453l-6.75391 36.0234l39.7217 -1.92969h0.96582c2.25098 0 4.18164 0.588867 5.78906 1.76855c1.6084 1.07227 2.41211 2.25195 2.41211 3.53809c0 1.28711 -0.375 2.89453 -1.12598 4.8252l-5.14551 49.2109
l15.4385 -0.482422c1.71582 -0.107422 3.64551 -0.375977 5.79004 -0.804688c2.14355 -0.535156 3.64453 -0.803711 4.50293 -0.803711s2.03613 0.589844 3.53809 1.76855c1.6084 1.07227 2.94824 2.30566 4.02051 3.69922c1.17969 1.28613 1.76855 2.30469 1.76855 3.05566
c0 1.39355 -1.12598 2.19824 -3.37695 2.41211h-0.482422l-126.567 3.53809h-2.89355c-3.9668 0 -6.43359 -0.428711 -7.39844 -1.28613c-0.964844 -0.858398 -2.19727 -2.03711 -3.69824 -3.53809c-1.39453 -1.50098 -2.09082 -2.78809 -2.09082 -3.85938
c0 -1.07324 0.267578 -1.60938 0.803711 -1.60938c0.643555 0 1.55469 0.162109 2.73438 0.483398s3.00195 0.482422 5.46777 0.482422l3.69824 -0.161133l34.2559 -0.964844l9.00488 -49.5322l-18.1729 0.803711c-2.14355 0.214844 -4.18066 0.322266 -6.11133 0.322266
c-1.82227 0 -3.32227 -0.59082 -4.50195 -1.76953c-1.17969 -1.17969 -2.14453 -2.57324 -2.89453 -4.18164c-0.750977 -1.6084 -1.12598 -2.62598 -1.12598 -3.05566c0 -0.857422 0.375 -1.28613 1.12598 -1.28613c0.321289 0 1.01855 0.213867 2.08984 0.642578
c1.07227 0.322266 3.00195 0.483398 5.79004 0.483398v0v0zM623.943 193.806l-38.5967 1.76953l-9.48828 49.8545l43.4219 -1.28711z" />
</svg>
