<?xml version="1.0" standalone="no"?>
<!DOCTYPE svg PUBLIC "-//W3C//DTD SVG 1.1//EN" "http://www.w3.org/Graphics/SVG/1.1/DTD/svg11.dtd" >
<svg xmlns="http://www.w3.org/2000/svg" xmlns:xlink="http://www.w3.org/1999/xlink" version="1.1" viewBox="-10 0 1010 1000">
   <path fill="currentColor"
d="M654.671 24.2188c-1.17188 2.34375 -1.75781 13.4766 -1.75781 33.3984s-0.146484 43.3594 -0.439453 70.3125s-1.02539 46.7285 -2.19727 59.3262s-2.63672 18.8965 -4.39453 18.8965s-3.66211 -5.85938 -5.71289 -17.5781s-2.7832 -42.7734 -2.19727 -93.1641
s-0.292969 -76.6113 -2.63672 -78.6621s-3.22266 -3.95508 -2.63672 -5.71289s4.10156 -1.75781 10.5469 0s10.2539 3.80859 11.4258 6.15234s1.17188 4.6875 0 7.03125v0v0v0zM567.659 101.562c-2.34375 0 -5.56641 -1.02539 -9.66797 -3.07617
s-6.88477 -3.95508 -8.34961 -5.71289s0.146484 -2.63672 4.83398 -2.63672s9.81445 -0.439453 15.3809 -1.31836s16.5527 -2.49023 32.959 -4.83398s38.2324 -5.85938 65.4785 -10.5469s43.2129 -6.5918 47.9004 -5.71289s9.08203 2.63672 13.1836 5.27344
s6.73828 5.12695 7.91016 7.4707s1.02539 3.66211 -0.439453 3.95508s-9.22852 0.146484 -23.291 -0.439453s-24.3164 -0.732422 -30.7617 -0.439453s-16.8457 1.31836 -31.2012 3.07617s-31.3477 4.6875 -50.9766 8.78906s-30.6152 6.15234 -32.959 6.15234v0v0v0z
M719.183 141.025c1.49316 0.614258 2.24121 1.14258 2.24121 1.58203s-0.351562 0.790039 -1.05469 1.05469c-0.703125 0.263672 -1.62598 0.394531 -2.76953 0.394531c-1.1416 0 -2.54785 0.0888672 -4.21777 0.264648
c-1.66992 0.174805 -4.2627 0.527344 -7.77832 1.05371c-3.51562 0.52832 -5.58203 0.791992 -6.19629 0.791992c-0.615234 0 -1.62598 -0.219727 -3.03223 -0.65918c-1.40723 -0.439453 -2.15332 -0.791992 -2.24121 -1.05469
c-0.0878906 -0.263672 3.25098 -1.05566 10.0195 -2.37402c6.76758 -1.31836 10.5898 -1.97754 11.4688 -1.97754c0.879883 0 2.06641 0.308594 3.56055 0.923828v0v0v0v0zM710.35 124.678c4.21973 -1.14258 6.90039 -1.71387 8.04297 -1.71387
c1.1416 0 2.28418 0.131836 3.42773 0.395508c1.14258 0.263672 1.8457 0.615234 2.1084 1.05469c0.263672 0.439453 0.176758 0.878906 -0.262695 1.31836s-1.3623 0.791016 -2.76953 1.05469c-1.40527 0.263672 -5.18457 0.922852 -11.3369 1.97754
s-10.0205 1.58203 -11.6016 1.58203c-1.58203 0 -2.85645 -0.395508 -3.82324 -1.18652c-0.967773 -0.791016 -1.1875 -1.23047 -0.65918 -1.31836c0.527344 -0.0878906 2.41699 -0.351562 5.66797 -0.791016c3.25195 -0.439453 6.9873 -1.23047 11.2061 -2.37305v0v0v0v0z
M714.437 161.724c-4.6582 0.175781 -8.87598 0.527344 -12.6553 1.05469s-7.51465 1.09863 -11.207 1.71387c-3.69043 0.615234 -5.80078 0.922852 -6.32715 0.922852c-0.52832 0 -1.71484 -0.483398 -3.56055 -1.4502s-2.76855 -1.58203 -2.76855 -1.8457
s0.835938 -0.395508 2.50488 -0.395508c1.66992 0 6.1084 -0.439453 13.3154 -1.31836c7.20801 -0.878906 14.6338 -1.75781 22.2803 -2.63672c7.64746 -0.878906 11.8213 -1.31836 12.5244 -1.31836s2.41699 0.527344 5.14258 1.58203
c2.72363 1.05469 4.08594 2.06543 4.08594 3.03223s-1.58203 1.27441 -4.74512 0.922852c-3.16504 -0.351562 -5.88965 -0.527344 -8.1748 -0.527344s-5.75684 0.0878906 -10.4141 0.263672v0h-0.000976562v0v0z" />
</svg>
