<?xml version="1.0" standalone="no"?>
<!DOCTYPE svg PUBLIC "-//W3C//DTD SVG 1.1//EN" "http://www.w3.org/Graphics/SVG/1.1/DTD/svg11.dtd" >
<svg xmlns="http://www.w3.org/2000/svg" xmlns:xlink="http://www.w3.org/1999/xlink" version="1.1" viewBox="-10 0 1009 1000">
   <path fill="currentColor"
d="M554.981 166.089c-0.873047 0.109375 -1.69043 0.163086 -2.4541 0.163086h-2.61816c-2.39941 0 -4.19922 -0.435547 -5.39941 -1.30762c-1.09082 -0.982422 -2.07227 -2.45508 -2.94531 -4.41797c-0.87207 -1.96387 -1.30859 -3.32715 -1.30859 -4.09082
c0 -0.87207 0.381836 -1.30859 1.14551 -1.30859c0.327148 0 1.03613 0.163086 2.12695 0.491211c1.19922 0.327148 3.21777 0.490234 6.05371 0.490234h2.12695l68.8828 -4.09082c2.29102 -0.217773 4.14551 -0.544922 5.56348 -0.981445
c1.41699 -0.544922 2.4541 -0.818359 3.1084 -0.818359s1.74512 0.491211 3.27246 1.47266c3.92676 2.50977 5.88965 4.96289 5.88965 7.36328c0 1.52734 -1.41699 2.39941 -4.25391 2.61816zM528.312 231.536l116.659 -4.90918
c2.94531 -0.217773 5.18066 -0.544922 6.70898 -0.981445c1.63574 -0.544922 2.78125 -0.818359 3.43555 -0.818359c0.762695 0 1.96387 0.491211 3.59961 1.47266s3.1084 2.18262 4.41797 3.59961c1.30859 1.41797 1.96289 2.67285 1.96289 3.76367
c0 1.74512 -1.36328 2.72656 -4.09082 2.94434l-125.494 5.23633c-1.09082 0.109375 -2.07227 0.164062 -2.94531 0.164062h-2.29102c-2.61719 0 -4.30859 -0.273438 -5.07227 -0.818359c-0.762695 -0.654297 -1.96289 -1.90918 -3.59863 -3.76367
c-1.63574 -1.85352 -2.4541 -3.43555 -2.4541 -4.74414c0 -1.41797 0.272461 -2.12695 0.818359 -2.12695c0.654297 0 1.58105 0.163086 2.78027 0.490234c1.20117 0.327148 3.05469 0.491211 5.56348 0.491211v0v0z" />
</svg>
