<?xml version="1.0" standalone="no"?>
<!DOCTYPE svg PUBLIC "-//W3C//DTD SVG 1.1//EN" "http://www.w3.org/Graphics/SVG/1.1/DTD/svg11.dtd" >
<svg xmlns="http://www.w3.org/2000/svg" xmlns:xlink="http://www.w3.org/1999/xlink" version="1.1" viewBox="-10 0 1010 1000">
   <path fill="currentColor"
d="M696.133 12.1777c4.6875 0 9.375 1.17188 14.0625 3.51562s7.03125 4.6875 7.03125 7.03125s-2.05078 3.95508 -6.15234 4.83398s-18.75 3.07617 -43.9453 6.5918s-39.8438 5.27344 -43.9453 5.27344s-8.64258 -1.31836 -13.623 -3.95508
s-7.17773 -4.39453 -6.5918 -5.27344s10.2539 -2.7832 29.0039 -5.71289s32.959 -5.71289 42.627 -8.34961s16.8457 -3.95508 21.5332 -3.95508v0v0v0zM611.318 130.83c-9.08203 1.17188 -18.75 2.34375 -29.0039 3.51562s-16.1133 1.75781 -17.5781 1.75781
s-4.54102 -1.46484 -9.22852 -4.39453s-7.03125 -5.27344 -7.03125 -7.03125s5.85938 -2.63672 17.5781 -2.63672s38.5254 -2.19727 80.4199 -6.5918s66.5039 -7.32422 73.8281 -8.78906s12.7441 -1.9043 16.2598 -1.31836s7.4707 2.34375 11.8652 5.27344
s6.88477 5.27344 7.4707 7.03125s0.585938 3.36914 0 4.83398s-9.52148 1.75781 -26.8066 0.878906s-32.2266 -0.878906 -44.8242 0s-25.6348 2.05078 -39.1113 3.51562s-24.7559 2.7832 -33.8379 3.95508v0v0v0z" />
</svg>
