<?xml version="1.0" standalone="no"?>
<!DOCTYPE svg PUBLIC "-//W3C//DTD SVG 1.1//EN" "http://www.w3.org/Graphics/SVG/1.1/DTD/svg11.dtd" >
<svg xmlns="http://www.w3.org/2000/svg" xmlns:xlink="http://www.w3.org/1999/xlink" version="1.1" viewBox="-10 0 1009 1000">
   <path fill="currentColor"
d="M552.436 148.49c0 -2.6582 -0.797852 -5.20898 -2.39258 -7.6543c-0.319336 -0.53125 -0.478516 -0.957031 -0.478516 -1.27539c0 -0.425781 0.637695 -0.638672 1.91406 -0.638672c1.27539 0 2.87012 0.319336 4.7832 0.957031
c2.02051 0.638672 3.56445 1.45605 4.78418 2.23242c1.16895 0.744141 6.71094 2.68262 6.9541 3.88867v15c0.157227 -6.21973 -0.587891 21.3223 0 21c0.65332 -0.358398 8.90918 6.76562 16 11c7.12207 4.25293 32 23 51.5342 43.6211
c1.4043 1.48242 2.39258 2.33887 2.39258 3.18945s-0.265625 1.86035 -0.797852 3.0293c-1.59473 3.2959 -3.29492 4.94434 -5.10254 4.94434c-0.637695 0 -1.5332 -0.374023 -2.55078 -1.27539c-12.9697 -11.4824 -50.9951 -41.1738 -62.4756 -48.5088l-1 84
c-0.0917969 1.91016 -4.10352 3.14551 -6.22949 3.14551c-2.01953 0 -3.98633 -0.691406 -5.90039 -2.07422c-1.80664 -1.38086 -2.71094 -2.49707 -2.71094 -3.34766c0 -0.851562 0.212891 -2.28613 0.637695 -4.30566
c0.532227 -2.01953 0.797852 -4.94238 0.797852 -8.77051z" />
</svg>
