<?xml version="1.0" standalone="no"?>
<!DOCTYPE svg PUBLIC "-//W3C//DTD SVG 1.1//EN" "http://www.w3.org/Graphics/SVG/1.1/DTD/svg11.dtd" >
<svg xmlns="http://www.w3.org/2000/svg" xmlns:xlink="http://www.w3.org/1999/xlink" version="1.1" viewBox="-10 0 1010 1000">
   <path fill="currentColor"
d="M620.874 196.412c-0.292969 -42.1875 -1.02539 -66.3574 -2.19727 -72.5098s-3.07617 -10.8398 -5.71289 -14.0625s-3.36914 -5.56641 -2.19727 -7.03125s4.39453 -1.46484 9.66797 0s9.375 3.36914 12.3047 5.71289s3.51562 6.15234 1.75781 11.4258
s-2.49023 35.0098 -2.19727 89.209s-0.439453 84.375 -2.19727 90.5273s-3.36914 9.08203 -4.83398 8.78906s-3.36914 -3.95508 -5.71289 -10.9863s-3.51562 -11.4258 -3.51562 -13.1836s0.878906 -6.29883 2.63672 -13.623s2.49023 -32.0801 2.19727 -74.2676v0z
M700.854 185.426c7.91016 4.39453 11.7197 9.22852 11.4268 14.502c-0.293945 5.27344 -1.17188 8.05664 -2.63672 8.34961s-5.71289 -1.31836 -12.7441 -4.83398s-15.9668 -7.91016 -26.8066 -13.1836s-19.043 -9.375 -24.6094 -12.3047
s-8.20312 -4.98047 -7.91016 -6.15234s5.12695 -1.31836 14.502 -0.439453s17.8711 2.34375 25.4883 4.39453s15.3809 5.27344 23.291 9.66797h-0.000976562z" />
</svg>
