<?xml version="1.0" standalone="no"?>
<!DOCTYPE svg PUBLIC "-//W3C//DTD SVG 1.1//EN" "http://www.w3.org/Graphics/SVG/1.1/DTD/svg11.dtd" >
<svg xmlns="http://www.w3.org/2000/svg" xmlns:xlink="http://www.w3.org/1999/xlink" version="1.1" viewBox="-10 0 1009 1000">
   <path fill="currentColor"
d="M366.927 270.92c0 -0.887695 1.55469 -1.33203 4.66504 -1.33203c3.10938 0 8.66309 -1.11133 16.6611 -3.33203l-1.55566 -60.8691c0 -3.85059 -1.03613 -7.1084 -3.10938 -9.77441c-0.444336 -0.740234 -0.666992 -1.25879 -0.666992 -1.55469
c0 -0.888672 0.518555 -1.33301 1.55566 -1.33301c1.18457 0 2.8877 0.22168 5.10938 0.666016c6.51562 1.03711 9.77441 3.48047 9.77441 7.33105l0.888672 61.9795l12.2178 -3.99805l0.666992 -81.9736l-10.2197 0.666992l0.222656 1.77734v0.887695
c0 2.81445 -1.03711 4.22168 -3.11035 4.22168l-2.44336 -0.666992c-5.18359 -1.33301 -7.77539 -3.9248 -7.77539 -7.77539v-1.33301c0.147461 -0.740234 0.222656 -1.55469 0.222656 -2.44336v-4.8877c0 -0.887695 -0.0751953 -1.70215 -0.222656 -2.44336
l-2.66602 -30.2119c-0.295898 -4.59082 -1.11035 -7.92285 -2.44336 -9.99707c-1.33301 -2.22168 -1.99902 -3.77637 -1.99902 -4.66504s0.962891 -1.33301 2.8877 -1.33301c2.07324 0 6.66406 0.888672 13.7725 2.66602l39.9873 -2.8877l1.99902 -0.222656
c2.22168 0 4.29492 0.81543 6.2207 2.44434c2.07324 1.62891 3.10938 3.03613 3.10938 4.2207c0 1.03613 -0.147461 1.9248 -0.444336 2.66504c-0.295898 0.741211 -0.517578 1.40723 -0.666016 2l-4.66504 35.7656c3.10938 3.70312 4.66504 6.14648 4.66504 7.33105
s-0.591797 1.9248 -1.77734 2.22168c-1.03613 0.148438 -2.44336 0.295898 -4.2207 0.444336l-17.5498 0.888672l-0.22168 26.4355l6.88672 -0.666992c3.25781 -0.295898 5.55371 -0.666016 6.88672 -1.11035s2.51758 -0.666016 3.55371 -0.666016
c1.03711 0 2.2959 0.517578 3.77637 1.55469c3.85059 2.66602 5.77637 5.03516 5.77637 7.1084c0 1.92578 -1.92578 3.03613 -5.77637 3.33301l-21.3262 1.33203l-0.444336 40.6543c2.96191 -1.18555 6.36816 -2.51855 10.2197 -3.99902
c3.99805 -1.62891 7.4043 -3.03613 10.2188 -4.2207c2.81348 -1.18457 4.96094 -1.77734 6.44238 -1.77734c1.48047 0 2.2207 0.444336 2.2207 1.33301c0 1.9248 -5.92383 6.29395 -17.7715 13.1064c-11.7002 6.8125 -28.3604 14.292 -49.9834 22.4375
c-1.77734 0.888672 -4.14648 1.33301 -7.1084 1.33301c-4.29492 0 -8.21973 -3.11035 -11.7744 -9.33008c-0.444336 -0.888672 -0.666016 -1.55566 -0.666016 -2v-0.000976562v0zM435.126 130.078l-35.3213 2.22168l2.44336 34.4326l29.9902 -1.77637z" />
</svg>
