<?xml version="1.0" standalone="no"?>
<!DOCTYPE svg PUBLIC "-//W3C//DTD SVG 1.1//EN" "http://www.w3.org/Graphics/SVG/1.1/DTD/svg11.dtd" >
<svg xmlns="http://www.w3.org/2000/svg" xmlns:xlink="http://www.w3.org/1999/xlink" version="1.1" viewBox="-10 0 1009 1000">
   <path fill="currentColor"
d="M417.12 271.189l1.29004 -15.6982l0.860352 -52.252c-11.2705 12.7607 -25.3027 12.1123 -28.6006 13.9756c-1.00293 0.430664 -1.93555 0.645508 -2.79492 0.645508c-0.716797 0 -1.0752 -0.716797 -1.0752 -2.15039s0.430664 -3.65332 2.58008 -5.37598
c26.6201 -21.334 32.6201 -28.334 44.2988 -50.4248c2.9248 -5.5332 3.22559 -9.5332 3.22559 -10.9678v-3.22559l-0.645508 -3.44043c0 -1.43359 0.788086 -2.14941 2.36523 -2.14941s3.44043 0.429688 5.59082 1.28906c5.73438 2.58105 8.60156 5.44824 8.60156 8.60156
c0 3.1543 -2.04102 14.4365 -10.8164 31.9834c-2.4375 4.87402 -10.0098 13.7002 -10 18l0.172852 74.4141c0.00390625 1.57715 -0.430664 2.72363 -1.29004 3.44043c-0.860352 0.717773 -1.86328 1.0752 -3.01074 1.0752l-2.79492 -0.429688
c-1.7207 -0.287109 -3.5127 -1.14746 -5.37695 -2.58008c-1.71973 -1.29102 -2.58008 -2.86816 -2.58008 -4.73145v0.000976562v0z" />
</svg>
