<?xml version="1.0" standalone="no"?>
<!DOCTYPE svg PUBLIC "-//W3C//DTD SVG 1.1//EN" "http://www.w3.org/Graphics/SVG/1.1/DTD/svg11.dtd" >
<svg xmlns="http://www.w3.org/2000/svg" xmlns:xlink="http://www.w3.org/1999/xlink" version="1.1" viewBox="-10 0 1009 1000">
   <path fill="currentColor"
d="M393.082 265.247c0.62207 -4.35449 0.932617 -7.93066 0.932617 -10.7295l0.155273 -40.1201l-33.9004 1.39941l0.466797 4.66406v0.466797c0 1.96973 -0.984375 2.95508 -2.9541 2.95508c-1.24414 0 -2.85156 -0.466797 -4.82031 -1.40039
c-1.96973 -0.931641 -2.95508 -2.4873 -2.95508 -4.66406v-1.24414c0.207031 -1.65918 0.311523 -3.16211 0.311523 -4.50977c0 -1.45117 -0.104492 -2.90332 -0.311523 -4.35449l-2.79883 -33.8994c-0.207031 -3.31836 -0.933594 -5.90918 -2.17773 -7.77539
c-1.13965 -1.96973 -1.70996 -3.31738 -1.70996 -4.04395c0 -0.724609 0.725586 -1.08789 2.17676 -1.08789c1.45215 0 4.9248 1.08789 10.4189 3.2666l38.5654 -2.33398l0.155273 -26.7461c0 -2.17676 -0.415039 -3.99121 -1.24414 -5.44238
c-0.725586 -1.55566 -1.08887 -2.69531 -1.08887 -3.42188c0 -0.725586 0.363281 -1.08789 1.08887 -1.08789c0.829102 0 2.125 0.155273 3.8877 0.46582c5.08008 0.933594 7.61914 2.85156 7.61914 5.75391l-0.155273 29.8564l41.9863 -2.4873
c0.725586 -0.103516 1.39941 -0.15625 2.02148 -0.15625h1.39941c3.62891 0 5.96191 1.39941 6.99805 4.19922c0.415039 1.03711 0.62207 1.86621 0.62207 2.48828c0 0.517578 -0.207031 1.14062 -0.62207 1.86523c-0.415039 0.62207 -0.673828 1.2959 -0.777344 2.02246
l-4.35449 33.5889c2.90234 3.31641 4.35449 5.5459 4.35449 6.68652c0 1.13965 -0.518555 1.81348 -1.55469 2.02148c-1.03711 0.207031 -2.28027 0.362305 -3.73242 0.466797l-46.6514 2.02148l-0.311523 53.8037c0 2.5918 -1.03613 3.8877 -3.10938 3.8877
c-2.28125 0 -4.19824 -0.673828 -5.75391 -2.02148c-1.45117 -1.34668 -2.17676 -2.79883 -2.17676 -4.35352v0v0zM446.108 168.057l-41.3643 2.33301l-0.310547 34.5215l37.9424 -1.71094zM394.481 171.011l-37.7881 2.17773l2.95508 33.7441l34.6777 -1.55469z" />
</svg>
