<?xml version="1.0" standalone="no"?>
<!DOCTYPE svg PUBLIC "-//W3C//DTD SVG 1.1//EN" "http://www.w3.org/Graphics/SVG/1.1/DTD/svg11.dtd" >
<svg xmlns="http://www.w3.org/2000/svg" xmlns:xlink="http://www.w3.org/1999/xlink" version="1.1" viewBox="-10 0 1010 1000">
   <path fill="currentColor"
d="M413.857 142.437c2.63672 -4.98047 3.22266 -8.20312 1.75781 -9.66797s-0.878906 -2.49023 1.75781 -3.07617s6.00586 0.732422 10.1074 3.95508s6.29883 5.71289 6.5918 7.4707s-6.15234 9.08203 -19.3359 21.9736c-13.1836 12.8906 -25.4883 22.5586 -36.9141 29.0039
s-17.4316 9.08203 -18.0176 7.91016c-0.586914 -1.17188 3.07617 -4.83398 10.9854 -10.9863c7.91016 -6.15234 16.4062 -14.209 25.4893 -24.1699c9.08203 -9.96094 14.9414 -17.4316 17.5771 -22.4121zM326.846 290.093
c-8.49609 3.22266 -12.8906 4.10156 -13.1836 2.63672s6.73828 -6.00586 21.0938 -13.623s27.3926 -15.6738 39.1113 -24.1699s22.8516 -17.8711 33.3984 -28.125s20.3613 -22.998 29.4434 -38.2324s13.1836 -23.291 12.3047 -24.1699s-4.83398 -0.878906 -11.8652 0
s-16.1133 1.31836 -27.2461 1.31836v-7.03125c9.375 0 18.6035 -0.878906 27.6855 -2.63672s14.209 -3.36914 15.3809 -4.83398s2.92969 -2.19727 5.27344 -2.19727s6.5918 1.9043 12.7441 5.71289s9.08203 6.5918 8.78906 8.34961s-2.49023 3.07617 -6.5918 3.95508
s-12.0117 10.4004 -23.7305 28.5645s-23.4375 32.0801 -35.1562 41.748s-22.2656 17.7246 -31.6406 24.1699s-18.8965 12.0117 -28.5645 16.6992s-18.75 8.64258 -27.2461 11.8652v0zM409.902 204.399c0 4.10156 -0.732422 7.03125 -2.19727 8.78906
s-2.63672 2.63672 -3.51562 2.63672s-3.07617 -2.49023 -6.5918 -7.4707s-7.91016 -13.0371 -13.1836 -24.1699c8.78906 2.34375 15.2344 5.27344 19.3359 8.78906s6.15234 7.32422 6.15234 11.4258v0z" />
</svg>
