<?xml version="1.0" standalone="no"?>
<!DOCTYPE svg PUBLIC "-//W3C//DTD SVG 1.1//EN" "http://www.w3.org/Graphics/SVG/1.1/DTD/svg11.dtd" >
<svg xmlns="http://www.w3.org/2000/svg" xmlns:xlink="http://www.w3.org/1999/xlink" version="1.1" viewBox="-10 0 1010 1000">
   <path fill="currentColor"
d="M360.493 187.919c10.5469 -10.2539 20.6543 -22.4121 30.3223 -36.4746s16.1133 -25.3418 19.3359 -33.8379s4.10156 -13.7695 2.63672 -15.8203s-1.46484 -3.51562 0 -4.39453s4.83398 0 10.1074 2.63672s7.91016 5.27344 7.91016 7.91016
s-2.92969 9.22852 -8.78906 19.7754s-15.0879 23.1445 -27.6855 37.793s-23.584 25.1953 -32.959 31.6406s-14.502 9.08203 -15.3809 7.91016s3.95508 -6.88477 14.502 -17.1387v0zM408.833 280.644c-1.75781 6.44531 -3.22266 9.66797 -4.39453 9.66797
s-2.7832 -3.07617 -4.83398 -9.22852s-3.07617 -9.96094 -3.07617 -11.4258s0.878906 -7.4707 2.63672 -18.0176s2.63672 -25.9277 2.63672 -46.1426s-1.46484 -38.2324 -4.39453 -54.0527c8.20312 5.27344 12.8906 8.93555 14.0625 10.9863s1.75781 9.81445 1.75781 23.291
s-0.292969 31.0547 -0.878906 52.7344s-1.75781 35.7422 -3.51562 42.1875v0z" />
</svg>
