<?xml version="1.0" standalone="no"?>
<!DOCTYPE svg PUBLIC "-//W3C//DTD SVG 1.1//EN" "http://www.w3.org/Graphics/SVG/1.1/DTD/svg11.dtd" >
<svg xmlns="http://www.w3.org/2000/svg" xmlns:xlink="http://www.w3.org/1999/xlink" version="1.1" viewBox="-10 0 1010 1000">
   <path fill="currentColor"
d="M371.287 188.145c-8.49609 1.75781 -19.043 3.80859 -31.6406 6.15234s-19.6289 3.51562 -21.0938 3.51562s-4.54102 -1.02539 -9.22852 -3.07617s-7.03125 -3.66211 -7.03125 -4.83398s3.95508 -2.05078 11.8652 -2.63672s16.4062 -1.75781 25.4883 -3.51562
s17.4316 -3.36914 25.0488 -4.83398s19.043 -3.95508 34.2773 -7.4707s25.6348 -5.41992 31.2012 -5.71289s9.81445 0.732422 12.7441 3.07617s4.39453 4.24805 4.39453 5.71289s-2.49023 2.7832 -7.4707 3.95508s-10.8398 2.05078 -17.5781 2.63672
s-14.7949 1.46484 -24.1699 2.63672s-18.3105 2.63672 -26.8066 4.39453zM347.117 255.381c-8.78906 9.66797 -19.6289 17.7246 -32.5195 24.1699s-19.6289 8.93555 -20.2148 7.4707s2.63672 -4.39453 9.66797 -8.78906s15.6738 -11.2793 25.9277 -20.6543
s17.7246 -19.7754 22.4121 -31.2012s7.76367 -24.9023 9.22852 -40.4297s1.75781 -30.6152 0.878906 -45.2637s-2.63672 -23.4375 -5.27344 -26.3672s-3.51562 -5.12695 -2.63672 -6.5918s3.36914 -1.9043 7.4707 -1.31836s7.76367 1.75781 10.9863 3.51562
s5.12695 3.51562 5.71289 5.27344s0.439453 4.39453 -0.439453 7.91016s-1.46484 10.8398 -1.75781 21.9727s-1.02539 24.4629 -2.19727 39.9902s-3.80859 28.7109 -7.91016 39.5508s-10.5469 21.0938 -19.3359 30.7617zM487.742 283.945
c0 1.75781 -5.12695 3.07617 -15.3809 3.95508s-20.0684 1.31836 -29.4434 1.31836s-15.5273 -1.02539 -18.457 -3.07617s-7.61719 -7.4707 -14.0625 -16.2598s-21.3867 -30.4688 -44.8242 -65.0391l4.39453 -7.03125c12.8906 15.8203 21.9727 26.9531 27.2461 33.3984
s12.1582 13.4766 20.6543 21.0938s17.8711 13.4766 28.125 17.5781s19.7754 7.03125 28.5645 8.78906s13.1836 3.51562 13.1836 5.27344z" />
</svg>
