<?xml version="1.0" standalone="no"?>
<!DOCTYPE svg PUBLIC "-//W3C//DTD SVG 1.1//EN" "http://www.w3.org/Graphics/SVG/1.1/DTD/svg11.dtd" >
<svg xmlns="http://www.w3.org/2000/svg" xmlns:xlink="http://www.w3.org/1999/xlink" version="1.1" viewBox="-10 0 1010 1000">
   <path fill="currentColor"
d="M342.788 135.713c2.34375 14.0625 4.24805 28.8574 5.71289 44.3848s0.878906 23.7305 -1.75781 24.6094s-4.98047 -4.54102 -7.03125 -16.2598s-4.24805 -22.1191 -6.5918 -31.2012s-4.83398 -14.7949 -7.4707 -17.1387s-3.80859 -4.24805 -3.51562 -5.71289
s2.19727 -2.19727 5.71289 -2.19727s8.49609 1.17188 14.9414 3.51562zM396.401 77.2656c6.44531 2.05078 9.96094 4.24805 10.5469 6.5918s0.292969 4.39453 -0.878906 6.15234s-1.75781 29.5898 -1.75781 83.4961s-0.732422 86.7188 -2.19727 98.4375
s-2.92969 17.5781 -4.39453 17.5781s-2.7832 -4.10156 -3.95508 -12.3047s-1.9043 -15.3809 -2.19727 -21.5332s-0.585938 -36.3281 -0.878906 -90.5273s-1.46484 -82.3242 -3.51562 -84.375s-2.63672 -3.66211 -1.75781 -4.83398s4.54102 -0.732422 10.9863 1.31836z
M459.683 182.295c0 -1.75781 -1.31836 -3.36914 -3.95508 -4.83398s-5.27344 -2.19727 -7.91016 -2.19727s-16.8457 1.46484 -42.627 4.39453s-41.4551 4.6875 -47.0215 5.27344s-10.6934 0.878906 -15.3809 0.878906v8.78906c9.375 0 25.1953 -1.17188 47.4609 -3.51562
s38.2324 -3.66211 47.9004 -3.95508s15.6738 -0.732422 18.0176 -1.31836s3.51562 -1.75781 3.51562 -3.51562zM431.558 134.834c-11.1328 1.17188 -43.6523 4.6875 -97.5586 10.5469v-9.66797c7.61719 0 25.1953 -1.61133 52.7344 -4.83398
s44.5312 -5.12695 50.9766 -5.71289s10.4004 -1.61133 11.8652 -3.07617s3.07617 -2.19727 4.83398 -2.19727s5.85938 2.49023 12.3047 7.4707s9.66797 8.20312 9.66797 9.66797s-1.61133 2.7832 -4.83398 3.95508s-9.52148 14.0625 -18.8965 38.6719l-12.3047 0.878906
c4.6875 -13.4766 7.61719 -23.7305 8.78906 -30.7617s1.31836 -11.5723 0.439453 -13.623s-6.88477 -2.49023 -18.0176 -1.31836z" />
</svg>
