<?xml version="1.0" standalone="no"?>
<!DOCTYPE svg PUBLIC "-//W3C//DTD SVG 1.1//EN" "http://www.w3.org/Graphics/SVG/1.1/DTD/svg11.dtd" >
<svg xmlns="http://www.w3.org/2000/svg" xmlns:xlink="http://www.w3.org/1999/xlink" version="1.1" viewBox="-10 0 1010 1000">
   <path fill="currentColor"
d="M371.708 195.651c-6.5918 -0.439453 -10.5469 0.65918 -11.8652 3.2959s-0.219727 4.83398 3.2959 6.5918s6.37207 6.81152 8.56934 15.1611s4.1748 16.9189 5.93262 25.708s2.63672 18.0176 2.63672 27.6855l13.1836 -1.31836
c-3.51562 -46.582 -6.37207 -70.9717 -8.56934 -73.1689s-6.5918 -3.51562 -13.1836 -3.95508zM462.675 240.476c0.439453 2.19727 -15.6006 12.085 -48.1201 29.6631s-50.3174 26.3672 -53.3936 26.3672s-6.81152 -2.19727 -11.2061 -6.5918
s-6.5918 -8.12988 -6.5918 -11.2061s2.85645 -4.39453 8.56934 -3.95508s9.8877 0.219727 12.5244 -0.65918s19.5557 -7.25098 50.7568 -19.1162s47.0215 -16.6992 47.4609 -14.502zM427.738 202.902v-7.91016c16.6992 -4.39453 26.1475 -6.5918 28.3447 -6.5918
s5.05371 0.65918 8.56934 1.97754s5.27344 3.07617 5.27344 5.27344s-1.75781 3.95508 -5.27344 5.27344s-15.8203 1.97754 -36.9141 1.97754zM447.514 82.9316c1.75781 0 4.61426 0.65918 8.56934 1.97754s8.34961 3.73535 13.1836 7.25098
s6.81152 6.37207 5.93262 8.56934s-3.2959 4.39453 -7.25098 6.5918s-8.12988 15.1611 -12.5244 38.8916h-14.502c2.63672 -25.4883 3.2959 -38.8916 1.97754 -40.21s-4.39453 -1.97754 -9.22852 -1.97754s-9.8877 0.65918 -15.1611 1.97754
s-15.3809 2.85645 -30.3223 4.61426v-10.5469c14.0625 -0.878906 25.708 -2.85645 34.9365 -5.93262s15.1611 -5.71289 17.7979 -7.91016s4.83398 -3.2959 6.5918 -3.2959zM396.098 150.168l2.63672 7.91016c21.9727 -1.75781 37.5732 -3.73535 46.8018 -5.93262
s12.5244 -6.37207 9.8877 -12.5244zM416.532 177.854c1.31836 7.03125 1.53809 33.8379 0.65918 80.4199l13.1836 -3.95508c0 -25.4883 0.878906 -45.0439 2.63672 -58.667s2.41699 -22.4121 1.97754 -26.3672s-4.1748 -7.69043 -11.2061 -11.2061
s-11.4258 -4.83398 -13.1836 -3.95508s-1.53809 3.2959 0.65918 7.25098s3.95508 9.44824 5.27344 16.4795zM375.663 98.0928c3.07617 -1.31836 9.8877 -0.65918 20.4346 1.97754c7.03125 32.5195 10.1074 51.416 9.22852 56.6895s-2.41699 8.34961 -4.61426 9.22852
s-5.05371 -4.39453 -8.56934 -15.8203s-5.93262 -20.2148 -7.25098 -26.3672s-3.95508 -11.6455 -7.91016 -16.4795s-4.39453 -7.91016 -1.31836 -9.22852z" />
</svg>
