<?xml version="1.0" standalone="no"?>
<!DOCTYPE svg PUBLIC "-//W3C//DTD SVG 1.1//EN" "http://www.w3.org/Graphics/SVG/1.1/DTD/svg11.dtd" >
<svg xmlns="http://www.w3.org/2000/svg" xmlns:xlink="http://www.w3.org/1999/xlink" version="1.1" viewBox="-10 0 1009 1000">
   <path fill="currentColor"
d="M417.268 406.61v0c-6.31055 17.4961 -36.8613 136.676 -52.1416 157.271c-6.59766 8.8916 -12.6211 16.0625 -18.0713 21.5117c-5.44922 5.16406 -9.32129 7.74512 -11.6162 7.74512c-2.00781 0 -3.01172 -0.860352 -3.01172 -2.58105
c0 -2.00781 2.86816 -7.45801 8.60449 -16.3496c28.1104 -43.3125 59.8867 -179.357 63.3281 -232.135v-5.59375c0 -7.1709 -0.860352 -12.6211 -2.58105 -16.3486c-1.43457 -3.72949 -2.15137 -6.74121 -2.15137 -9.03613s1.43457 -3.44141 4.30273 -3.44141
c2.86719 0 10.8994 2.72461 24.0938 8.17383l138.863 -4.73242h3.87305c5.16309 0 9.32227 1.43457 12.4775 4.30273s4.73242 5.44922 4.73242 7.74512c0 2.00781 -0.430664 3.72754 -1.29004 5.16211c-0.574219 1.43457 -1.00488 2.86914 -1.29199 4.30371
l-3.87207 27.9658c6.88379 6.59668 10.3262 11.1865 10.3262 13.7686c0 2.29395 -1.43457 3.58496 -4.30273 3.87109c-2.58105 0.287109 -5.30566 0.574219 -8.1748 0.861328c0 0 -156.48 6.36328 -156.504 6.45312c-0.870117 0.0605469 -2.43848 11.3301 -5.59277 21.083v0
v0zM560.863 331.315l-131.117 4.30371c-0.287109 6.59668 -1.29102 16.3486 -3.01172 29.2568l131.55 -4.30273z" />
</svg>
