<?xml version="1.0" standalone="no"?>
<!DOCTYPE svg PUBLIC "-//W3C//DTD SVG 1.1//EN" "http://www.w3.org/Graphics/SVG/1.1/DTD/svg11.dtd" >
<svg xmlns="http://www.w3.org/2000/svg" xmlns:xlink="http://www.w3.org/1999/xlink" version="1.1" viewBox="-10 0 1009 1000">
   <path fill="currentColor"
d="M603 410c0 0 -65 -28 -83.4424 -43.4941l50.9424 -2.52832c5.05859 -0.482422 7.58691 -1.80664 7.58691 -3.97461s-1.32324 -4.57617 -3.97363 -7.22559s-5.54102 -4.9375 -8.6709 -6.86523c-3.13086 -1.92676 -5.41895 -2.88965 -6.86426 -2.88965
s-3.49219 0.601562 -6.1416 1.80566c-2.40918 0.963867 -7.10547 1.56641 -14.0908 1.80664l-27.0957 1.44531l-0.25 -16.0801l0.249023 -8.42969c0.0771484 -2.62695 -0.602539 -4.69727 -1.80664 -6.1416c-1.2041 -1.44531 -4.57617 -3.13184 -10.1162 -5.05859
c-5.29883 -1.92676 -9.51367 -2.89062 -12.6445 -2.89062s-4.69629 0.84375 -4.69629 2.5293c0 0.722656 0.601562 1.92676 1.80566 3.61328c4.09473 5.29883 6.00684 11.5977 6.1416 18.7871v0l0.0673828 3.59082v0l-0.0673828 11.1641l-38.6582 2.16797h-2.89062
c-6.02148 0 -10.3564 -0.361328 -13.0059 -1.08398c-2.40918 -0.962891 -4.21582 -1.44531 -5.41992 -1.44531c-0.962891 0 -1.44531 0.722656 -1.44531 2.16797c0 4.33496 3.25195 9.75488 9.75488 16.2578c1.92676 1.92676 5.66016 2.88965 11.2002 2.88965
l10.4775 -0.360352l20.2324 -1.08398c-20.1777 21.3262 -27.8906 19.6807 -62.5742 50.752c-4.81738 4.09473 -7.22559 7.10449 -7.22559 9.03223c0 1.20508 6.21289 1.54199 8.62207 1.54199c2.4082 0 70.5879 -45.0781 71.2939 -42.5391s0 30.749 0 30.749
c0 7.94727 -0.481445 13.9678 -1.44531 18.0635s-1.44531 6.98633 -1.44531 8.67188c0 1.68457 1.08398 3.7334 3.25195 6.14062c5.53906 5.29883 10.959 7.94922 16.2578 7.94922c3.13086 0 4.69629 -3.37305 4.69629 -10.1162v0s2.39062 -52.9189 0 -64.71
s70.3906 41.791 70.2979 41.7197zM602.139 413.645c0 1.68555 -1.44434 3.6123 -4.33594 5.78027c-2.65039 1.92871 -5.54004 3.49121 -8.66992 4.69727c-2.89062 1.20508 -5.29785 1.80664 -7.22559 1.80664z" />
</svg>
