<?xml version="1.0" standalone="no"?>
<!DOCTYPE svg PUBLIC "-//W3C//DTD SVG 1.1//EN" "http://www.w3.org/Graphics/SVG/1.1/DTD/svg11.dtd" >
<svg xmlns="http://www.w3.org/2000/svg" xmlns:xlink="http://www.w3.org/1999/xlink" version="1.1" viewBox="-10 0 1009 1000">
   <path fill="currentColor"
d="M371.776 597.873v-0.000976562c-0.0449219 6.37598 0.665039 11.3223 1.99707 14.7861c1.33203 3.46289 4.66211 5.86035 9.99023 7.19238c5.59375 1.33398 132.145 1.99902 148.128 1.99902c15.9844 0 87.1504 -1.99902 90.6123 -5.99512
c5.85938 -5.59375 10.7891 -24.376 14.7852 -56.3447c1.06543 -10.6562 3.33105 -15.9844 6.79297 -15.9844c3.73145 0 5.86035 6.52734 6.39453 19.5811v23.1777c0 9.85645 -0.399414 19.3145 -1.19922 28.3721c-0.798828 8.79102 -3.19629 15.4502 -7.19238 19.9805
c-3.73047 4.79492 -10.124 7.99219 -19.1816 9.59082c-8.79102 1.86328 -81.5557 2.79785 -95.4072 2.79785c-13.5859 0 -140.801 -0.800781 -150.126 -2.39844c-9.05762 -1.33301 -16.3838 -5.19531 -21.9785 -11.5889
c-5.59473 -6.12891 -8.3916 -16.3838 -8.3916 -30.7695l1.99805 -154.139c0 -6.92676 -1.06543 -11.7217 -3.19727 -14.3857c-1.86523 -2.93066 -2.79688 -4.92871 -2.79688 -5.99414c0 -2.13086 1.46484 -3.19727 4.39453 -3.19727
c2.93066 0 6.52734 0.399414 10.79 1.19922c10.6562 2.13086 15.9844 9.98926 15.9844 9.98926s-2.41211 162.368 -2.39648 162.132v0z" />
</svg>
