<?xml version="1.0" standalone="no"?>
<!DOCTYPE svg PUBLIC "-//W3C//DTD SVG 1.1//EN" "http://www.w3.org/Graphics/SVG/1.1/DTD/svg11.dtd" >
<svg xmlns="http://www.w3.org/2000/svg" xmlns:xlink="http://www.w3.org/1999/xlink" version="1.1" viewBox="-10 0 1010 1000">
   <path fill="currentColor"
d="M329.938 635.156c-8.9375 22.8438 -29.9375 55.8438 -47.9688 74.2969c-30.833 31.5547 -58.5928 49.0625 -58.5928 51.4053c0 0.473633 0.344727 0.683594 0.957031 0.683594c4.2627 0 21.4688 -10.1943 24.8857 -12.2451
c15.625 -9.375 35.8799 -25.0791 58.5938 -49.2188c14.1875 -15.0781 28.1875 -34.0781 35.0781 -47.3438c14.3369 -27.6016 23.0469 -58.5938 29.2969 -91.4062s9.54004 -58.9697 10.8125 -86.3281c2 -43 3 -75 3.25 -126.953
c-18.2295 -6.51074 -21.0391 -9.76562 -24.6348 -9.76562c-0.71875 0 -1.46973 0.129883 -2.38086 0.390625c-3.48047 0.994141 -5.21973 4.67773 -5.21973 11.0508c0 3.6416 0.567383 8.16113 1.7041 13.5586c3.125 14.8438 5.46875 35.9375 7.03125 63.2812
c0.390625 6.83594 0.585938 13.9893 0.585938 21.46c0 22.4121 -1.75781 47.6807 -5.27344 75.8057c-4.6875 37.5 -13.7988 74.7109 -28.125 111.328zM628.438 433.578c15.5625 -53.5781 17.5625 -67.5781 25.5312 -74.9844
c8.50684 -7.90625 12.0312 -8.6875 12.0312 -12.5938s-7.32715 -7.75781 -23.75 -22.5625c-8.25 -7.4375 -11.8594 -17.9688 -17.3281 -18.75c-0.683594 -0.0976562 -1.36133 -0.146484 -2.03223 -0.146484c-4.7002 0 -9.10059 2.39258 -13.2021 7.17773
c-4.6875 5.46875 -55.6875 15.2812 -109.688 22.2656c-48.9287 6.32812 -105.156 14.0625 -130.156 14.0625v17.0938c23.1562 -1.14062 80.165 -6.64648 126.641 -11.7188c36.3242 -3.96484 89.4033 -9.6123 103.938 -9.6123c1.67676 0 2.84082 0.0751953 3.40625 0.237305
c0.671875 0.191406 22.3145 7.41992 22.3145 13.1357c0 8.2334 -10.7021 49.5684 -19.2051 76.1455zM626 440c-6.25 1.5625 -69 6 -111 10c-60.208 5.73438 -137 8 -142 8v-13c5 -1 72.3232 -4.65332 133 -11c39.1406 -4.09375 97.4658 -10.9014 109 -11
c0.457031 -0.00390625 8.39551 0.848633 9 1c8 2 13.5625 3.48633 13.5625 7.125c0 3.90625 -5.3125 7.3125 -11.5625 8.875z" />
</svg>
