<?xml version="1.0" standalone="no"?>
<!DOCTYPE svg PUBLIC "-//W3C//DTD SVG 1.1//EN" "http://www.w3.org/Graphics/SVG/1.1/DTD/svg11.dtd" >
<svg xmlns="http://www.w3.org/2000/svg" xmlns:xlink="http://www.w3.org/1999/xlink" version="1.1" viewBox="-10 0 1010 1000">
   <path fill="currentColor"
d="M462.917 418.415c0 4.375 -0.436523 7.21875 -1.3125 8.53223c-0.875977 1.3125 -2.625 1.96875 -5.25 1.96875s-6.12598 -2.40625 -10.5 -7.21875c-4.37402 -4.81348 -7.43848 -9.40723 -9.1875 -13.7812c-1.74902 -4.375 -2.40527 -7.21875 -1.96875 -8.53223
c0.436523 -1.3125 3.06152 -1.74902 7.875 -1.3125c4.81348 0.4375 9.40723 2.84473 13.7812 7.21875c4.37402 4.375 6.56348 8.75098 6.56348 13.125h-0.000976562zM469.854 312.979c6.99902 0 14.001 1.74902 21 5.25c6.99902 3.5 11.1562 6.34277 12.4688 8.53125
c1.3125 2.1875 1.96875 5.68652 1.96875 10.5c0 4.8125 -1.3125 8.31152 -3.9375 10.5c-2.625 2.1875 -6.12598 2.1875 -10.5 0c-4.37402 -2.18848 -10.9365 -7.65625 -19.6875 -16.4062c-8.75098 -8.75098 -12.9053 -14.001 -12.4688 -15.75
c0.436523 -1.75 4.15723 -2.625 11.1562 -2.625v0zM386.893 397.041c-2.625 0 -7.875 -2.625 -15.75 -7.875s-10.2812 -7.875 -7.21875 -7.875c3.06152 0 13.5615 -1.3125 31.5 -3.9375c17.9375 -2.625 92.1816 -13.625 109.681 -15.8125
c17.499 -2.18848 61.3125 -9.5625 75.0928 -12.1875c15.0508 -2.86719 31.2061 -8.09473 42.582 -3.28125c11.375 4.8125 17.0625 8.96777 17.0625 12.4688c0 3.5 -1.75 5.68652 -5.25 6.5625c-3.50098 0.875 -9.84375 0.875 -19.0312 0
c-9.1875 -0.875977 -20.2695 -1.3125 -26.832 -1.3125c-6.56152 0 -24.3428 3.43652 -37.0312 4.3125c-12.6875 0.875 -26.0537 3.79492 -50.5312 7.875c-15.75 2.625 -72.0547 11.2188 -87.3682 15.1562s-24.2812 5.90625 -26.9062 5.90625h0.000976562zM559.574 395.01
c3.9375 -3.0625 6.125 -6.34375 6.5625 -9.84375c0.436523 -3.50098 -2.84473 -7.43848 -9.84375 -11.8125c-7 -4.375 -11.8125 -5.6875 -14.4375 -3.9375c-2.625 1.74902 -2.84473 3.71777 -0.65625 5.90625c2.1875 2.1875 0 9.62402 -6.5625 22.3125
c-6.5625 12.6875 -13.3447 24.2812 -20.3438 34.7812h10.5c19.25 -21.876 30.8438 -34.3447 34.7812 -37.4062v0zM632.822 785.553c-3.9375 4.375 -7.875 6.5625 -11.8125 6.5625s-5.68652 -3.71777 -5.25 -11.1562c0.4375 -7.4375 -4.59375 -15.5303 -15.0938 -24.2812
c-10.5 -8.75 -15.0938 -13.5615 -13.7812 -14.4375c1.3125 -0.875 6.5625 0.219727 15.75 3.28125c9.1875 3.0625 15.0938 3.5 17.7188 1.3125s11.4043 -14.5342 13.6465 -19.834c11 -26 10.4121 -24.1953 15 -55c7 -47 5.37793 -82.918 6 -105
c2 -71 -1.74023 -114.11 -3.92773 -118.484s-7.4375 -6.78223 -15.75 -7.21875c-8.31152 -0.436523 -139.322 9.70312 -280.868 26.4062c-6.74414 0.795898 -6.71582 -16.4033 0 -17.4121c48.5459 -7.29102 143.431 -17.2188 176.243 -21.1562
s110.312 -7.21875 112.5 -9.84375c2.18848 -2.625 4.375 -3.9375 6.5625 -3.9375c2.18848 0 8.09473 2.84375 17.7188 8.53125c9.625 5.68652 14.4375 9.40625 14.4375 11.1562c0 1.74902 -1.53125 3.71777 -4.59375 5.90625
c-3.06152 2.1875 -3.40234 25.6885 -2.32227 44.0527c1 17 3 72 2 125c-0.0722656 3.80762 -2.00098 49 -13 95c-10.708 44.7812 -18.709 54.3027 -21.334 62.1777s-5.90625 14.001 -9.84375 18.375v0z" />
</svg>
