<?xml version="1.0" standalone="no"?>
<!DOCTYPE svg PUBLIC "-//W3C//DTD SVG 1.1//EN" "http://www.w3.org/Graphics/SVG/1.1/DTD/svg11.dtd" >
<svg xmlns="http://www.w3.org/2000/svg" xmlns:xlink="http://www.w3.org/1999/xlink" version="1.1" viewBox="-10 0 1010 1000">
   <path fill="currentColor"
d="M296 370c64 -33 72 -48 72 -48s-1.90723 -9.73438 2 -12.0781s10.5469 -1.95215 19.9219 1.17188s18.8057 7.68945 26.9531 15.2344c6.125 5.67188 1.76855 16.7061 -0.875 20.6719c-2 3 -14.7158 6.74219 -56 22.0625c-16 5.9375 -58 19.9375 -80.8594 24.6094
c-39.5449 8.08203 -58.5938 12.8906 -58.5938 8.20312s54.3604 -22.5 75.4531 -31.875zM265.953 526.876c-7.61328 1.5791 -27.9531 4.12402 -37.5 4.10938c-19.2158 -0.0292969 -21.4854 -13.2822 -12.8906 -14.0625s67.0938 -11.9219 87.0156 -16.6094
c24.3848 -5.73828 43.0615 -9.1875 60.9375 -14.0625c12.8906 -3.51562 29.6318 -7.78809 39.4844 -10.251c4 -1 20.0605 -2.20508 27.3125 5.56348c2.12598 2.27637 6.22656 6.4043 1.6875 6.43652c-6.31738 0.0449219 -2.7041 -0.575195 -18 3
c-14.7695 3.45215 -21.1875 4.8125 -32.9062 6.37598s-41.0156 9.375 -57.4219 14.0625c-18.583 5.30957 -33.6719 9.56152 -33.6719 9.56152s-15 4 -24.0469 5.87598zM344 637c5.46777 25.001 29.2822 38.7803 53.5 45.0312s93.0479 9.375 119.609 9.375
c26.5605 0 114.53 -1.56348 130.156 -4.6875s61.5625 -7.81152 70.9375 -14.0625s16.8193 -6.50781 21.0938 -40.9375c1.70312 -13.7188 5.9834 -30.5625 9.89062 -30.5625s9.8125 16.8438 10.8906 32.9062c2.42676 36.1592 1.75879 39.6934 9.40625 47.9688
c5.51562 5.96875 1.51562 11.9688 -12.9531 15.6406c-26.0771 6.61816 -120.155 15.9844 -154.531 18.3281s-103.908 2.74316 -128.251 1.59375c-33.749 -1.59375 -92.6562 -10.1553 -109.062 -21.0938c-16.4053 -10.9385 -28.9053 -25.001 -37.5 -42.1875
s-11.7188 -58.6865 -9.375 -116.5s1.17188 -115.624 -3.51562 -173.438c31.249 17.1865 29.9238 24.5947 30.7041 31.626s2.90723 18.9688 -1 26s-2.65625 35.5615 -5 84s-0.467773 105.999 5 131v0z" />
</svg>
