<?xml version="1.0" standalone="no"?>
<!DOCTYPE svg PUBLIC "-//W3C//DTD SVG 1.1//EN" "http://www.w3.org/Graphics/SVG/1.1/DTD/svg11.dtd" >
<svg xmlns="http://www.w3.org/2000/svg" xmlns:xlink="http://www.w3.org/1999/xlink" version="1.1" viewBox="-10 0 1010 1000">
   <path fill="currentColor"
d="M375.391 374.875c-35.1562 6.25098 -55.8584 8.9834 -62.1094 8.20312s-15.626 -5.0791 -28.125 -12.8906s-10.75 -4.89062 -10.75 -7.23438s7.42285 -3.51562 22.2656 -3.51562s42.9678 -2.34375 84.375 -7.03125s78.9072 -9.375 112.5 -14.0625
s64.0615 -9.375 91.4062 -14.0625s49.2188 -9.375 65.625 -14.0625s29.6885 -7.03125 39.8438 -7.03125s24.6094 4.2959 43.3594 12.8906s21.6885 8.79785 24.8125 16.6094s1.17188 11.3271 -5.85938 10.5469s-35.9365 -0.780273 -86.7188 0
s-90.626 2.73535 -119.53 5.85938c-28.9053 3.12402 -55.8584 6.63965 -80.8594 10.5469s-55.0781 8.9834 -90.2344 15.2344h-0.000976562zM626.172 474.484c-2.34375 -17.9697 -7.09961 -105.329 -11.7188 -113.673c-4.32324 -7.81152 -4.71484 -15.626 -1.17188 -23.4375
c29.6885 6.25098 34.7031 11.7197 37.0469 16.4062c2.34375 4.6875 3.51562 9.7666 3.51562 15.2344s-2.37109 42.3965 -2.34375 57.4219c0.0273438 14.8438 -0.0253906 104.298 0 172.267c0.0253906 68.04 3.90723 113.28 2.34375 135.938
c-1.56348 22.6582 -8.42383 40.1807 -16.4062 55.0781c-4.4375 8.28125 -7.75 15.2812 -12.4375 15.2812s-7.03125 -0.438477 -11.7188 -12.9375s-7.79785 -24.6094 -27.3281 -36.3281s-20.6885 -18.5303 -21.4688 -22.4375s0.375 -4.90723 21.4688 -1
s25.7646 5.0791 32.0156 3.51562s10.5469 -9.375 12.8906 -23.4375s2.73535 -52.7344 1.17188 -116.016s-3.51562 -103.905 -5.85938 -121.875v0z" />
</svg>
