<?xml version="1.0" standalone="no"?>
<!DOCTYPE svg PUBLIC "-//W3C//DTD SVG 1.1//EN" "http://www.w3.org/Graphics/SVG/1.1/DTD/svg11.dtd" >
<svg xmlns="http://www.w3.org/2000/svg" xmlns:xlink="http://www.w3.org/1999/xlink" version="1.1" viewBox="-10 0 1010 1000">
   <path fill="currentColor"
d="M373.524 418.238c10.3711 -12.9268 17.9453 -23.4912 22.7236 -31.6924c4.77734 -8.20117 6.06641 -14.1611 3.86621 -17.8809s-1.37207 -5.71582 2.48438 -5.98828c3.85547 -0.271484 19.0283 2.78223 25.5195 9.16309
c6.49023 6.37988 -0.469727 12.9629 -0.578125 16.2754c-0.108398 3.31348 -6.08105 11.541 -17.9189 24.6855c-11.8389 13.1445 -25.835 26.3838 -41.9893 39.7188c-16.1562 13.335 -29.4189 22.4199 -39.79 27.2549c-10.3721 4.83398 -15.9766 4.70117 -17.1182 3.07129
c-1.14062 -1.62891 6.44824 -9.57129 22.7646 -23.8301c16.3174 -14.2588 29.665 -27.8506 40.0361 -40.7773h-10.001h10.001v0zM678.406 783.203c-5.46875 33.5938 -11.7471 61.3896 -23.4375 80.8594c-8.96875 14.9375 -11.125 18.7344 -20.9688 26.9375
c-4.5 3.75 -11.75 8 -18 8s-10.2861 -4.8584 -14 -16c-3 -9 -7 -15 -17.9531 -22.4531c-21.8555 -14.8721 -27.2031 -24.2188 -27.9844 -28.125s19.9375 0.578125 31.5 3.51562c25.7109 6.53223 30.0156 8.98438 34.7031 8.20312s10.5469 -10.1562 17.5781 -28.125
s33.2812 -136.25 38.75 -194.844c5.46875 -58.5947 7.8125 -99.2188 7.03125 -121.875s-8.73438 -42.1094 -11.8594 -48.3594s-69.4883 -10.1299 -89.7656 -8.9375c-17 1 -28 2 -84.3711 8c-52.626 5.60156 -96.4277 15.2188 -104.238 13.6562
c-7.8125 -1.56348 -17.9688 -7.71875 -30.4688 -26.4688c37.5 0 103.473 -5.28125 134.723 -9.1875s61.8867 -6.875 92.3555 -10s66.6719 -3.46875 71.3594 -6.59375s10.1562 -4.29688 16.4062 -3.51562s4.96875 7.42188 22.1562 19.9219s25.7812 21.0938 25.7812 25.7812
c0 4.68652 -2.34375 8.59375 -7.03125 11.7188s-8.20312 35.1562 -10.5469 96.0938s-26.25 188.2 -31.7188 221.797v0v0v0zM314.719 325.938c3.12402 -2.34375 3.40625 0.391602 26.8438 8.20312c1.4375 61.8584 -2.82227 73.5947 -3.20312 77.5605
c-0.286133 2.97754 -2.35938 2.29785 -4.35938 1.29785c-7.42871 -3.71387 -5.78906 -3.68066 -7 -16.999c-2 -22.001 -1 -11.001 -2 -21.001c-1.87207 -18.7207 -3.09277 -26.1875 -7 -34c-3.90723 -7.81152 -6.40527 -12.7188 -3.28125 -15.0625v0.000976562zM497 409
c8 -13 10 -20 13 -28.0625c3.09961 -8.33008 7 -17.9375 9.0625 -23.3594c2.35645 -6.19531 10.0312 -8.9834 10.0312 -12.8906s-4.63965 -10.1553 -17.9219 -18.75s-3.4375 -13.6709 -10.4688 -15.2344s-12.499 -0.391602 -16.4062 3.51562
s-50.3906 5.85938 -80.8594 10.5469s-60.3115 9.375 -80.625 9.375v9.75c17.1865 0 50.9365 -2.34375 85.3125 -7.03125s79.6875 -4.6875 84.375 0s7.5 7.10938 7.5 14.1406c0 5.13184 -5 23 -6.32812 27.5938c-3.43164 11.8682 -12.8906 16.7979 -26.9531 15.2344
c12.2412 21.0977 19.2812 22.1719 24.2812 23.1719zM479.609 395z" />
</svg>
