<?xml version="1.0" standalone="no"?>
<!DOCTYPE svg PUBLIC "-//W3C//DTD SVG 1.1//EN" "http://www.w3.org/Graphics/SVG/1.1/DTD/svg11.dtd" >
<svg xmlns="http://www.w3.org/2000/svg" xmlns:xlink="http://www.w3.org/1999/xlink" version="1.1" viewBox="-10 0 1009 1000">
   <path fill="currentColor"
d="M441.987 352.79c-1.21484 0.152344 -2.35352 0.228516 -3.41699 0.228516h-2.50488c-5.16406 0 -9.03613 -2.65723 -11.6182 -7.97363c-0.911133 -1.97363 -1.36621 -3.26465 -1.36621 -3.87207c0 -1.0625 0.53125 -1.59473 1.59375 -1.59473
c1.21582 0 2.6582 0.227539 4.32812 0.683594c1.82227 0.455078 4.4043 0.683594 7.74512 0.683594h2.27832l42.1426 -2.27832l-0.456055 -19.5908c0 -2.7334 -0.683594 -4.93555 -2.0498 -6.60547c-1.06348 -1.6709 -1.59473 -2.73438 -1.59473 -3.18945
c0 -0.456055 0.53125 -0.683594 1.59473 -0.683594c1.21484 0 2.50586 0.152344 3.87207 0.456055c1.36719 0.151367 3.26562 0.455078 5.69531 0.911133c2.58203 0.456055 4.32812 1.0625 5.23926 1.82227c1.06348 0.758789 1.59473 2.0498 1.59473 3.87207
l-0.228516 22.0967l37.8154 -2.05078c2.88379 -0.302734 5.16211 -0.682617 6.83301 -1.13867c1.67188 -0.607422 3.26562 -0.911133 4.78418 -0.911133c1.51758 0 3.1123 0.759766 4.7832 2.27832c1.82227 1.36719 3.2666 2.80957 4.32812 4.32812
c1.0625 1.51855 1.59473 2.58203 1.59473 3.18945c0 1.97363 -1.82227 3.11328 -5.4668 3.41602zM417.228 395.844v0c-5.75586 0.419922 -13.5264 -0.839844 -14.8066 -10.4785c-0.342773 -2.57227 -1.36719 -4.10059 -1.36719 -5.01172s0.53125 -1.36621 1.59375 -1.36621
c1.21582 0 5.84766 1.66992 13.8955 5.01074l56.4248 -1.59375c-1.0625 -0.607422 -2.80957 -2.7334 -5.23926 -6.37891c-2.42969 -3.64453 -5.01172 -6.91016 -7.74512 -9.79492s-4.10059 -4.7832 -4.10059 -5.69434c0 -0.912109 0.759766 -2.27832 2.27832 -4.10059
c1.6709 -1.82227 3.26465 -2.73438 4.78418 -2.73438c1.51855 0 5.01074 3.18945 10.4785 9.56836c5.61816 6.37793 8.42773 10.5537 8.42773 12.5283c0 1.82227 -1.66992 3.94824 -5.01074 6.37793l14.123 -0.911133c10.4785 -12.7568 15.7178 -21.7158 15.7178 -26.8799
v-1.59473c0 -1.82227 0.683594 -2.7334 2.0498 -2.7334c0.304688 0 1.44336 0.379883 3.41797 1.13965c5.92188 2.27734 8.88379 4.93457 8.88379 7.97266c0 3.34082 -5.77148 10.4785 -17.3125 21.4131l95.4355 -1.82227l3.41699 -0.228516
c2.12695 0 4.17676 0.911133 6.15039 2.7334c1.97363 1.6709 2.96094 3.26562 2.96094 4.78418l-1.36621 5.4668l-6.45605 240.104v5.23926c0 4.09961 -1.06152 7.28906 -3.18848 9.56738c-1.97363 2.27832 -3.94922 3.41699 -5.92285 3.41699
c-1.82227 0 -4.25195 -0.683594 -7.28906 -2.0498c-2.88574 -1.36719 -6.15039 -3.11328 -9.7959 -5.24023c-3.64453 -1.97266 -7.28906 -4.17578 -10.9346 -6.60645c-3.49219 -2.27734 -6.37793 -4.4043 -8.65527 -6.37793
c-2.27832 -1.97266 -3.41699 -3.49316 -3.41699 -4.55566s0.834961 -1.59473 2.50586 -1.59473c1.66992 0 5.54297 1.21582 11.6172 3.64453c6.0752 2.42969 13.1357 4.47949 21.1846 6.15039l6.91113 -242.152s-179.736 4.7832 -179.65 4.7832v0z" />
</svg>
