<?xml version="1.0" standalone="no"?>
<!DOCTYPE svg PUBLIC "-//W3C//DTD SVG 1.1//EN" "http://www.w3.org/Graphics/SVG/1.1/DTD/svg11.dtd" >
<svg xmlns="http://www.w3.org/2000/svg" xmlns:xlink="http://www.w3.org/1999/xlink" version="1.1" viewBox="-10 0 1010 1000">
   <path fill="currentColor"
d="M722.656 608.906c4.6875 0 4.20312 6.40625 6.54688 39.2188s10.251 25.0781 15.7188 36.7969s-10.1719 17.6572 -28.9219 27.8125s-32.4072 13.1865 -58.9688 17.0938s-128.126 5.85938 -164.062 5.85938c-35.9355 0 -109.765 -2.34375 -127.733 -7.03125
c-17.9697 -4.6875 -34.376 -9.28223 -49.2188 -21.7812s-14.1729 -14.2969 -21.9844 -35.3906s-13.7188 -71.4844 -13.7188 -151.172s2.21973 -128.906 0.65625 -147.656s-3.6875 -30.0771 -8.375 -33.9844s-5.85938 -7.81152 -3.51562 -11.7188
s7.81152 -5.0791 16.4053 -3.51562c8.59473 1.56348 11.5156 5.5625 16.5156 9.5625c9.31152 7.44922 13.2354 13.4834 14.0156 17.3906s-0.391602 8.59473 -3.51562 14.0625s-5.0791 14.8428 -5.85938 28.125s-1.56348 32.8125 -2.34375 58.5938
s-1.56348 50.7822 -2.34375 75s-0.391602 49.2188 1.17188 75s5.85938 46.4834 12.8906 62.1094s19.9219 32.9531 38.6719 39.9844s93.75 10.5469 131.25 10.5469s135.547 -2.56348 153.517 -5.6875s32.4209 -7.20312 43.3594 -14.2344s22.1416 -12.9531 27.6094 -45.7656
s7.54688 -39.2188 12.2344 -39.2188h-0.000976562z" />
</svg>
