<?xml version="1.0" standalone="no"?>
<!DOCTYPE svg PUBLIC "-//W3C//DTD SVG 1.1//EN" "http://www.w3.org/Graphics/SVG/1.1/DTD/svg11.dtd" >
<svg xmlns="http://www.w3.org/2000/svg" xmlns:xlink="http://www.w3.org/1999/xlink" version="1.1" viewBox="-10 0 1009 1000">
   <path fill="currentColor"
d="M617.828 641.9l0.302734 9.97266c0 4.43164 -1.51172 8.05664 -4.5332 10.8779c-2.82031 3.02148 -5.63965 4.53223 -8.45996 4.53223s-6.54688 -1.20898 -11.1797 -3.62598c-4.63477 -2.2168 -9.77051 -5.13672 -15.4111 -8.7627s-11.0791 -7.45312 -16.3164 -11.4824
c-5.03613 -4.0293 -9.2666 -7.65527 -12.6914 -10.8779c-3.22266 -3.22266 -4.83398 -5.63965 -4.83398 -7.25098c0 -1.6123 1.00684 -2.41797 3.02148 -2.41797s7.45312 2.31641 16.3164 6.9502s20.2451 8.86426 34.1455 12.6904v-266.901l-177.637 2.71875
c-1.20801 0.201172 -2.41797 0.302734 -3.625 0.302734h-5.43945c-2.2168 0 -5.33887 -0.806641 -9.36719 -2.41699c-3.82617 -1.6123 -6.74805 -6.44727 -8.7627 -14.5049v-1.20801c0 -1.00781 0.404297 -1.51172 1.20898 -1.51172
c0.805664 0 2.41797 0.404297 4.83496 1.20898c2.41699 0.604492 5.84082 0.90625 10.2725 0.90625h2.7207l225.178 -6.94922c5.84375 -0.40332 9.66992 -0.90625 11.4834 -1.51074c1.8125 -0.604492 3.22168 -0.90625 4.23047 -0.90625
c1.00781 0 2.82031 0.90625 5.43848 2.71875c7.05176 4.83496 10.5762 8.96484 10.5762 12.3896c0 2.21484 -2.61914 3.52441 -7.85742 3.92773l-43.6152 3.625v267.507v0v-0.000976562z" />
</svg>
