<?xml version="1.0" standalone="no"?>
<!DOCTYPE svg PUBLIC "-//W3C//DTD SVG 1.1//EN" "http://www.w3.org/Graphics/SVG/1.1/DTD/svg11.dtd" >
<svg xmlns="http://www.w3.org/2000/svg" xmlns:xlink="http://www.w3.org/1999/xlink" version="1.1" viewBox="-10 0 1010 1000">
   <path fill="currentColor"
d="M511.328 388.906c-0.46875 15.9375 -0.234375 17.1094 0.703125 63.5156s1.17188 29.4531 0.703125 49.1406s-2.10938 29.5312 -4.92188 29.5312s-5.85938 -3.98438 -9.14062 -11.9531s-5.39062 -13.8281 -6.32812 -17.5781s0.789062 -11.7959 1.65625 -25.5625
c1.54688 -24.5469 2 -17 2.5625 -50.1406c1.01074 -59.5303 -2.34375 -58.2031 -4.21875 -76.0156s-4.6875 -27.6562 -8.4375 -29.5312s-4.92188 -4.21875 -3.51562 -7.03125s4.92188 -3.75 10.5469 -2.8125s11.4844 2.8125 17.5781 5.625s9.375 5.625 9.84375 8.4375
s-0.234375 5.85938 -2.10938 9.14062s-3.04688 12.6562 -3.51562 28.125s-0.9375 11.1719 -1.40625 27.1094v0zM574.609 386.312c-23.9062 3.75 -52.7344 8.67188 -86.4844 14.7656s-53.2031 9.14062 -58.3594 9.14062s-10.7812 -1.40625 -16.875 -4.21875
s-9.14062 -4.92188 -9.14062 -6.32812s3.04688 -2.10938 9.14062 -2.10938s18.0469 -1.875 35.8594 -5.625s41.7188 -9.375 71.7188 -16.875s50.625 -11.25 61.875 -11.25s18.75 1.40625 22.5 4.21875s5.625 5.625 5.625 8.4375s-11.9531 6.09375 -35.8594 9.84375v0z
M493.75 394.531l11.25 15.4688c-20 16 -35.1699 26.6689 -51 35c-19 10 -34.1963 16.5518 -46 22c-13 6 -16 8 -40 16c-12.332 4.11035 -41.5312 8.875 -42 7s49.3213 -27.0635 72 -39l38 -20c12.6016 -8.12988 28 -15 57.75 -36.4688v0zM616 457
c-5.15625 -1.40625 -17.5664 -6.98828 -26 -10c-14 -5 -30 -10 -44 -16c-4.68652 -2.00879 -18 -7 -41 -15.375l3 -16.625c36 9 48 12 79 22c50.4766 16.2832 55 13 79.6875 18.9844c28.1006 6.81152 40.0781 15.9375 38.6719 18.2812s-7.17188 2.39062 -19.3594 4.73438
s-21.6875 2.46875 -32 2s-23.6729 -1.85352 -27.9844 -3.70312z" />
</svg>
