<?xml version="1.0" standalone="no"?>
<!DOCTYPE svg PUBLIC "-//W3C//DTD SVG 1.1//EN" "http://www.w3.org/Graphics/SVG/1.1/DTD/svg11.dtd" >
<svg xmlns="http://www.w3.org/2000/svg" xmlns:xlink="http://www.w3.org/1999/xlink" version="1.1" viewBox="-10 0 1009 1000">
   <path fill="currentColor"
d="M451.225 496.264l31.1143 -1.37793l8.07324 -44.1113l-39.9756 2.36328c-1.0498 0.130859 -2.03418 0.197266 -2.95312 0.197266h-2.9541c-2.8877 0 -5.05469 -0.525391 -6.49805 -1.57617c-1.31348 -1.18066 -2.56055 -2.69043 -3.74219 -4.5293
c-1.0498 -1.96875 -1.5752 -3.47852 -1.5752 -4.52832c0 -1.18164 0.459961 -1.77246 1.37891 -1.77246c0.393555 0 1.24707 0.196289 2.55957 0.59082c1.44434 0.393555 3.87305 0.59082 7.28613 0.59082h2.56055l100.627 -6.10547
c2.75684 -0.261719 4.98926 -0.65625 6.69531 -1.18066c1.70703 -0.657227 2.9541 -0.985352 3.74219 -0.985352c0.787109 0 2.09961 0.59082 3.93848 1.77246c1.83789 1.18164 3.47852 2.56055 4.92285 4.13574s2.16602 2.82227 2.16602 3.74121
c0 1.70703 -1.70605 2.69141 -5.12012 2.9541l-59.0771 3.54492l-8.27051 44.1104l48.6396 -2.36328h1.18164c2.75684 0 5.12012 0.72168 7.08984 2.16602c1.96875 1.31348 2.95312 2.75684 2.95312 4.33301c0 1.5752 -0.458984 3.54395 -1.37793 5.90723l-6.30176 60.2588
l18.9053 -0.59082c2.09961 -0.131836 4.46289 -0.459961 7.08887 -0.984375c2.62598 -0.657227 4.46289 -0.985352 5.51367 -0.985352s2.49414 0.722656 4.33203 2.16602c1.96973 1.31348 3.61133 2.82324 4.92383 4.5293c1.44434 1.57617 2.16602 2.82324 2.16602 3.74219
c0 1.70605 -1.37891 2.69141 -4.13574 2.95312h-0.59082l-154.979 4.33301h-3.54492c-4.85645 0 -7.87695 -0.525391 -9.05762 -1.5752c-1.18164 -1.05078 -2.69141 -2.49512 -4.5293 -4.33301c-1.70703 -1.83789 -2.56055 -3.41309 -2.56055 -4.72559
c0 -1.31348 0.328125 -1.96973 0.984375 -1.96973c0.788086 0 1.9043 0.197266 3.34863 0.59082c1.44336 0.393555 3.67578 0.59082 6.69531 0.59082l4.52832 -0.197266l41.9453 -1.18066l11.0273 -60.6523l-22.252 0.984375
c-2.62598 0.262695 -5.12012 0.393555 -7.4834 0.393555c-2.23145 0 -4.06934 -0.72168 -5.51367 -2.16602s-2.62598 -3.15039 -3.54492 -5.12012c-0.918945 -1.96875 -1.37793 -3.21582 -1.37793 -3.74121c0 -1.05078 0.458984 -1.5752 1.37793 -1.5752
c0.394531 0 1.24707 0.261719 2.56055 0.787109c1.3125 0.393555 3.67578 0.59082 7.08887 0.59082zM541.219 503.156l-47.2617 2.16602l-11.6182 61.0459l53.1689 -1.5752z" />
</svg>
