<?xml version="1.0" standalone="no"?>
<!DOCTYPE svg PUBLIC "-//W3C//DTD SVG 1.1//EN" "http://www.w3.org/Graphics/SVG/1.1/DTD/svg11.dtd" >
<svg xmlns="http://www.w3.org/2000/svg" xmlns:xlink="http://www.w3.org/1999/xlink" version="1.1" viewBox="-10 0 1009 1000">
   <path fill="currentColor"
d="M449.616 461.155l-6.21094 0.200195c-3.07129 0 -5.3418 -0.600586 -6.81152 -1.80273c-1.33594 -1.33594 -2.4707 -3.33984 -3.40625 -6.01074c-0.93457 -2.80469 -1.40234 -4.27441 -1.40234 -4.40723c0 -0.935547 0.467773 -1.40234 1.40234 -1.40234
c0.401367 0 1.20215 0.200195 2.4043 0.600586c1.33594 0.400391 3.87402 0.601562 7.61328 0.601562h2.60449l96.3672 -5.61035c2.80469 -0.266602 5.07617 -0.667969 6.8125 -1.20215c1.73633 -0.667969 3.07129 -1.00195 4.00684 -1.00195
c1.06836 0 2.4707 0.735352 4.20703 2.2041c1.87012 1.33594 3.47266 2.87207 4.80859 4.6084c1.33594 1.60254 2.00293 2.87109 2.00293 3.80664c0 2.00293 -1.80273 3.13867 -5.40918 3.40527zM463.44 514.849l-5.81055 0.200195
c-2.93848 0 -5.00781 -0.467773 -6.20996 -1.40234c-0.935547 -0.935547 -2.1377 -2.53809 -3.60645 -4.80859c-1.46973 -2.4043 -2.2041 -4.34082 -2.2041 -5.80957c0 -1.46973 0.467773 -2.2041 1.40234 -2.2041c0.401367 0 1.40234 0.267578 3.00586 0.801758
c1.60254 0.400391 4.13965 0.600586 7.6123 0.600586h2.00391l73.3271 -3.60645c2.80469 -0.266602 5.07617 -0.667969 6.8125 -1.20215c1.73535 -0.667969 3.00488 -1.00195 3.80566 -1.00195c0.935547 0 2.33789 0.667969 4.20801 2.00391s3.47266 2.87207 4.80762 4.6084
c1.46973 1.73633 2.2041 3.20508 2.2041 4.40723c0 2.00391 -1.80273 3.13867 -5.40918 3.40625zM421.969 564.134l142.848 -4.80762c2.13672 -0.133789 4.54102 -0.467773 7.21289 -1.00195c2.67188 -0.667969 4.40723 -1.00195 5.20898 -1.00195
c0.93457 0 2.4043 0.600586 4.40723 1.80273c2.00391 1.20215 3.80664 2.67188 5.40918 4.4082c1.60352 1.73633 2.4043 3.27246 2.4043 4.60742c0 2.4043 -1.73535 3.74023 -5.20898 4.00781l-153.667 5.20898l-5.40918 0.200195
c-3.74023 0 -6.47754 -0.667969 -8.21387 -2.00391c-1.73633 -1.46875 -3.20605 -3.40527 -4.4082 -5.80957s-1.80273 -4.14062 -1.80273 -5.20898c0 -1.06934 0.333984 -1.60352 1.00195 -1.60352c0.800781 0 1.93652 0.201172 3.40527 0.601562
c1.46973 0.400391 3.74023 0.600586 6.8125 0.600586z" />
</svg>
