<?xml version="1.0" standalone="no"?>
<!DOCTYPE svg PUBLIC "-//W3C//DTD SVG 1.1//EN" "http://www.w3.org/Graphics/SVG/1.1/DTD/svg11.dtd" >
<svg xmlns="http://www.w3.org/2000/svg" xmlns:xlink="http://www.w3.org/1999/xlink" version="1.1" viewBox="-10 0 1009 1000">
   <path fill="currentColor"
d="M422.56 499.019l146.931 -7.47754c3.2334 -0.269531 5.52539 -0.673828 6.87207 -1.21289s2.4248 -0.808594 3.2334 -0.808594s2.15527 0.606445 4.04199 1.81934c1.88672 1.07812 3.57031 2.49219 5.05273 4.24414c1.61719 1.61719 2.4248 3.09863 2.4248 4.44629
c0 2.15625 -1.54883 3.36816 -4.64746 3.6377l-156.228 8.08496c-1.07812 0.133789 -2.08887 0.202148 -3.03223 0.202148h-2.4248c-2.69531 0 -4.71582 -0.47168 -6.06348 -1.41504c-2.29004 -1.88672 -3.97461 -4.17676 -5.05273 -6.87207
c-0.943359 -2.69434 -1.41406 -4.37891 -1.41406 -5.05273c0 -0.672852 0.202148 -1.00977 0.606445 -1.00977c0.538086 0 1.61621 0.269531 3.2334 0.807617c1.61621 0.404297 3.77246 0.606445 6.4668 0.606445z" />
</svg>
