<?xml version="1.0" standalone="no"?>
<!DOCTYPE svg PUBLIC "-//W3C//DTD SVG 1.1//EN" "http://www.w3.org/Graphics/SVG/1.1/DTD/svg11.dtd" >
<svg xmlns="http://www.w3.org/2000/svg" xmlns:xlink="http://www.w3.org/1999/xlink" version="1.1" viewBox="-10 0 1010 1000">
   <path fill="currentColor"
d="M558.164 313.32c5.83301 0 12.083 1.66699 18.75 5s10 6.04199 10 8.125s-6.66699 4.375 -20 6.875s-33.958 5.41699 -61.875 8.75s-42.917 5 -45 5s-6.45801 -1.25 -13.125 -3.75s-10.625 -4.79199 -11.875 -6.875s2.5 -3.125 11.25 -3.125s16.042 -0.625 21.875 -1.875
s20.833 -4.58301 45 -10s39.167 -8.125 45 -8.125zM459.414 517.07h-15c2.5 -6.66699 8.125 -24.583 16.875 -53.75s15 -52.083 18.75 -68.75s5.625 -37.083 5.625 -61.25c12.5 9.16699 19.583 15 21.25 17.5s1.04199 9.58301 -1.875 21.25s-18.125 60 -45.625 145z
M539.414 514.57c5 -16.667 10.208 -34.583 15.625 -53.75s10.208 -30.833 14.375 -35s6.25 -7.08301 6.25 -8.75s-4.375 -4.79199 -13.125 -9.375s-14.375 -6.875 -16.875 -6.875s-4.58301 1.04199 -6.25 3.125s-10.417 4.79199 -26.25 8.125s-30.417 6.25 -43.75 8.75
s-25.625 4.16699 -36.875 5s-16.875 1.875 -16.875 3.125s2.29199 3.33301 6.875 6.25s9.79199 4.375 15.625 4.375s16.875 -2.08301 33.125 -6.25s30.417 -7.29199 42.5 -9.375s19.375 -3.125 21.875 -3.125s4.16699 0.625 5 1.875s-5 31.875 -17.5 91.875h16.25z
M641.289 516.445c2.91699 4.58301 3.75 6.875 2.5 6.875s-10.625 -0.416992 -28.125 -1.25s-39.583 -1.25 -66.25 -1.25s-50.208 1.04199 -70.625 3.125s-42.083 5.41699 -65 10s-36.667 6.25 -41.25 5s-8.54199 -3.54199 -11.875 -6.875s-5 -6.25 -5 -8.75
c22.5 -1.66699 55.833 -4.79199 100 -9.375s79.375 -8.33301 105.625 -11.25s41.875 -4.375 46.875 -4.375s11.042 1.875 18.125 5.625s12.083 7.91699 15 12.5z" />
</svg>
