<?xml version="1.0" standalone="no"?>
<!DOCTYPE svg PUBLIC "-//W3C//DTD SVG 1.1//EN" "http://www.w3.org/Graphics/SVG/1.1/DTD/svg11.dtd" >
<svg xmlns="http://www.w3.org/2000/svg" xmlns:xlink="http://www.w3.org/1999/xlink" version="1.1" viewBox="-10 0 1010 1000">
   <path fill="currentColor"
d="M560.688 316.016c6.66699 0 13.333 1.66699 20 5s10 6.66699 10 10s-2.91699 5.625 -8.75 6.875s-26.667 4.375 -62.5 9.375s-56.667 7.5 -62.5 7.5s-12.292 -1.875 -19.375 -5.625s-10.208 -6.25 -9.375 -7.5s14.583 -3.95801 41.25 -8.125
s46.875 -8.125 60.625 -11.875s23.958 -5.625 30.625 -5.625zM440.062 484.766c-12.917 1.66699 -26.667 3.33301 -41.25 5s-22.917 2.5 -25 2.5s-6.45801 -2.08301 -13.125 -6.25s-10 -7.5 -10 -10s8.33301 -3.75 25 -3.75s54.792 -3.125 114.375 -9.375
s94.583 -10.417 105 -12.5s18.125 -2.70801 23.125 -1.875s10.625 3.33301 16.875 7.5s9.79199 7.5 10.625 10s0.833008 4.79199 0 6.875s-13.542 2.5 -38.125 1.25s-45.833 -1.25 -63.75 0s-36.458 2.91699 -55.625 5s-35.208 3.95801 -48.125 5.625z" />
</svg>
