<?xml version="1.0" standalone="no"?>
<!DOCTYPE svg PUBLIC "-//W3C//DTD SVG 1.1//EN" "http://www.w3.org/Graphics/SVG/1.1/DTD/svg11.dtd" >
<svg xmlns="http://www.w3.org/2000/svg" xmlns:xlink="http://www.w3.org/1999/xlink" version="1.1" viewBox="-10 0 1010 1000">
   <path fill="currentColor"
d="M603.342 396.709c5.46875 0 11.6211 1.82324 18.457 5.46875s10.2539 6.83594 10.2539 9.57031s-9.11426 5.46875 -27.3438 8.20312s-46.0283 9.79785 -83.3984 21.1914s-70.4102 23.0146 -99.1211 34.8633s-46.0283 17.7734 -51.9531 17.7734
s-12.9883 -0.911133 -21.1914 -2.73438s-12.5322 -3.64551 -12.9883 -5.46875s4.78516 -3.64551 15.7227 -5.46875s49.9023 -14.1279 116.896 -36.9141c66.9922 -22.7861 104.815 -36.2305 113.477 -40.332s15.7227 -6.15234 21.1914 -6.15234h-0.000976562h-0.000976562z
M502.17 553.252c-10.0264 -4.10156 -18.001 -10.4814 -23.9258 -19.1406s-9.79785 -19.3682 -11.6211 -32.1289s-2.73438 -45.8008 -2.73438 -99.1211s-2.05078 -81.5752 -6.15234 -84.7656s-5.69629 -6.15234 -4.78516 -8.88672s6.15234 -2.73438 15.7227 0
s15.2666 5.69629 17.0898 8.88672s1.59473 7.51953 -0.683594 12.9883s-3.41797 26.8877 -3.41797 64.2578s0.227539 61.5234 0.683594 72.4609s1.82324 21.875 4.10156 32.8125s5.9248 18.457 10.9375 22.5586s12.5322 7.51953 22.5586 10.2539
s21.1914 3.64551 33.4961 2.73438s22.7861 -2.96191 31.4453 -6.15234s15.2666 -12.9883 19.8242 -29.3945s7.51953 -24.6094 8.88672 -24.6094s2.96191 7.97559 4.78516 23.9258s4.3291 26.4326 7.51953 31.4453s2.05078 9.11426 -3.41797 12.3047
s-14.8115 6.83594 -28.0273 10.9375s-29.3945 5.9248 -48.5352 5.46875s-33.7236 -2.73438 -43.75 -6.83594v0v0z" />
</svg>
