<?xml version="1.0" standalone="no"?>
<!DOCTYPE svg PUBLIC "-//W3C//DTD SVG 1.1//EN" "http://www.w3.org/Graphics/SVG/1.1/DTD/svg11.dtd" >
<svg xmlns="http://www.w3.org/2000/svg" xmlns:xlink="http://www.w3.org/1999/xlink" version="1.1" viewBox="-10 0 1010 1000">
   <path fill="currentColor"
d="M515.771 362.256c-3.64551 0.911133 -13.8994 -5.9248 -30.7617 -20.5078s-25.2939 -24.1533 -25.2939 -28.7109c10.9375 0 21.6484 1.13965 32.1289 3.41797c10.4814 2.27832 18.2295 6.15234 23.2422 11.6211c5.01367 5.46875 7.29199 12.3047 6.83691 20.5078
c-0.456055 8.20312 -2.50781 12.7607 -6.15234 13.6719v0zM585.498 499.658c8.20312 12.3047 12.3047 22.5586 12.3047 30.7617s-1.13965 13.6719 -3.41797 16.4062s-8.20312 -1.36719 -17.7734 -12.3047s-22.1025 -26.4326 -37.5977 -46.4844
s-23.4697 -31.6729 -23.9258 -34.8633s2.50684 -3.87402 8.88672 -2.05078s16.1787 7.29199 29.3945 16.4062s23.9258 19.8242 32.1289 32.1289v0zM370.166 547.51c-1.36719 -1.36719 7.29199 -9.34277 25.9766 -23.9258s32.1289 -27.7998 40.332 -39.6484
s10.9375 -19.8242 8.20312 -23.9258s-2.50684 -6.6084 0.683594 -7.51953s8.43066 1.59473 15.7227 7.51953s11.165 10.9375 11.6211 15.0391s-5.0127 11.165 -16.4062 21.1914s-28.2549 21.4189 -50.5859 34.1797s-34.1797 18.457 -35.5469 17.0898v0zM361.279 430.615
c-7.29199 -3.64551 -10.9375 -6.6084 -10.9375 -8.88672s2.50684 -3.41797 7.51953 -3.41797s25.0654 -2.50684 60.1562 -7.51953s63.8018 -8.88672 86.1328 -11.6211s41.2432 -5.46875 56.7383 -8.20312s30.5342 -4.3291 45.1172 -4.78516s25.5205 2.27832 32.8125 8.20312
s10.2539 10.2539 8.88672 12.9883s-3.87402 4.55762 -7.51953 5.46875s-11.6211 0.911133 -23.9258 0s-28.0273 -1.36719 -47.168 -1.36719s-36.0029 0.456055 -50.5859 1.36719s-33.4961 3.19043 -56.7383 6.83594s-42.1553 7.29199 -56.7383 10.9375
s-23.6982 5.46875 -27.3438 5.46875c-3.64648 0 -9.11426 -1.82324 -16.4062 -5.46875v0z" />
</svg>
