<?xml version="1.0" standalone="no"?>
<!DOCTYPE svg PUBLIC "-//W3C//DTD SVG 1.1//EN" "http://www.w3.org/Graphics/SVG/1.1/DTD/svg11.dtd" >
<svg xmlns="http://www.w3.org/2000/svg" xmlns:xlink="http://www.w3.org/1999/xlink" version="1.1" viewBox="-10 0 1009 1000">
   <path fill="currentColor"
d="M426.286 490.742l-3.11328 -0.207031c-2.62988 -0.830078 -4.91309 -2.97559 -6.85059 -6.43457c-1.79883 -3.45996 -2.69824 -5.74316 -2.69824 -6.84961c0 -1.10742 0.553711 -1.66113 1.66113 -1.66113c0.691406 0 1.72949 0.208008 3.11328 0.623047
s3.87402 0.62207 7.47266 0.62207h2.49023l65.7988 -3.32031l-0.415039 -40.6836c0 -3.04395 -1.24512 -6.43457 -3.73633 -10.1709c-0.415039 -0.691406 -0.62207 -1.24512 -0.62207 -1.66016c0 -1.10742 0.760742 -1.66113 2.2832 -1.66113
c1.52148 0 3.59766 0.208008 6.22656 0.623047c7.47266 1.38379 11.209 3.80566 11.209 7.26465l-0.208008 45.458l59.7803 -3.32129c4.42773 -0.415039 7.26465 -0.831055 8.50977 -1.24609c1.24512 -0.552734 2.21387 -0.830078 2.90625 -0.830078
s2.00586 0.553711 3.94336 1.66113c1.9375 1.10645 3.73633 2.55957 5.39648 4.3584c1.66113 1.66113 2.49121 3.25195 2.49121 4.77441c0 2.62891 -1.73047 4.08203 -5.18945 4.3584l-153.393 7.8877c-2.76758 0.277344 -5.12012 0.415039 -7.05664 0.415039z
M443.307 570.241c-6.36523 5.9502 -11.832 10.5859 -16.3984 13.9062c-4.42773 3.32129 -7.26465 4.98242 -8.50977 4.98242c-1.24609 0 -1.86816 -0.692383 -1.86816 -2.07617c0 -1.38281 1.66016 -3.94336 4.98145 -7.67969
c16.7441 -18.4043 31.0654 -38.0547 42.9668 -58.9492c1.52148 -2.49121 2.2832 -5.18945 2.2832 -8.0957c0 -3.04395 0.62207 -4.56641 1.86816 -4.56641c1.24512 0 3.04395 0.830078 5.39648 2.49121c5.9502 4.42773 8.92578 8.44141 8.92578 12.0391
c0 0.830078 -0.138672 1.38379 -0.415039 1.66016c-11.624 17.2979 -24.7012 32.7266 -39.2305 46.2881zM584.66 570.863c1.24512 1.66113 1.86816 3.11328 1.86816 4.35938c0 1.10645 -0.553711 2.4209 -1.66113 3.94336c-2.62793 3.87402 -5.11914 5.8125 -7.47266 5.8125
c-2.35254 0 -4.3584 -1.03809 -6.01855 -3.11426c-17.9893 -24.0771 -34.5947 -44.2119 -49.8164 -60.4014c-1.10742 -1.10742 -1.66113 -2.56055 -1.66113 -4.35938s1.03809 -3.39062 3.11426 -4.77441c2.21387 -1.38379 3.87402 -2.0752 4.98145 -2.0752
c1.24512 0 3.59766 1.72949 7.05664 5.18945c3.45996 3.32031 9.89453 10.0322 19.3037 20.1338c9.41016 9.96289 19.5117 21.7256 30.3057 35.2861z" />
</svg>
