<?xml version="1.0" standalone="no"?>
<!DOCTYPE svg PUBLIC "-//W3C//DTD SVG 1.1//EN" "http://www.w3.org/Graphics/SVG/1.1/DTD/svg11.dtd" >
<svg xmlns="http://www.w3.org/2000/svg" xmlns:xlink="http://www.w3.org/1999/xlink" version="1.1" viewBox="-10 0 1010 1000">
   <path fill="currentColor"
d="M359.814 331.924c3.64551 -0.911133 12.3047 0.911133 25.9766 5.46875c3.64551 16.4062 7.51953 46.7119 11.6211 90.918s5.24121 67.4482 3.41797 69.7266s-3.87402 3.19043 -6.15234 2.73438s-5.0127 -8.43066 -8.20312 -23.9258s-5.69629 -30.3057 -7.51953 -44.4336
s-4.10156 -30.0781 -6.83594 -47.8516s-6.37988 -30.7617 -10.9375 -38.9648s-5.0127 -12.7607 -1.36719 -13.6719v0zM428.174 439.248c-10.9375 9.57031 -17.0898 13.4443 -18.457 11.6211s2.50684 -8.43066 11.6211 -19.8242s15.9502 -24.8369 20.5078 -40.332
s5.9248 -33.2686 4.10156 -53.3203c14.583 8.20312 22.3311 13.8994 23.2422 17.0898s0.227539 8.88672 -2.05078 17.0898s-6.6084 19.1406 -12.9883 32.8125s-15.0391 25.293 -25.9766 34.8633v0zM526.611 364.736c-0.911133 6.37988 -1.13965 13.6719 -0.683594 21.875
s2.50684 13.4443 6.15234 15.7227s9.11426 2.73438 16.4062 1.36719s12.7607 -2.05078 16.4062 -2.05078s7.97559 1.36719 12.9883 4.10156s7.51953 5.24121 7.51953 7.51953s-4.10156 4.78516 -12.3047 7.51953s-18.001 3.87402 -29.3945 3.41797
s-19.5967 -2.96191 -24.6094 -7.51953s-7.97559 -13.2158 -8.88672 -25.9766s-2.27832 -33.2686 -4.10156 -61.5234c14.583 10.0264 21.875 16.8623 21.875 20.5078s-0.456055 8.65918 -1.36719 15.0391v0zM539.6 460.439c-13.2158 0 -37.5977 2.27832 -73.1445 6.83594
c-35.5459 4.55762 -59.2451 6.83594 -71.0938 6.83594v12.3047c11.8486 0 37.3701 -1.82324 76.5625 -5.46875s73.3721 -5.46875 102.539 -5.46875c-10.0264 -10.0264 -21.6475 -15.0391 -34.8633 -15.0391v0zM637.354 344.229
c-3.64551 2.73535 -6.83594 11.3945 -9.57031 25.9775c-2.7334 14.583 -7.29102 38.7373 -13.6719 72.46c-6.37988 33.7236 -13.2158 55.3721 -20.5078 64.9414c-7.29199 9.57031 -13.2148 14.3564 -17.7725 14.3564s-6.15234 -3.87402 -4.78516 -11.6211
s-3.87402 -22.1025 -15.7236 -43.0664c14.583 7.29199 23.2422 7.97559 25.9775 2.05078c2.73438 -5.9248 6.83594 -25.2939 12.3047 -58.1064s8.43066 -53.3193 8.88672 -61.5225s-1.13965 -13.4443 -4.78516 -15.7236
c-3.64551 -2.27832 -8.43066 -3.64551 -14.3564 -4.10156c-5.9248 -0.456055 -75.8789 6.15234 -209.862 19.8242v-13.6719c14.583 0 44.8896 -2.27832 90.918 -6.83594s77.4736 -8.43066 94.3359 -11.6211s26.6602 -5.69629 29.3945 -7.51953
s5.9248 -2.05078 9.57031 -0.683594s11.8486 5.24121 24.6094 11.6211s19.3682 11.165 19.8242 14.3555c0.456055 3.19141 -1.13965 6.15234 -4.78516 8.88672h-0.000976562z" />
</svg>
