<?xml version="1.0" standalone="no"?>
<!DOCTYPE svg PUBLIC "-//W3C//DTD SVG 1.1//EN" "http://www.w3.org/Graphics/SVG/1.1/DTD/svg11.dtd" >
<svg xmlns="http://www.w3.org/2000/svg" xmlns:xlink="http://www.w3.org/1999/xlink" version="1.1" viewBox="-10 0 1010 1000">
   <path fill="currentColor"
d="M639.883 407.656c2.08301 4.58301 1.66699 7.08301 -1.25 7.5s-12.083 0 -27.5 -1.25s-28.125 -1.875 -38.125 -1.875s-30 1.25 -60 3.75s-52.917 4.79199 -68.75 6.875s-29.583 3.75 -41.25 5s-19.167 1.875 -22.5 1.875s-8.54199 -2.29199 -15.625 -6.875
s-10.625 -7.5 -10.625 -8.75s15 -2.91699 45 -5s56.667 -4.375 80 -6.875s47.708 -5.625 73.125 -9.375s41.458 -5.625 48.125 -5.625s14.375 2.29199 23.125 6.875s14.167 9.16699 16.25 13.75z" />
</svg>
