<?xml version="1.0" standalone="no"?>
<!DOCTYPE svg PUBLIC "-//W3C//DTD SVG 1.1//EN" "http://www.w3.org/Graphics/SVG/1.1/DTD/svg11.dtd" >
<svg xmlns="http://www.w3.org/2000/svg" xmlns:xlink="http://www.w3.org/1999/xlink" version="1.1" viewBox="-10 0 1010 1000">
   <path fill="currentColor"
d="M560.078 395.547c7.08301 2.91699 10.625 5.41699 10.625 7.5s-1.66699 3.75 -5 5s-7.70801 1.875 -13.125 1.875s-12.083 0.416992 -20 1.25s-20.208 2.5 -36.875 5s-26.458 3.75 -29.375 3.75s-7.70801 -1.04199 -14.375 -3.125s-10.208 -3.75 -10.625 -5
s15.417 -5 47.5 -11.25s50.208 -9.375 54.375 -9.375s9.79199 1.45801 16.875 4.375zM518.203 318.047c20 -5.41699 32.708 -8.125 38.125 -8.125s10.833 0.625 16.25 1.875s8.75 2.91699 10 5s0.833008 4.16699 -1.25 6.25s-6.45801 3.75 -13.125 5
s-24.583 4.375 -53.75 9.375s-47.5 7.5 -55 7.5s-13.542 -1.875 -18.125 -5.625s-5.625 -5.83301 -3.125 -6.25s11.458 -1.66699 26.875 -3.75s33.125 -5.83301 53.125 -11.25zM537.578 493.672c-22.083 0.833008 -42.083 2.5 -60 5s-35.625 5.20801 -53.125 8.125
s-27.5 4.375 -30 4.375s-8.125 -2.29199 -16.875 -6.875s-13.125 -7.5 -13.125 -8.75s3.95801 -1.875 11.875 -1.875s28.958 -2.08301 63.125 -6.25s69.375 -8.33301 105.625 -12.5s56.042 -6.25 59.375 -6.25s11.458 2.5 24.375 7.5s19.375 9.79199 19.375 14.375
s-7.5 6.04199 -22.5 4.375s-27.917 -2.5 -38.75 -2.5s-27.292 0.416992 -49.375 1.25z" />
</svg>
