<?xml version="1.0" standalone="no"?>
<!DOCTYPE svg PUBLIC "-//W3C//DTD SVG 1.1//EN" "http://www.w3.org/Graphics/SVG/1.1/DTD/svg11.dtd" >
<svg xmlns="http://www.w3.org/2000/svg" xmlns:xlink="http://www.w3.org/1999/xlink" version="1.1" viewBox="-10 0 1009 1000">
   <path fill="currentColor"
d="M456.643 466.349c-1.06836 0.133789 -2.07031 0.201172 -3.00488 0.201172h-3.20605c-2.93848 0 -5.1416 -0.535156 -6.61133 -1.60352c-1.33594 -1.20215 -2.53711 -3.00488 -3.60645 -5.40918c-1.06836 -2.4043 -1.60254 -4.07324 -1.60254 -5.00879
c0 -1.06836 0.467773 -1.60254 1.40234 -1.60254c0.400391 0 1.26953 0.200195 2.60449 0.600586c1.46973 0.401367 3.94043 0.601562 7.41309 0.601562h2.60449l84.3467 -5.00879c2.80469 -0.267578 5.0752 -0.667969 6.81152 -1.20215
c1.73633 -0.667969 3.00488 -1.00195 3.80664 -1.00195s2.13672 0.601562 4.00684 1.80371c4.80859 3.07129 7.21289 6.07715 7.21289 9.01562c0 1.87012 -1.73633 2.93848 -5.20898 3.20508zM423.986 546.488l142.848 -6.01074
c3.60645 -0.266602 6.34375 -0.667969 8.21387 -1.20215c2.00391 -0.667969 3.40625 -1.00195 4.20801 -1.00195c0.93457 0 2.4043 0.601562 4.40723 1.80371c2.00391 1.20215 3.80664 2.6709 5.40918 4.40723c1.60352 1.73633 2.4043 3.27246 2.4043 4.6084
c0 2.13672 -1.66992 3.33887 -5.00879 3.60645l-153.666 6.41113c-1.33594 0.132812 -2.53809 0.200195 -3.60645 0.200195h-2.80469c-3.20605 0 -5.27637 -0.333984 -6.21094 -1.00195c-0.935547 -0.800781 -2.4043 -2.33691 -4.4082 -4.6084
c-2.00293 -2.27051 -3.00488 -4.20703 -3.00488 -5.80957c0 -1.73633 0.333984 -2.60449 1.00195 -2.60449c0.800781 0 1.93652 0.200195 3.40527 0.600586c1.46973 0.401367 3.74023 0.601562 6.8125 0.601562z" />
</svg>
